<?xml version="1.0" encoding="UTF-8"?>
<svg version="1.1" viewBox="0 0 1161.8 868.99" xmlns="http://www.w3.org/2000/svg" xmlns:cc="http://creativecommons.org/ns#" xmlns:dc="http://purl.org/dc/elements/1.1/" xmlns:rdf="http://www.w3.org/1999/02/22-rdf-syntax-ns#">
<defs>
<filter id="a" color-interpolation-filters="sRGB">
<feGaussianBlur in="SourceGraphic" result="result0" stdDeviation="0.01"/>
<feDiffuseLighting lighting-color="#ffffff" result="result5" surfaceScale="4">
<feDistantLight azimuth="235" elevation="45"/>
</feDiffuseLighting>
<feComposite in="result5" in2="SourceGraphic" k1="1.4" operator="arithmetic" result="fbSourceGraphic"/>
<feGaussianBlur in="fbSourceGraphic" result="result0" stdDeviation="6"/>
<feSpecularLighting lighting-color="#ffffff" in="result0" result="result1" specularExponent="25" surfaceScale="4">
<feDistantLight azimuth="235" elevation="45"/>
</feSpecularLighting>
<feComposite in="fbSourceGraphic" in2="result1" k2="1" k3="1" operator="arithmetic" result="result4"/>
<feComposite in="result4" in2="SourceGraphic" operator="in" result="result2"/>
</filter>
</defs>
<g transform="translate(46.516 62.023)">
<path d="m53.558 10.393c3.6605 2.3566-3.0578 6.8032-3.2574 2.5448 0.47251-1.3586 1.8268-2.4234 3.2574-2.5448zm27.739 16.287c7.197-0.79597 8.3383 11.431 0.55986 10.892-6.6829 0.06328-8.4472-10.966-0.55986-10.892zm367.98 4.835c3.7514 0.45866 3.8815 2.5685 0.45806 1.3742-0.33042-0.21034-0.98351-1.3434-0.45806-1.3742zm78.33 2.8502c7.3808-0.63967 3.3056 10.228-0.86524 9.2122-2.2986-3.2751 2.2871-6.0512 0.86524-9.2122zm-62.45 0.35628c1.6621 7.8225 13.174 7.5977 16.083 15.32 1.0569 2.2589 4.351 9.5899 6.362 4.5298-0.54722-3.6454-2.0845-11.506 2.6975-11.91-1.8625 2.9888 1.9115 4.1809 3.1556 4.428-2.4788 6.1163 1.6316 12.796 8.6015 11.197 3.7945-2.0899 2.6572 4.8705 7.5836 3.2574 1.5061 0.87018-4.7832 1.6242-4.5298 4.2753-3.9687 2.2321-12.991-0.70748-12.368 6.6674-0.54887 3.6246-8.642 10.477-1.5269 11.604 4.2429-0.20807 5.8821-7.7124 7.7362-7.8889 0.73314 10.962 2.9105 21.746 2.8502 32.879 0.4224 5.6404 6.5728 7.6144 9.823 11.095 3.9246-0.10243 7.3755 0.65667 8.1434 4.9878 1.6791 2.5606 5.5398 1.2152 1.476 3.5118-2.9669 4.8262 3.0277 6.3147 5.8531 7.4309-3.1565 3.1232-11.174 6.4484-10.128 12.215 5.0285 1.5428-1.8397 6.2443-3.6645 8.1943-2.3172 0.79874-7.322-0.35206-5.1405 4.2753 2.3591 5.5942 11.908-1.9396 10.179 6.0058-0.14056 6.9199 9.9492 15.127 2.5957 20.817-4.6304 3.2215-0.47484 8.5489 3.7154 9.3649 5.8826 2.8401 5.872 8.9466 5.395 14.505 1.7221 3.9109 6.7305 4.8539 9.0596 8.0416 3.7919-0.0769 2.3186 8.148 7.9907 6.5656 5.5813 0.57706 9.6406-4.1959 15.269-1.7305 8.4582-0.14033 1.6646-10.23 2.5957-14.098 4.4167-1.1918 3.5576-6.9315 5.4459-9.1614 3.1316 0.84663 2.5434 8.6637 6.9728 4.0717 4.2268-7.5092-4.1589-16.577-8.6015-20.511 5.5956-1.4988 2.7046-6.1677 1.1197-9.4158-0.819-5.4759 0.97656-10.768 5.6495-13.386 2.5385-2.2137 2.8485-12.882 5.7513-6.5147 1.356 7.4705 2.8717 15.19 9.5092 20.226 3.6331 5.0028 9.2793 6.4359 13.852 9.0904 3.0486 0.0279 6.4455-1.6609 6.5147 2.7993 4.855 5.1262-4.405 0.58161-6.9728 3.919-3.6014 2.0311-10.943 9.442-3.7663 11.655 7.331 1.6905 17.016-2.0972 22.344 3.6645 3.1379-1.5461 0.95718-6.5822 5.904-2.2903 4.4659 1.8924 6.2634 7.9233 1.6287 10.434-3.3008 14.057 17.141 21.525 26.67 12.928 7.2701-2.6471 17.266-4.0899 19.799-12.52 7.9814-8.9854 12.754-20.362 22.445-27.739 2.1941-2.499 7.8374-12.57 10.586-5.395-2.2226 20.497-16.876 37.038-30.182 51.711-2.4221 2.2227-3.8219 6.5991-4.937 8.6524-3.416-1.7329-8.1452-0.72894-7.38 3.6645-2.5451 3.0426-7.1618 6.4875-3.6136 10.739 2.9203 7.4577-6.5642 16.504-0.0509 22.344 4.8563 3.0634 11.126 5.8036 10.841 12.571 3.6083 7.7123 16.11 9.8993 21.631 3.8172 5.281-2.3336 10.432 0.22338 13.131 4.4789 4.2721-0.66885-0.42867 4.3774 1.3742 7.2273 2.1323 4.621-3.8491 9.8183-0.91614 13.386-4.6148 2.4306-17.064 2.054-13.538 10.281 0.94101 3.9716 6.0995 6.487 2.7993 10.434-0.83638 4.5526 2.8504 8.5126 6.4638 8.9069-0.49928 7.5903 8.4527 10.099 13.793 6.2094 5.527-1.3864 8.7281-5.7646 13.437-7.6854 1.5987-1.7382 1.0012-7.1495 2.3412-2.1885-0.91939 2.4041 0.41872 4.7654 1.0688 6.4638-5.0519 4.1875 1.2373 8.3452 5.8022 7.0746 2.7664 0.23163 13.433-1.518 8.9069 4.3262-3.3368 4.284-1.0674 12.356-7.9398 14.149-5.106 3.3671-16.693-1.5182-16.999 6.9728 0.91524 5.0717 7.487-0.0588 6.0567 5.5986 2.2242 3.17 7.4038 3.9034 6.1076 9.1104-0.7413 3.7006 2.5912 10.983-3.5628 10.179-3.9246 3.4653-11.825-1.8763-13.538 3.8681-0.0195 4.0483-4.567 5.9402-7.5836 3.5118-8.5333 1.3877-11.282 13.896-8.4997 20.868 3.8927 1.6151 1.0832 0.62466-0.86524 2.6975-3.425 6.6322-10.664 14.262-5.5477 22.14 2.3189 2.3086 8.2522 1.678 5.7004 6.5656-3.0516 5.9164-6.433 18.118-15.574 14.505-7.4815-0.0338-19.217 0.72328-21.733 9.1104 0.83365 7.5243 10.569 3.4086 14.76 7.5836 6.6223 4.033 12.287-7.6635 18.424-1.476 3.3458 3.1583 3.8835 9.2073-0.91613 11.146-0.3753 5.5429-5.1991 2.0668-7.2782-0.25448-6.9301-0.68309-3.6099 9.2196-9.1105 11.604-1.253 2.3753 0.83858 7.0741-3.7154 4.7334-3.4909-0.97134-3.6671 6.4275-6.6674 3.2574 2.1199-9.1716-11.877-8.4372-11.197-17.203-1.356-5.4177 0.34613-10.49 4.8352-13.437 0.21484-4.4966-9.0415-7.819-9.2631-1.5269-0.25885 5.9757-6.5347 9.475-6.0058 15.472-2.9694-0.34593-11.586-2.0255-8.4488 3.4101 3.8098 3.0594-2.1418 10.94 5.0387 10.637 3.2531 0.10236 7.409-3.8882 5.2423 1.4251-0.84787 3.3862-5.2181 7.5934-7.0237 2.4939-1.7388-5.5365-8.3712-6.8842-11.604-1.9341-6.5075 3.3419-7.2687 12.12-0.66165 15.269-3.5612 2.9114-7.4395 5.2717-11.146 7.5836 0.56045 4.3344-6.161 2.9003-5.5477 7.1764-4.4086-2.9203-0.43825-8.7779-4.0717-12.419 0.55147-4.021 9.525-7.8041 2.2394-10.637-4.8961-2.4687-11.908-7.8571-16.389-4.0208-0.69018 5.2106 5.6425 16.589-3.3592 17.152-4.1107 0.32883-9.4655-1.4743-12.52-2.3412 0.99722-5.5151-5.2894-6.768-5.7004-11.503-5.3881-5.722-12.452 4.9996-5.7004 8.4997 4.3928 2.749-3.6808 7.3964-1.4251 11.553 3.4404 4.4263-6.0005 1.989-8.0416 0.71255-6.6189-2.1587-6.0733-11.049-13.233-12.775-5.369-1.2245-6.5828-12.855-12.928-8.2452-2.8435 3.3248-8.9647 1.2634-11.299 5.8531-5.8165 4.5087-6.2834 10.781 0.66165 14.353 5.1521 2.6856 7.8212-6.5138 13.691-3.1047 13.256 4.0622 23.584 18.221 20.673 32.471 1.1114 5.6457-3.138 11.876-1.3325 16.847 2.1973 1.9546 2.6885 10.423-1.0179 10.485-2.7815-3.4287-7.6668-4.4422-9.4667 0.71254-5.1715 3.7318-7.7862-4.713-8.6524-8.0416-4.4897 1.3368-4.0801 10.302-8.7542 11.452 0.87952-4.6291-5.9671 0.28243-4.5298-4.5807 1.5317-7.4342-5.191-12.829-1.5778-20.104 1.0311-4.5364-1.3366-8.2486 0.81434-12.521 0.90488-7.9526-2.8949-16.846-11.045-18.781-3.6503-4.0963-8.4615 2.9908-11.248 3.1556 0.6946-4.6609 5.0787-6.0855 5.9549-10.383 6.9174-4.1926 13.634-12.296 13.742-20.664-1.1219-7.8545-11.114-7.9268-15.371-2.443-2.6925 3.9356-7.8896 4.2367-10.128 7.5836 1.9959 2.433 3.4485 4.0723-0.50896 5.7513-3.3243-4.7684 3.0412-11.87 5.7435-15.987 7.6304-7.563-5.1898-4.7616-9.0009-8.0874-1.224-6.8166 7.8721-11.098 6.9728-18.577 2.3204-5.8689 0.0516-17.733-7.9907-16.083-4.0804 7.5066-12.603 9.1712-20.308 7.38-7.0285-0.35742-15.974 2.0616-16.847 9.9248-3.0767 2.3782-1.9219-4.9024-0.50896-6.0058 3.0726-6.9477-7.2049-7.0404-9.2631-12.419-2.679-4.6026 10.939-10.861 3.0538-14.404-5.4603-2.5832-6.2511 4.7341-10.994 4.0717-9.1128-0.0671-20.191 3.3971-28.247-0.76345 2.1709-2.9532 3.9384-8.9425-1.6796-9.6703-5.9474 1.4173-11.244-0.78903-15.472-4.9878-4.4963-1.6154-8.5343-3.3373-11.197-7.5836-6.8198 0.0942-1.3372 12.981-9.5685 11.401-10.454-0.76961-17.602-9.6019-23.209-17.203-8.9128 1.7308-20.956-3.5192-28.197 3.3592-4.428 9.778-16.198 15.873-26.364 15.065-6.0372-4.4935-9.0544 6.2223-15.422 5.1914-12.873 2.6875-26.871 0.0275-35.627-10.23-3.7882-3.9783-14.564-7.2013-9.5685-14.251 4.6563-6.4779 14.646-2.2397 19.137-9.4158 4.6533-6.9664 14.736-10.902 21.631-4.2753 3.2106 4.7486 7.6566 12.939 14.76 8.9069 3.0768-0.0954 1.5477-8.5715 3.6136-5.904-1.2875 8.3155 8.6858 6.4202 13.844 6.871 7.7414 1.2241 16.543 2.4199 22.191-4.3262 5.8264-5.0184 17.634-1.8049 18.984-11.808 2.2651-5.0939-0.0594-12.144 2.3412-16.643 6.9139-0.76275 16.077 9.4743 21.478 2.0868-0.15648-8.4243-16.965-2.6681-14.556-11.808 2.204-5.8725 6.9151-11.814 14.098-9.9248 5.3057 0.889 11.424-0.82876 11.859-6.9728 3.7016-9.354 11.26-16.685 16.134-25.041-1.8421-2.3919-5.7357-2.4915-6.5147-6.5147-2.9641-3.3911-8.1695-2.1302-10.128 1.1197-7.2266 2.8466-13.329-1.18-19.442-4.1735-5.749-1.8378-3.358-9.8018-8.0416-13.029-2.5365-6.0328-0.0626-12.084 3.6645-16.643 1.9504-1.7032 5.2894-4.2659 9.1614-3.9699 5.5236-2.409 12.615 3.7017 16.898-0.71255 0.0307-4.4992 4.0611 0.11914 3.1556 2.443 2.8076 7.0414 6.147 13.868 7.0746 21.427 3.6093 5.7383 13.297 6.2494 14.251 13.589 2.9965 0.92841 5.059 1.8406 3.8172 5.8531 0.54209 7.102-5.9532 14.332 0.61076 20.46 2.4285 2.7819 6.6982 2.2128 7.8889 6.2094 6.7329 2.3673 5.3352-8.5143 6.5147-12.419 5.2568-5.95 1.1116-16.172-3.5627-20.868 3.9795-3.9749 4.35-13.382-1.7305-14.913-2.0017-4.385 7.5091-2.8092 4.0717-8.2961-1.4196-2.971-8.0642-3.2847-5.4968-7.38 3.9103 1.4725 13.539 1.5794 10.485-4.9878-2.4139-1.6854-3.7932-5.3302 0.61076-4.3771 4.1247 2.6232 7.9778-1.3086 4.1226-4.3771 2.5841-5.4931 10.367-8.2201 14.251-2.952 7.3041 1.3285 2.5217-8.4399 1.476-9.7212 7.6435-1.3914 4.1086-10.707 0.30538-14.2-0.31823-5.1574-6.4469-4.6705-9.314-6.362 0.33663-13.954-15.253-21.095-25.346-27.484-5.3542-4.8335-17.008 3.5462-10.179 8.9578 3.3489 4.868-6.0411 1.8848-3.7663-2.7993-2.6104-4.7156-5.5207 1.936-8.5506-0.81434-6.5332-2.2268-14.106 3.9115-19.85 0.61076-4.0174-7.8755-0.27168-17.782-3.1047-26.263-0.32616-7.5504 6.0723-14.503 12.368-17.814 10.576-0.51582 0.77452-7.0774-2.1885-11.146-3.5515-8.0061 3.7355-18.666-1.6796-25.754-12.838-0.36407-25.48-10.578-26.008-23.667-4.6999-5.5169-14.301-2.9867-20.918-4.1735-6.4439 1.8164 0.81953 11.31 5.5477 10.994 3.1166 0.75312-1.8822 7.21 1.9341 9.4158 2.2259 2.2881 6.4704 3.6187 2.0868 6.362-3.3675 3.2653 0.33506 7.9305-3.5628 10.637-2.6579 4.4978 2.1999 8.8666 5.8022 7.9907-2.9068 4.3485 2.0164 12.569 0.66165 14.862-8.0692-0.0894-3.5518 10.17-1.2724 11.706-4.6465 1.7302-1.7772-4.8173-6.6165-4.8352-4.7552 0.71295-8.9712-0.0142-13.233-1.985-4.0614 1.4272-4.347-0.67662-5.2423-4.1735-5.412-6.4221-2.3785-14.818-0.86524-21.885-1.9748-3.108-7.3069-1.0579-8.3979-5.8022-6.42-8.7323-6.5938-24.34 5.0896-28.604 4.9058 1.1132 15.391-4.8851 8.7033-9.2631-3.7706-3.5798-12.094-1.3458-11.553-8.4488-2.1842-8.1468-1.1333-18.892 8.8051-20.868 11.605-4.8908 18.552 10.174 28.451 13.437 4.4569 0.88967 4.9584 4.4324 4.7843 8.1943 2.447 7.5896 10.481 10.172 17.407 11.197 2.8815 2.0517 5.3859 9.6583 9.314 4.8352 2.6289-6.0662 12.327 1.1273 7.7872 4.7843-8.4504-1.5022-18.038 10.886-9.0596 16.389 11.068 4.0798 25.532-2.2958 33.541 9.1614 6.9163 6.6014 11.361 22.81-0.20358 26.975-3.1314 1.3492-0.0459 7.2491-4.5807 4.428-7.1447-1.5115-2.3882 7.3168 1.1197 9.0087 2.147 2.2987 8.8125 0.29837 5.1405 4.886-6.9425 2.7363-0.0219 12.427 3.9699 15.065 1.4501 1.0033-6.8699-0.52584-3.461 3.7663 7.329 9.3294 20.174 14.496 31.505 9.9248 6.2232 2.2693 7.3025 11.275 13.793 12.368 1.3349 4.6834 6.928 4.8276 8.7033 0.15269 2.7146-6.0421 6.4284-11.172 12.979-12.877 3.8873-5.1707-4.7501-5.6247-8.1943-6.1585-2.9199-1.4529-11.643-4.2615-5.7513-7.5327 1.8183-9.0106 18.518-6.3399 18.424-16.999 0.53243-3.4344 1.5884 5.3706 3.6136 6.362 5.5953 4.103 10.458-6.6626 4.7334-9.5685-5.5102-3.2297-4.3494-9.5693-6.4638-14.455-2.2862-1.5312-7.8076-0.91029-5.395-5.3441 1.5812-5.0221 4.0604-10.56 9.4158-11.757 2.7075-8.6071-11.049-9.5272-13.742-15.829-3.3258 1.0211-9.9731-2.8501-5.5986-6.1585 2.2223-3.6381-2.8446-8.1417-2.2903-9.823 4.3682-5.1113-3.1049-12.005-5.2423-16.898-5.5029-2.2796 0.48704-9.2206-5.2423-11.197-1.723-3.6033-0.12709-8.7525-1.9341-12.571 1.511-6.1538 9.0899-13.164 2.1376-18.883-3.9006-2.3078 0.71332-5.6651 1.0179-9.0087 3.3391 1.7872 3.7428 14.079 10.179 7.6854 0.59702 5.5638-4.3879 3.0531-7.2782 4.5298-2.3218 6.3066 8.6828 6.3015 12.571 6.3112 5.9007 2.0215 11.076-5.265 5.8531-9.3649-1.5929-3.0552-2.6433-8.357-7.5836-8.8051 4.7634-2.1708-0.59688-8.886 4.8352-10.23 6.6112-3.0825 4e-3 -9.4362-4.937-9.0087-4.2641-2.2817-14.061-2.2111-15.574-7.38 4.638-2.2844 6.3059-13.11-1.1197-11.045-3.9036-1.2614-3.0009-12.946 0.86524-6.4638 3.3254 1.7656 4.129-4.0098 6.0567-4.0208zm-297.23 0.35627c8.8608-2.5367 12.889 12.421 22.089 7.38 4.0302-2.919 3.385 5.3856 7.3291 5.8531-2.1254 4.2577 0.47424 11.785 5.904 7.6854 1.356-5.5281 1.8489 3.7794 5.7513 3.0538 4.1918 0.19999 4.1056 4.9495 6.1585 7.0746-1.4918 4.0427 0.45551 10.237 1.3233 12.368-3.9606-0.26298-10.068 1.0727-9.3649 5.9549-5.1946 1.1318-7.5332-8.0272-12.266-3.0538-1.5735 1.9744-2.748 10.646-6.4638 7.6854-1.1733-4.4216 7.2206-2.9622 5.395-8.6524 0.8339-5.0626-2.8548-9.0481-7.6854-9.2122-5.7173-3.4735-10.827-8.825-17.407-10.128-1.8114 2.93-1.7106 2.1568-4.886 1.5269-1.4277 2.9468-3.5492 3.5079-3.8172-0.50896-3.9568-0.90033-2.4806-6.3233-6.5656-7.9398-2.7404-5.1784-0.98751-12.129 4.886-13.946 2.4551-3.1788 5.4623-5.2424 9.6194-5.1405zm69.372 0.91614c3.1123 2.6253-0.29103 3.476 0 0zm103.42 3.2065c-0.40253 0.18888-0.40253-0.18888 0 0zm162.66 3.2065c1.9609 1.8217 1.3079 8.7986-2.1376 6.1585 0.93872-1.5294 0.19801-6.0191 2.1376-6.1585zm-420.05 4.988c7.9853-1.2564 12.085 9.8817 4.3262 13.335-9.6895 6.4142-15.951-12.488-4.3262-13.335zm149.08 0.30538c3.2556-0.05759 3.9744 5.1135 0.20359 1.7814-0.62208-0.7119-2.3109-1.5907-0.20359-1.7814zm329.35 0.40717c3.8601 2.6731-2.7223-0.06959 0 0zm-176.71 4.2753c8.3241-0.66316 8.8801 13.028-0.50896 9.0087-4.58-1.7341-5.9876-9.2728 0.50896-9.0087zm181.95 1.325c1.5121 2.3946 0.0767 0.6638 0 0zm-337.85 5.4459c2.9478 1.7757-0.91126 1.6135 0 0zm221.45 2.7993c3.6975 0.77848-0.75747 2.3457-1.2724 0.15269 0.41906-0.11029 0.83448-0.12278 1.2724-0.15269zm-180.99 3.257c2.658-1.2448 9.7359 3.252 3.461 3.3083-1.9318 0.46737-11.206-0.19072-6.4638-2.7993 0.97027-0.32538 1.9926-0.40366 3.0029-0.50896zm170.1 3.7663c4.9061-0.62781 4.982 7.4223 0.61075 7.3291-3.2149-2.6726-6.8953-5.4819-0.61075-7.3291zm115.48 1.3742c3.1894 0.70786 0.50861 7.0672 5.7004 6.0567 3.7805 1.1904 10.55-1.148 12.724 0.0509 1.7859 3.5929-2.4828 8.8107-5.4968 4.428-5.0308-3.9605-8.7553 3.7392-9.8739 5.2423-2.3222-3.5938-10.51-3.3951-5.2423-7.9907 0.17973-2.5454 4.7702-3.2299 2.3921-6.9219 0.0324-0.30372-0.57225-0.89776-0.20359-0.86524zm-41.735 1.8832c6.1586-0.44069-3.4518 5.3731-2.1886 0.71255 0.60024-0.52752 1.3896-0.7299 2.1886-0.71255zm-274.03 0.35628c6.8658-0.31904 14.699 3.2137 13.538 11.095-0.0178 4.176-1.1228 8.2589-5.3441 9.2631-1.068 3.6468-3.1628 3.8845-5.2932 0.50896-2.8251-4.0028-9.7733-2.7566-9.3649-9.1613-0.58519-4.5551 0.76429-11.636 6.4638-11.706zm-60.16 0.76345c3.7835 2.381-2.5101 1.5776 0 0zm358.46 0.0509c2.5632 1.0693 5.6474 5.2753 0.25448 4.6825-3.3166 1.6178-3.3752-5.0523-0.25448-4.6825zm169.94 0.15269c3.6064-0.2271 9.4718 3.8837 4.3771 6.5656-10.926 4.375-7.9698 17.967-12.678 26.776-3.2255 8.4233-5.0584 17.889-9.5131 25.444-2.9988 0.66581-1.8612-6.876-1.7814-9.0087 1.6872-4.6354-1.0682-10.225 3.9699-12.826 8.5873-10.316 7.613-25.135 13.64-36.187 0.61917-0.39522 1.1892-0.80499 1.985-0.76345zm-291.98 3.36c5.6198 1.2962-4.984 9.7264-5.4459 5.5477 3.7735-0.32584 3.141-4.8064 5.4459-5.5477zm111.97 9.7721c4.026-0.04081 2.7149 4.9287-1.0179 2.6466-1.8223-0.79286-0.5309-2.5423 1.0179-2.6466zm-309.7 0.96703c3.0508-0.57043 9.9038 0.48213 6.1076 4.6316-1.7806 4.2423-6.6811 7.3318-9.314 1.985-3.4144-3.305-1.3002-6.7185 3.2065-6.6165zm501.79 0.55986c4.5798 0.0731-0.94888 5.4348-0.55986 1.3742 0.16405-0.37821-0.13067-1.476 0.55986-1.3742zm-398.01 1.9341c1.5714-1.0461 6.7183 2.1084 3.8681 2.5448-1.3669-0.54457-3.1395-1.7174-3.8681-2.5448zm230.15 1.1706c1.9543 2.4772 0.57181 9.3626-2.6975 4.8861 2.1008-1.0143 1.6714-3.587 2.6975-4.8861zm244.25 0.40717c5.7042-1.2365 9.4833 9.8461 3.0029 10.23-2.6205 5.5639-1.9409 12.809-6.871 17.559-4.1236 5.6896-6.4403 6.8807-0.91613 0 4.3509-5.8288 9.4943-15.699 3.0538-21.58-0.34597-1.6095-0.64463-6.1625 1.7305-6.2094zm-540.88 7.6854c7.9909 1.0979 10.731 9.721 13.386 15.931 4.057 1.8008 8.6933 1.6979 11.401 5.9549 3.1505 2.552 9.0099 4.2894 11.808 4.2753-6.339-1.4719-8.1327 5.6749-4.8352 9.9248 3.1797 4.3437 1.4538 4.328-1.5778 6.2094-1.4303 7.3283-11.739 7.9323-17.916 7.3291-4.8898-2.3921-5.7418 2.8548-6.6165 5.8022-6.9201 0.0454-1.0194 6.8581 0.35628 9.7721 1.4923 3.5836-6.1229 0.64656-6.4638-1.6796-6.2388-5.797-11.783-12.612-12.622-21.376-5.3999-5.3209-17.711-1.4018-19.85-10.943-4.0917-9.6011 9.291-18.09 16.236-10.281 2.2604 3.1983 8.562 6.9461 7.7362 10.892-5.9672 0.54582-5.0696 12.291 0.96703 7.8889 6.0307-7.8604 8.4204-20.476 0.86524-28.197-3.8343-5.3684 1.8852-10.975 7.1255-11.503zm-92.479 0.66166c3.591 2.7928 12.197-0.62509 10.994 6.7183-0.61649 9.4072 11.54 12.968 17.05 6.7692 4.789 2.4983 3.0965 6.7123 1.3742 10.536 0.14905 6.8417 2.5377 17.097 8.9578 19.595-3.0551 4.1031-12.682 3.2137-10.383 10.841 3.798 3.0384 4.7787 8.6126 9.7721 11.095 3.6386 4.1166-4.5552-5.718-8.3979-4.0208-6.0158 3.9898 2.6871 10.278 5.3441 13.538 3.7654 4.5492 9.7004 8.1654 13.64 11.604-2.9073 1.9725-6.2005-5.1006-8.9069-6.2603-2.2957-2.9035-11.501-7.251-9.7721 0 1.3856 4.2122 4.4639 8.682-0.96704 10.943-3.4091 5.0052-1.5063 12.545 4.3771 14.302 3.577 3.4685 0.2618 9.2561-4.5298 7.1255-3.4055-1.4486-10.055-0.98194-9.6194 3.0029 0.88446-4.5156-7.4456-7.798-6.2094-1.5778-1.3461-5.3199-8.2068-1.842-10.332-7.1764-2.4766-4.3026-7.9003-5.5662-11.146-2.3412-5.4206-11.985 0.13368-25.711 8.9578-34.304 7.7127-0.8024 1.4977-8.6371-3.1556-8.8051-6.2151-1.7344-13.377-1.6644-18.221-6.0058-2.6128 0.21556-3.4597 6.0387-3.0029 0.55986 3.567-6.8026-3.707-14.458-10.434-11.757-5.6902 3.144-4.315 11.954-9.4158 15.116-1.2912-6.7345 5.1444-12.952 8.347-18.883-1.6252-9.7591-3.6583-22.225 3.3592-30.741 9.3298-6.5843 22.851-3.0687 32.167-9.9248zm386.2 2.6466c6.6666 1.4245 15.193 0.88304 19.9 6.3112-3.0391 5.0151-7.0773-0.51973-11.095-0.20359-1.4623-5.1621-11.55 2.1545-9.6194-5.0387 0.25312-0.33653-0.39039-2.177 0.81435-1.0688zm375.41 6.7183c0.57641 3.3747-2.4262-0.28521 0 0zm-639.82 6.6165c2.6393-0.38481 4.3643 4.6662 1.2724 1.4251-0.38872-0.40914-1.1028-1.0361-1.2724-1.4251zm289.65 0.30538c-0.80478 4.897 4.1626 7.4142 6.9728 9.1104-1.2725 6.4452 3.3416 11.156 5.904 15.981-2.5491 4.7091-12.26-2.3834-13.233 4.8352-7.1356-0.18434-17.097 4.378-16.643 11.859-6.5804 2.7486-5.2202 12.918-4.937 17.916-8.0793 2.1708-8.3906 11.825-9.3649 18.374-5.8013 4.7475-11.152-6.772-3.5118-8.7542 5.228-5.5084 2.7604-14.112-0.25448-19.748 2.9362-3.696 3.6312-8.6878 3.7663-13.182 2.1544-3.8283 10.766-2.1175 7.4818-8.7542 0.21625-2.8288 6.6196-4.9179 5.8022-0.66165 2.3422 5.8449 14.993 2.5636 10.179-3.5118-4.9972-3.3476-12.268-5.0598-14.2-11.197 4.4908 0.23559 7.0184-2.6342 10.994-2.3412 1.5973-1.756 2.6233-6.6444 4.6316-6.3112 1.1599 6.1674 7.0366 5.2158 6.4129-3.6136zm-167.25 0.20358c3.9394 0.11119-5.0409 1.4564 0 0zm-38.732 3.3083c4.4742-0.76361 14.772 4.4428 8.2961 8.2452-2.2656-3.6217-8.876-5.2763-10.383-7.7871 0.63709-0.37069 1.3654-0.42211 2.0868-0.45807zm-164.24 0.71255c5.1702-1.679 6.7434 4.6896 1.985 6.0567-0.30287-1.3071-3.8492-5.8752-1.985-6.0567zm217.53 0c2.4417 0.19767 9.3269 1.9487 7.9907 4.9878-4.0777 4.3687 2.9327 5.8016 6.0567 5.1405 0.59729 3.2739 0.98707 13.809-4.7334 10.179-3.5374-2.3145-7.5566-0.0451-10.688-3.6136-1.8977-0.99562 1.2831-6.5738 0.15269-9.2631 0.52235-1.7808-0.9286-6.599 1.2215-7.4309zm287.06 2.443c5.1937-1.0546 7.746 5.9034 1.985 7.0237-6.4305 3.14-8.9847-7.2919-1.985-7.0237zm-162.51 5.7513c-1.2677 1.4339-9.2635 1.3843-4.0717 0.20359 1.3518-0.17109 2.7083-0.21737 4.0717-0.20359zm-142.3 11.96c-0.9379 2.2253-5.9393 3.652-1.9341 0.76345 0.54675-0.42512 1.2387-0.75029 1.9341-0.76345zm-100.93 1.3233c4.0425-0.37561 2.9426 6.2689-0.40717 2.3412-1.9426-1.0864-1.594-1.933 0.40717-2.3412zm109.38 1.985c0.76864 0.52515-0.76415 0.54121 0 0zm-185.21 0.96703c3.6693-0.13919 4.772 5.2013 0 4.6825-3.5506 1.622-5.2738-1.7128-1.4251-3.5118 0.55118-0.0153 0.81364-1.1902 1.4251-1.1706zm561.39 0.66165c2.2971 1.374-0.57128 1.164 0 0zm-72.527 1.3233c3.2243 2.2702-1.9751 4.36-2.1376 1.9341 0.50832-0.80177 1.2695-1.5679 2.1376-1.9341zm-190.2 4.9369c0.1008 3.8936 9.1091 2.1722 4.2753 4.9878 1.2861 3.4981-7.5494-3.6653-4.2753-4.9878zm191.93 3.6645c2e-3 0.37905-0.1378-0.11695 0 0zm-149.84 2.9011c-0.26611 3.9428-1.9534 1.8185 0 0zm-143.07-0.0509c3.9366-0.4946 8.6586 6.0764 4.0208 7.4309-2.7092-1.086-3.5513-4.9442-4.0208-7.4309zm325.99 2.0359c1.8455 0.99524-3.224 0.83116-0.10179 0zm-221.76 0.71254c1.7717 5.3178-4.0716 3.0004-1.1706 0.0509 0.47626 0.38626 1.3878-1.1753 1.1706-0.0509zm213.87 0.35628c2.5708 2.4273-2.425 7.6367-3.5118 10.332-7.455 7.9086-8.0507 21.027-17.05 27.128-3.298 2.0118-8.6871 2.3501-5.2932-3.1556 0.55754-7.1738 8.5777-9.2805 10.077-15.422-0.68359-3.9013-1.8724-8.3775 3.8172-8.6015 5.7759-1.6822 6.0708-9.7682 11.961-10.281zm-11.503 1.3742c3.2898 0.55685-2.6506 1.9482 0 0zm173.76 0.45807c2.9478 1.7757-0.91127 1.6135 0 0zm-605.11 1.1706c3.0788 2.468-4.8668 1.4001-0.61076 0.10179 0.20348-0.0238 0.40353-0.10904 0.61076-0.10179zm363.25 3.3083c-0.40253 0.18888-0.40253-0.18888 0 0zm216.31 1.5778c3.2898 0.55684-2.6506 1.9482 0 0zm-522.45 0.71255c5.2048-0.36853 9.6022 2.8412 11.35 7.38 0.5467 0.94229-4.7926 6.0446 0.55986 7.38-3.1221 6.6586-12.765 9.1052-17.814 3.0029 0.0285-3.2633-3.8092-3.0217-1.7305-6.0567-0.12681-3.1033-6.1133-3.208-1.2215-6.0058 2.279-3.7754 3.9768-5.756 8.856-5.7004zm-224.35 3.1047c0.0443 2.3854-2.3814 5.6634-1.0179 1.476-0.19366-0.19826 1.4242-2.9947 1.0179-1.476zm99.146-0.25449c5.8775-0.19669 9.8686 10.907 3.2574 12.571-6.155-0.18471-10.664-10.707-3.2574-12.571zm423.46 0.20359c5.9621-0.62973 11.572 4.0764 8.5506 10.485-0.24942 6.7167-9.8657 11.67-15.676 9.0596-6.4596-3.6454-7.9846-11.478-2.0358-16.44 2.5035-2.1883 5.8982-2.9569 9.1613-3.1047zm-181.29 0.10179c1.989 1.7514 0.53067 4.156 0 0zm-362.69 1.4251c2.1062 0.99216-0.94815 1.0131 0 0zm176.1 0.15269c5.1732-0.33411 9.2733 3.2134 9.3649 8.2452 2.8919 2.8802-2.308 8.3552-5.4968 8.8051-10.077 1.7836-15.668-16.494-3.8681-17.05zm-23.209 3.2574c2.5871-1.067 5.4789 2.1888 1.7305 2.5448-5.2064-0.43501-10.989-1.9332-2.6975-2.4939 0.32297 3e-3 0.64395-0.0575 0.96704-0.0509zm-44.891 3.5118c2.1656 1.4977 4.2058 5.8245 0.50897 3.5118-0.59718-0.94565-0.73086-2.7002-0.50897-3.5118zm586.48 0.86524c1.611-0.14351-2.1686 2.141 0 0zm-241.71 2.2903c1.8918 0.26365 2.0046 5.8393 0.81434 7.4309-3.4722-2.4169-10.399-2.0194-3.7663-5.904 0.89599-0.71855 1.8272-1.3295 2.952-1.5269zm57.411 3.0029c0.25463 2.0866-2.9195 1.1903 0 0zm-349.05 0c3.057 1.108-8.9484 1.7609-3.1556 0.71255 1.0079-0.4461 2.0862-0.53221 3.1556-0.71255zm-6.2094 1.7305c-3.8661 0.71105-1.1342 7.851-6.4129 5.4459-3.0696-3.0003 5.1312-4.6238 6.4129-5.4459zm411.6 1.1197c-0.40253 0.18887-0.40253-0.18888 0 0zm97.161-0.0509c11.497-0.83856 18.328 11.577 23.056 20.155 0.33901 4.0257-3.0132 7.8527-4.0717 11.859-5.6416 14.379-26.583 17.946-36.544 6.3112-13.492-11.325-4.9777-39.956 14.2-38.172 1.1176-0.0824 2.2386-0.13531 3.3592-0.15269zm-296.78 0.86524c-0.11842 0.52927-0.11842-0.52928 0 0zm457.56 4.2753c0.57641 3.3747-2.4262-0.28521 0 0zm-265.98 0.1018c5.8467 1.3728-4.0017 10.775-4.3262 3.0538-0.29191-2.3916 2.4828-2.99 4.3262-3.0538zm-204.91 3.41c2.5945-0.38332 5.3977 3.221 1.2215 2.7993-4.7376 1.396-5.1112-2.1866-1.2215-2.7993zm497.82 1.7814c0.76864 0.52515-0.76414 0.54121 0 0zm-60.872 0.96703c3.5378 1.464-3.268 5.1288-1.5269 0.50896 0.37069-0.43678 1.0018-0.42707 1.5269-0.50896zm-554.62 2.6466c0.0784 2.4312-1.0707-1.3142 0 0zm127.6 1.0179c3.3772 0.81641 3.1297 4.6832 0.45806 2.0358-0.23625-0.19704-1.5542-3.4106-0.45806-2.0358zm-373.78 1.2215c7.4877 1.6815 2.7398 14.502-4.2244 8.9578-2.3804-3.4552-0.28275-8.8103 4.2244-8.9578zm322.73 1.6287c3.1197 2.7893-3.381 4.8526-1.985 0.96703 0.37535-0.64455 1.2724-0.94989 1.985-0.96703zm-177.68 3.2065c1.8801 0.73453 5.7936 7.4222 1.985 3.7154-0.5373-0.65227-3.0441-4.3332-1.985-3.7154zm-29.011 0.91613c2.3564 0.33499 5.0692 4.0166 1.3233 1.6287-0.11276-0.11915-2.7835-2.3299-1.3233-1.6287zm515.17 0.76345c1.4241 0.12865-1.4032 0.12992 0 0zm-398.98 4.1226c-0.11842 0.52928-0.11842-0.52927 0 0zm120.47-0.0509c2e-3 0.37904-0.13781-0.11696 0 0zm10.586 2.443c2.5261 1.4512-1.1052 5.5263-0.81434 1.2724 0.10753-0.46668 0.28295-1.1256 0.81434-1.2724zm-138.44 2.6466c5.6871 0.57074 1.0327 1.2802 0 0zm494.92 0.61076c4.2973 0.0439 5.0312 6.3788 0.45807 6.2602-3.1216-0.36586-2.6722-4.8825-0.45807-6.2602zm-615.64 2.5448c8.1466-1.1437 13.766 10.803 9.2631 16.389-4.2316 4.4048 5.4552 3.2963 6.3112 7.0746 5.9763 4.1771 5.46 13.535-1.1197 16.236-7.4929-1.7083-11.687-8.9177-12.826-15.931-5.0229-3.6145-10.331-8.1267-10.637-15.065-0.39246-5.0422 4.2828-8.6396 9.0087-8.7033zm234.53 1.0688c5.5558-0.49551 7.6857 3.7595 8.5506 8.6015-5.2177-0.36031-11.645-1.9607-9.0087-8.7033zm268.12 1.2724c5.1624 1.2582-4.1872 2.5176-0.71254 0.10179 0.23213-0.0511 0.47404-0.0963 0.71254-0.10179zm93.802 4.886c2.6974 2.0178-4.7571 2.1761-0.15268 0.0509 0.19793 0.13007 0.0226-0.1131 0.15268-0.0509zm87.745 2.2903c2.2971 1.374-0.57128 1.164 0 0zm-613.3 1.0688c8.1452-1.0754 9.6696 13.234 1.0688 10.841-5.7729-1.5857-8.6912-9.7167-1.0688-10.841zm647.96 0.1018c2.5934 5.8877-7.3395 2.3372 0 0zm-694.38 1.4251c3.2898 0.55684-2.6506 1.9482 0 0zm714.79 1.7305c6.9335 0.15155 3.6516 10.075-1.7814 7.2273-4.6606-1.8378-2.1425-6.7259 1.7814-7.2273zm-140.52 0.40717c8.2871 0.70084 2.2272 11.092-3.0538 7.0746-0.56584-2.4656-0.41229-7.0956 3.0538-7.0746zm-34.151 2.0359c3.1632 1.6482-3.335 6.6158-1.2724 1.5269 0.2798-0.63066 0.60965-1.294 1.2724-1.5269zm-311.49 1.7814c0.91652 2.2883 2.207 8.0796-0.81435 4.0717-0.45453-1.3035 0.35612-3.6321 0.81435-4.0717zm231.68 1.4251c-0.11843 0.52927-0.11843-0.52927 0 0zm-456.44 0c4.3732 0.91793-5.6142 4.1798-1.8323 0.50896 0.55302-0.32912 1.1695-0.49655 1.8323-0.50896zm-123.93 1.0179c2.473 1.6108-5.2447 1.9802-0.91614 0.20358 0.33026 0.12494 0.60052-0.22262 0.91614-0.20358zm13.793 0c4.0415-0.13834-0.62646 2.5262-0.15268 0.0509l0.10179-0.0509zm859.69 0.35627c-0.29264 2.4167-2.4931 0.26909 0 0zm-688.02 0.66166c1.3498 0.54632-1.533 0.65899 0 0zm456.03 4.886c1.3498 0.54632-1.533 0.659 0 0zm-75.836 1.1706c2e-3 0.37905-0.1378-0.11695 0 0zm-282.88 1.2724c4.9626-0.48432 5.3516 7.3921 0.40717 6.9728-2.8654-1.9338-6.9501-6.9006-0.40717-6.9728zm477.66 1.2215c-0.40253 0.18888-0.40253-0.18888 0 0zm-27.077 0.20358c0.57641 3.3747-2.4262-0.28521 0 0zm-516.29 0.35628c7.5857 0.88343 15.239 8.3773 16.032 15.778-3.1975 2.9856-6.6778 8.171-1.6287 11.503 5.4713 5.063 16.444 8.591 19.544 13.997-11.187-4.7495-19.016-16.197-32.014-16.796-8.705-2.0973-17.927-14.413-8.3979-21.58 1.759-1.5917 3.9853-2.7961 6.4638-2.9011zm-89.425 3.3592c7.6612-0.84552 14.432 8.3963 11.35 15.167-6.4234 10.358-24.953-4.845-15.167-13.131 1.0221-1.0518 2.3129-1.9442 3.8172-2.0358zm448.5 5.0387c2.9014 1.766-0.97049 5.4044-2.0359 0.91613 0.61141-0.46678 1.249-0.85352 2.0359-0.91613zm-562.51 2.9011c10.229-0.77999 16.186 12.837 8.3979 19.697-6.7224 3.6312-15.134-2.8626-16.032-9.4667 1.7288-4.2046 1.3849-10.473 7.6345-10.23zm160.43 4.3771c1.301 1.3305-2.984 1.6719 0 0zm494.25 2.4939c-0.11842 0.52928-0.11842-0.52927 0 0zm-22.852 1.3742c-0.29264 2.4167-2.4931 0.26909 0 0zm-585.51 0.0509c0.76864 0.52515-0.76415 0.54121 0 0zm543.98 2.5957c3.3206 1.8452-3.1203 2.468 0 0zm260.74 0.0509c-0.40253 0.18888-0.40253-0.18888 0 0zm-580.98 0.35628c4.1417 1.1035-3.2073 1.9536 0 0zm-127.8 0.40717c4.8545 0.44888 0.26252 1.7586 0 0zm159.25 2.1376c1.3632 3.7143 9.1982 3.805 8.9069 7.5836-2.6174 3.5131-7.8862 11.405-11.146 3.6645-4.9496-4.6414-2.7567-8.0146 2.2394-11.248zm445.95 1.9341c6.2458-0.65669-0.64504 8.7281-2.1886 2.6975-1.5304-2.1287 0.36699-2.4839 2.1886-2.6975zm90.748 0.0509c4.2129-1.206 3.4983 4.2108 0.61076 4.0717-1.3257-1.1805-4.7306-4.1884-0.61076-4.0717zm-720.74 1.6287c3.2697 0.3286 2.1942 4.5018-0.66165 1.0688-0.98829-0.68186-0.0791-0.94766 0.66165-1.0688zm710.62 3.2065c3.3206 1.8452-3.1203 2.468 0 0zm-109.78 0.50896c4.5552 2.721-4.106 6.711-2.1885 1.4251 0.50751-0.76357 1.2522-1.3378 2.1885-1.4251zm-16.643 1.5269c4.1417 1.1035-3.2073 1.9536 0 0zm-454.71 0.50896c3.9913 1.526 2.3669 8.5078 6.7692 10.688-3.0584 3.0686-10.756 1.1152-9.5176-4.9878 0.14093-2.1003 0.24374-5.2529 2.7484-5.7004zm34.253 1.985c5.8776 0.73481 12.436 7.6982 5.5477 12.266-2.7259 3.2525-3.872 2.5183-5.2932-0.96703-2.2979-2.5286-6.0405-4.8819-1.476-7.4818 0.77292-1.1119 1.0959-2.668 1.2215-3.8172zm530.59 0.35627c3.3206 1.8452-3.1203 2.468 0 0zm-853.58 1.6287c3.2898 0.55684-2.6507 1.9482 0 0zm714.08 0.20358c5.0774-0.67953 3.7374 7.8426 1.5778 9.3649-4.7787-1.3691-9.9452-8.6693-1.5778-9.3649zm-453.59 3.0538c4.1739 1.1197 1.4708 7.6166-1.7814 3.919-0.64525-1.452 0.17963-3.6511 1.7814-3.919zm385.44 0.81435c5.3812 3.6079-5.369 3.4481 0 0zm23.005 1.6796c4.0507-1.1201 8.1982 2.9599 2.2903 4.1735-4.4147 0.38916-12.183 5.6562-15.014 1.0688 2.764-3.9491 8.0135-5.044 12.724-5.2423zm30.741 0.76344c1.7169-0.4079 7.394 0.85099 2.5957 1.2724-1.4035 0.68639-10.88-0.10554-5.395-1.1197 0.92941-0.0948 1.8654-0.14049 2.7993-0.15269zm-572.13 1.8323c7.6052-0.29876 6.2153 10.456 12.266 13.182 1.971 4.0332-1.949 10.413 3.6136 13.182 1.4717 2.3699-5.844 2.1237-5.395 5.9549 1.325 5.3431-7.5489 2.4529-5.5986 8.2961 2.0008 1.99-8.0241 12.011-11.504 8.891-12.57-7.7516-21.147-21.666-24.225-36.222 7.2738-8.9348 19.955-11.785 30.843-13.284zm600.17 5.0387c5.9904 0.51048 1.1924 11.652-3.2574 6.362-2.8379-2.8082 0.30546-5.7421 3.2574-6.362zm36.9 1.6796c4.1417 1.1036-3.2073 1.9536 0 0zm-447.27 0.69c5.0837 1.3457 8.5419 11.061 3.4101 12.215-1.942-2.1442-6.0067-2.3268-5.395-6.5656-0.1687-1.9324 0.18691-4.5731 1.985-5.6495zm-275.04 4.8352c1.3172 9.0247 5.4704 21.212 5.5986 28.4-5.3308-8.8995-4.2982-19.718-5.8531-29.774zm206.94-1.0688c6.8162-1.1864 10.771 10.965 2.7484 11.299-5.2081-0.68232-10.309-10.105-2.7484-11.299zm-187.2 6.5147c3.3206 1.8452-3.1203 2.468 0 0zm259.22 3.919c2.9117 0.16824 5.0307 1.9186 2.7484 4.7334-3.9593 4.2304-4.4266-5.6822-2.7484-4.7334zm321.61-0.30538c4.1967 1.9095-1.4498 4.7805-1.3742 1.0688 0.24038-0.56141 0.79079-0.9478 1.3742-1.0688zm-8.4997 4.428c-1.3719 3.596 3.3492 11.923-3.7663 9.9757-7.6466 2.0559-4.043-9.9144 1.3742-9.823 0.51117 0.0883 2.7214-1.1995 2.3921-0.15269zm37.562 0.50896c2.8707 3.2614 0.17515 3.8008-1.1197 0.81434 0.30412-0.26927 0.74696-1.0966 1.1197-0.81434zm-610.2 1.476c3.6138-0.26888 3.2865 5.1922-0.0509 2.1376-0.96811-0.966-2.3504-2.1273 0.0509-2.1376zm589.07 1.3742c5.1624 1.2582-4.1872 2.5176-0.71254 0.10179 0.23213-0.0511 0.47404-0.0963 0.71254-0.10179zm-385.39 3.8172c2.0265 2.2623 0.59821 3.4853 0 0zm445.19 6.1076c6.2346 0.33361 3.6636 13.254-2.3921 8.6015-5.3918-2.5711-1.4259-7.4038 2.3921-8.6015zm-486.37 0.45807c6.0334 0.17212 13.773 1.0995 14.862 8.1434 1.9561 5.1922 9.8087 9.7757 7.9398 15.523-7.9306 3.4837-18.78 5.1238-26.772 1.2215-6.6206-5.7852-8.1101-16.165-1.1197-22.344 1.3216-1.636 2.9729-2.6347 5.0896-2.5448zm-227.35 6.2602c5.18 0.5784 0.25942 9.4801-2.7993 4.3771-2.5143-1.6616 1.0993-4.1388 2.7993-4.3771zm698.86 1.3233c-0.40253 0.18888-0.40253-0.18888 0 0zm-359.16 5.29c3.1419 1.2726 0.8405 4.4446-1.5778 1.1197 0.37659-0.65662 0.90264-0.92545 1.5778-1.1197zm382.84 3.1556c4.1967 1.9094-1.4498 4.7805-1.3742 1.0688 0.24037-0.56141 0.79079-0.94779 1.3742-1.0688zm-13.182 2.1376c-0.11842 0.52927-0.11842-0.52928 0 0zm-535.28 2.3921c5.2212-0.7819 4.5367 7.296-0.1018 4.2753-0.7268-1.201-0.81903-3.2149 0.1018-4.2753zm-180.78 4.0208c2.4689 1.3392-1.5333 3.0508 0 0zm160.17 3.1556c7.3624 1.7723 20.334 2.9015 21.835 12.164-1.3789 8.1089-12.921 10.792-19.442 8.9578-3.9241-5.1612-17.038-5.2008-14.556-13.742 4.7099-1.0607 7.4582-6.6212 12.164-7.38zm143.58 1.3742c4.1417 1.1035-3.2073 1.9536 0 0zm-247.56 1.6287c4.1417 1.1036-3.2073 1.9536 0 0zm15.88 4.4789c2.0419 3.4017-4.8809 3.4736-1.2724 0.30538 0.41092-0.18481 0.81805-0.31077 1.2724-0.30538zm230.15 0.35628c3.0753 0.88613-3.4988 3.465-0.45807 0.25448 0.10785-0.15243 0.31018-0.19851 0.45807-0.25448zm385.54 4.6825c5.3552 1.5391 3.9312 11.769-2.1376 9.0596-6.3912-1.9078-3.6782-8.8785 2.1376-9.0596zm-461.07 6.4638c5.1645 0.21564-2.4756 8.5157-3.2574 2.1376 0.65489-1.1293 1.9366-2.0112 3.2574-2.1376zm-97.823 1.5269c3.3206 1.8452-3.1203 2.468 0 0zm77.566 0.20359c3.695-0.19144 3.2722 6.5267-1.3233 4.7843-4.2513 0.84511-1.1997-5.1657 1.3233-4.7843zm-65.758 3.9699c3.5884 0.99849-3.7329 2.5858 0 0zm-33.134 4.5807c0.6711 2.9082-2.035 2.8371 0 0zm627.65 1.1706c7.2261 2.8207 11.427 10.15 8.6015 17.814-0.9348 5.7134-8.7634-0.47121-11.503-1.6796-4.0086-2.3523-9.8199-7.6347-3.1047-10.994 1.8599-1.8539 3.6895-4.0725 6.0058-5.1405zm-464.63 1.476c3.3206 1.8452-3.1203 2.468 0 0zm441.32 3.4101c6.805-0.8248 11.177 8.7637 4.3262 12.113-7.583 7.1224-16.111-10.212-5.7513-11.91 0.46839-0.0771 0.94411-0.21358 1.4251-0.20358zm-29.011 0.45807c5.6035 1.2096 17.236 1.8332 14.76 10.485-1.6706 4.2591 6.414 6.858 2.7993 10.179-6.3342 0.31506-7.4166-8.4777-11.961-11.452 0.96596-5.238-10.064-4.9526-5.5986-9.2122zm-417.2 3.461c5.9579 1.1364-5.8496 1.0712 0 0zm-178.04 0.96703c4.658 0.28007 0.58585 3.1456 0 0zm58.124 5.1405c4.1417 1.1036-3.2073 1.9536 0 0zm634.02 4.5807c6.9965 3.7602 16.174 3.5004 21.427 10.23 2.4448 1.8091 7.8911-1.5814 8.7033 1.8323-4.1572 1.5278-10.137 0.97586-11.197 6.7692-3.8683 8.0954-13.476 12.517-21.631 13.335-3.7036-3.3801-12.621-0.67744-14.404-5.395 0.55377-4.1759-4.8165-6.3271-1.3742-10.586 2.8026-7.0365 8.5136-13.294 16.236-14.505 0.77564-0.43022 1.55-1.5657 2.2394-1.6796zm-120.17 2.7484c12.207-0.17135 18.522 15.624 12.012 25.092-0.74662 4.9713-6.5686 4.5658-8.2961 7.838-9.1768-2.7182-20.646-8.1756-21.173-18.883 2.9628-5.2168 3.4837-14.203 11.655-13.844 1.9326-0.11105 3.8666-0.18017 5.8022-0.20359zm58.225 3.6645c4.8534 2.1563-4.9645 8.0239-2.6975 0.81434 0.46988-0.79921 1.8116-0.69461 2.6975-0.81434zm-660.38 3.6136c-2.9374 2.2987-2.502 0.34571 0 0zm885.14 0.30538c7.199 0.33103 4.5197 14.523-2.5448 10.027-4.3272-2.872-3.011-9.7217 2.5448-10.027zm-713.57 0.15269c2e-3 0.37905-0.1378-0.11695 0 0zm457.35 0.86524c-1.5091 1.5905-5.6177 1.6049 0 0zm-645.52 0.55986c-1.203 2.1667-8.7194 3.8743-3.2574 1.0179 0.65799-0.24101 3.2955-1.6219 3.2574-1.0179zm863 1.7814c3.1559 2.9207-5.8087 2.958-0.50896 0.15269 0.19401 0.0249 0.35484-0.10593 0.50896-0.15269zm-69.117 1.2724c6.8939-1.717 9.1993 7.63 3.7154 10.485-5.0451 5.9499-14.077-4.7799-7.6854-9.2122 1.095-0.91739 2.5685-1.2604 3.9699-1.2724zm-707.56 7.7362c4.1906 0.0496 7.274 7.0964 1.1706 7.0237-3.4778 1.8265-9.6388-0.81079-5.7513-4.7843 1.1611-1.3879 2.7524-2.2491 4.5807-2.2394zm737.44 0.10179c5.3903 1.8457 15.125 9.5063 8.2452 15.116-5.1796 6.1703-12.499-0.0856-16.541-4.2244-4.184 0.57133-11.018-1.056-11.503-5.5986 2.0646-5.279 7.504-6.5279 12.062-3.3592 3.2095 1.1492 5.3615-0.46406 7.7362-1.9341zm-177.22 4.7843c5.4727 0.41136 3.4807 9.1772-1.2724 5.9549-1.6213-1.5443-1.2234-5.6263 1.2724-5.9549zm211.98 0.30538c5.216 0.29453 5.9561 10.496 2.7484 12.571-4.5678-1.0746-7.6564-10.837-2.7484-12.571zm-258.3 0.50897c2e-3 0.37904-0.13781-0.11696 0 0zm166.63 1.4251c4.6584-0.0973 1.7279 5.636-1.3742 3.7663-0.86757-1.4452-0.88031-3.8212 1.3742-3.7663zm-689.9 2.7484c4.2128 0.50917-1.6531 7.0649-2.1376 1.8832-0.86232-1.4169 1.0756-2.0678 2.1376-1.8832zm562.61 4.3262c3.6757 0.49261 3.896 7.4946 3.1556 9.7721-4.8051 2.1367-13.872-5.3926-6.9728-8.6015 1.1206-0.72477 2.5023-1.0043 3.8172-1.1706zm-420.96 0.55986c5.3076 0.34759 4.2024 8.0803-1.2215 4.1735-2.5648-1.3098-1.2115-4.2433 1.2215-4.1735zm-100.21 0.15269c4.0415-0.13834-0.62646 2.5262-0.15269 0.0509l0.10179-0.0509zm107.7 11.35c2.5082-0.58126 5.5737 2.4471 1.3742 2.8502-2.1962 1.2025-2.4278-2.0712-1.3742-2.8502zm29.316 0.45807c10.666 3.9417 20.046 17.642 13.182 28.756-2.385 7.4266-12.689 5.4061-18.221 3.2574-8.3762-5.0751-14.095-15.714-8.2452-24.787 2.5837-4.4493 7.927-6.7383 13.284-7.2273zm554.11 0.96703c3.3206 1.8452-3.1203 2.468 0 0zm-203.53 1.6287c8.8685-0.35671 11.692 15.594 21.122 9.4667 4.3338-5.8008 11.523-0.17502 15.014 4.1226 3.3583 5.2256-0.39958 12.038-1.1706 17.05-3.1247 2.3797-6.3202-5.3673-10.485-4.3262-5.3772 1.337-6.512-6.4729-11.808-4.1226-8.74-0.6157-22.301-6.8656-19.442-17.457 1.2991-2.54 3.8578-4.4863 6.7692-4.7334zm162.56 0.25449c5.8848-1.4001 3.8811 9.5031-1.2724 5.4459-1.3992-1.5613-1.1446-5.2764 1.2724-5.4459zm-697.43 1.7305c4.1967 1.9095-1.4498 4.7805-1.3742 1.0688 0.24038-0.56141 0.7908-0.9478 1.3742-1.0688zm139.3 3.1556c6.1968 2.6126 13.193 13.476 4.4789 17.61-8.456 5.9961-17.344-12.327-7.6854-16.338 1.0318-0.46353 2.059-1.3382 3.2065-1.2724zm-60.668 0c5.8093 2.7105-3.3963 4.0839 0 0zm153.86 8.2961c5.1067 1.582-3.6132 5.4538 0 0zm285.22 2.8502c4.2959 0.69555-1.7544 3.0634-1.3742 0.15269 0.46191 3e-3 0.90971-0.18286 1.3742-0.15269zm266.34 8.347c-0.68545 2.0986-0.88802 0.2843 0 0zm-203.53 4.3262c1.3498 0.54633-1.533 0.659 0 0zm-411.04 0.50897c4.658 0.28006 0.58585 3.1456 0 0zm81.689 1.3742c-0.13241 1.8606-0.46375 0.93506 0 0zm-18.832 1.9341c5.0449 1.1858 8.2089 7.3867 14.404 6.4129 4.6576 0.93104 11.849-1.1268 14.505-2.5448-4.7849 8.7678-17.654 0.71749-24.43 7.3291-4.1943 5.6832-13.83 2.2357-15.269-3.461 2.0199-3.9208 6.8261-6.3818 10.79-7.7362zm-174.07 3.0538c8.094-0.9004 10.946 10.569 3.8172 13.946-6.7557 7.1217-17.075-6.6083-9.1613-12.012 1.5304-1.2815 3.3702-1.8548 5.3441-1.9341zm227.56 3.2574c2.0419 3.4017-4.8809 3.4736-1.2724 0.30538 0.41092-0.18481 0.81806-0.31077 1.2724-0.30538zm306.09 4.1226c3.1397-0.43405 8.9878 4.2906 3.0029 4.1226-2.8942 2.3471-7.3252 5.1467-8.4488-0.50896 0.15337-2.4185 3.2836-3.5701 5.4459-3.6136zm-316.42 1.5778c5.2604-1.0978 5.3398 5.1497 1.2215 6.7183-4.1086 2.3876-7.8316-7.3345-1.2215-6.7183zm260.89 2.9011c5.4527 1.0214-0.28797 12.74-3.5628 4.8352-0.97863-2.015 1.7015-4.6236 3.5628-4.8352zm-284.05 1.1706c7.2153 2.7829 6.4268 11.896 2.2903 17.101-3.4914 7.9758-17.708 7.9701-21.478 0.86524 1.9529-6.0983 2.3569-16.323 11.35-15.167 2.8178-0.38338 5.1661-2.1275 7.838-2.7993zm215.8 0c5.0608 0.38595 5.9494-0.78673 1.8323 1.1197 0.25529 1.0176-4.885-2.046-1.8323-1.1197zm79.551 0c3.8291 3.315-3.5878 4.2479-0.91613 0.20359 0.2967-0.0899 0.60867-0.188 0.91613-0.20359zm16.694 2.952c5.9649 1.0899 8.3823 6.4756 10.586 11.197 4.2569 1.9445-3.697 3.826-1.9341 7.4818-1.4693 3.1015-9.1003 3.7464-3.9699 8.1434 7.8431 4.4813 9.53 11.591 7.6884 20.25-0.13156 9.3452 0.43002 23.364-11.455 25.251-3.59 0.52115-3.3416 5.0473-5.0896 6.3112-4.9045 3.7612-6.7583-5.5684-8.347-9.1613-0.83093-2.7295-2.0237-2.9696 0.61075-4.9878 1.7602-3.9521-0.94975-7.9439 1.9341-11.401 1.3636-8.1639-1.1529-18.223 7.0861-23.527 6.6895-5.9346-6.8506-8.7073-6.7808-15.663-1.8366-6.4774 3.0111-13.464 9.6703-13.895zm-51.304 5.2423c3.6181-0.28562 3.6787 5.6735 0.35627 2.1376-0.26611-0.57245-0.73501-1.6695-0.35627-2.1376zm77.922 2.443c-1.0581 1.0645-1.5936 0.33398 0 0zm28.4 1.5269c2.2864 1.5188-1.8855 3.0586 0 0zm-122.46 4.937c3.2338 4.1418 1.4647 12.489-0.76345 17.305-1.5492 1.9793-6.4822 0.76506-7.4309 0.1018 1.0844-5.6521 2.8447-14.488 8.1943-17.407zm-41.939 2.443c3.0054 0.76301-3.453 6.6233-0.91613 2.0359 0.10498-0.75705-0.17316-1.9969 0.91613-2.0359zm16.287 0c3.3206 1.8452-3.1203 2.468 0 0zm56.546 1.6287c2.6675 1.5853-1.4699 9.808 3.3592 11.808 2.8336 3.0374 0.50725 7.9712-3.4101 5.2932-4.084-1.9269-10.79-6.6917-9.5632-10.543 2.7601-2.655 5.762-5.6861 9.6141-6.5584zm7.6854 0c4.9126 0.36148-3.7517 5.9834-1.2215 0.35627 0.34498-0.24671 0.79821-0.34087 1.2215-0.35627zm-72.935 0.0509c3.6181-0.28562 3.6787 5.6735 0.35628 2.1376-0.26611-0.57245-0.73501-1.6695-0.35628-2.1376zm-158.24 0.55986c-0.29264 2.4167-2.4931 0.26909 0 0zm16.796 2.8502c4.5798 0.0731-0.94888 5.4348-0.55986 1.3742 0.16405-0.37821-0.13067-1.476 0.55986-1.3742zm-138.64 1.5778c4.658 0.28007 0.58585 3.1456 0 0zm-210.24 0.08c3.2677 2.5397-4.456 2.4171 0 0zm657.22 1.5269c10.825-0.88574 8.5316 18.128-1.8832 16.032-11.744 0.0205-7.1628-16.534 1.8832-16.032zm-165.82 1.5778c1.3391 3.032-3.1006 3.9513-1.8832 0.61076 0.50269-0.36537 1.1873-0.54586 1.8832-0.61076zm-169.48 2.3412c3.1927 3.0373 3.6463 7.1162-0.50897 9.4667-1.7817 5.0519-4.8968 8.8664-10.688 9.7721-10.018 4.6807-11.521 18.055-20.409 24.43-2.367 3.2727-7.9087 6.7944-9.4667 0.86524-0.0397-3.0885-0.0773-6.9411-4.7843-6.1585-6.38 0.31124 0.82197-6.7503 2.3921-2.0868 1.3062 6.4063 7.4049-0.79788 9.2122-3.3592 3.7434-3.717 13.454-6.2894 10.332-13.131 1.0803-0.0836 5.8173-4.0644 4.6316-7.7871-0.54877-3.1084-5.4463-2.6757-0.81434-5.8022 4.6052-5.6172 11.733-7.3569 18.577-8.4488l0.9175 1.3457zm367.62-1.7814c2.2971 1.374-0.57128 1.164 0 0zm-664.35 0.61076c2.1215 2.904-2.4602 2.7527 0 0zm706.85 0.71255c2.0426 2e-3 9.4345 1.5662 7.838 3.0029-1.5435 0.57747-10.099-1.8294-7.838-3.0029zm-255.7 0.91613c1.3498 0.54633-1.533 0.659 0 0zm-137.47 0.50896c4.4055 1.207 0.47763 7.4102-1.3742 3.5118 0.12614-1.1077 0.27183-3.1342 1.3742-3.5118zm396.53 6.6165c4.8634-0.40674 9.4018 7.1447 6.8201 10.485-4.9118 2.3888-15.939-1.2542-11.452-7.6854 0.96091-1.467 2.7195-2.6639 4.6316-2.7993zm-265.53 1.4251c-0.40253 0.18888-0.40253-0.18888 0 0zm-38.121 0.76345c3.5812 1.4776-2.0251 5.4468-1.7814 1.4251 0.24662-0.76223 0.98679-1.341 1.7814-1.4251zm51.711 2.443c5.0044 1.1156 6.5526 8.7472 10.281 10.179-1.485 5.4175 3.9908 3.0234 6.5656 1.9341 4.2005 2.0946 1.9291 11.539 7.5327 11.095-3.9933 2.1691-2.5884 7.3244-0.25449 8.2961-3.3982 2.4767-3.753 7.5855-8.6015 8.2961-4.4851 3.0491-3.1184 11.08-4.5807 13.946-3.8166-2.8741-14.152-9.9482-16.541-2.2903 1.1936 3.806 7.4788 4.9255 5.6495 10.281-0.86258 5.226-5.8388-3.4637-8.9578-1.5778-3.6061-1.1623-13.263 0.28898-13.131-4.886 4.9612 0.70471 10.899-0.93524 9.0087-7.38-1.183-6.8131-9.3112-11.364-5.8022-19.137 0.71739-7.7866 8.7732-9.0482 13.844-4.7334 7.597-1.8569 9.7293-13.1 8.0925-19.697-0.7005-1.2635-7.6526-3.3375-3.1047-4.3262zm-35.017 0.0509c3.2593 1.1137 5.9909 9.0807 0.91613 8.3979-2.3382-1.7535-2.9498-6.3501-0.91613-8.3979zm77.261 0.35627c5.1067 1.582-3.6132 5.4538 0 0zm28.146 2.9011c4.6949 1.2868 8.1789 6.3856 13.691 6.7692 7.6381-0.27128 1.6946 10.827 7.3291 14.455-5.1557-0.80374-3.4488 6.0298-3.919 7.7871-1.7848-2.732-8.6593-6.078-7.38-0.0509-1.6347-3.0653-6.9631 0.0212-7.7362-4.8861-2.6613-2.9683-5.7878 1.707-6.871-2.3412-6.0444 0.73525-3.8769 10.442-10.536 11.452-3.9397 0.80936-6.3901 9.862-9.6194 4.8861-6.0058 0.54546-10.275-7.8408-7.5836-12.571 4.0428-1.5899 13.876-0.75994 10.383-7.8889-5.0804-4.1333 4.1479-9.336 8.1943-8.7542 6.745 2.483 4.7243-7.2547 10.586-7.9907 1.0752-0.51102 2.2685-0.78454 3.461-0.86523zm-281.15 0.20358c4.6227-1.3009 7.7688 4.5878 3.1047 6.7692-5.2952 0.51962-5.8341 10.486-11.146 8.4488-3.7236-2.9092-0.44889-5.114 3.2574-4.2244 6.3699-0.87591-0.92823-10.347 4.7843-10.994zm226.49 1.4251c2.4922 1.1452-3.045 0.42457 0 0zm219.41 2.5448c6.4207-1.3374 11.313 8.6394 3.5627 10.434-4.1854 1.278-10.683-2.8764-9.9248-7.1255 1.7473-1.6975 3.8117-3.2819 6.362-3.3083zm-383.5 2.3412c2.2063 4.2993-7.0052 7.1566-4.0208 1.7305 1.0361-1.0848 2.5193-1.7319 4.0208-1.7305zm437.71 0.91614c2.2263 1.933-5.3132 3.6683-1.0179 0.50896 0.31575-0.18928 0.62655-0.48341 1.0179-0.50896zm-604.24 0.71255c-0.40253 0.18888-0.40253-0.18888 0 0zm566.27 0.45807c1.2592 1.3113-0.52738-0.0818 0 0zm-318.71 2.7993c-0.40253 0.18887-0.40253-0.18888 0 0zm-191.47 1.5778c3.675 1.494-4.6372 1.4071-0.20358 0zm455.88 0.35628c5.5816 1.3348-5.5174 7.5602-1.2724 1.8323 0.43202-0.59222 0.57615-1.6008 1.2724-1.8323zm79.398 0.10179c3.7983 0.44291 4.4022 5.8885-0.30537 4.2753-1.33-0.91855-1.2086-3.4725 0.30537-4.2753zm-134.32 0.0509c6.9316 0.39336 3.851 10.506-1.7814 7.38 0.0142-2.1347-0.374-6.3801 1.7814-7.38zm-460.36 1.1197c1.301 1.3304-2.984 1.6719 0 0zm250 2.1885c3.6752 3.0522-5.4859 2.2614-1.476 0.30538 0.45895-0.13624 0.95989-0.41287 1.476-0.30538zm281.66 1.2215c6.9655-0.98646 9.2651 13.037 1.6287 10.637-4.3264-1.819-8.8994-8.1786-2.443-10.485 0.28746 0.061 0.53359-0.18352 0.81434-0.15269zm-240.79 4.9878c4.0415-0.13834-0.62646 2.5262-0.15269 0.0509l0.10179-0.0509zm-133.04 1.3742c3.7835 2.381-2.5101 1.5776 0 0zm406.25 0.45807c4.5337 0.0266 9.0501 11.05 1.8323 9.2631-4.6923-0.63905-11.14-7.4085-1.8323-9.2631zm-283.95 0.81434c1.3498 0.54633-1.533 0.659 0 0zm-25.703 2.2394c1.7241 1.9543-1.1209 6.4008-2.5957 2.0359-1.9268-2.8689 0.99537-1.1358 2.5957-2.0359zm32.268 1.3742c3.1197 2.7893-3.381 4.8526-1.985 0.96703 0.37534-0.64455 1.2723-0.94989 1.985-0.96703zm111.87 0.30538c0.63797 3.3684 7.8075 7.5201 4.6825 10.536-4.2538 0.1251-7.5198-5.2372-4.3771-8.6015 0.0561-0.63116-0.19207-1.5576-0.30538-1.9341zm59.854 0.45807c2.3296 1.9795-1.7948 8.9013-2.2394 4.3262 0.46218-1.4205 1.2592-3.556 2.2394-4.3262zm-111.31 3.3083c3.7188 2.1808 3.4348 11.798-2.1885 7.7362-7.2619-1.792-0.93275-5.6139 2.1885-7.7362zm129.73 1.3742c4.249 0.14586 9.1326 6.2283 7.5327 10.077-4.2698 3.1107-6.8793 8.7291-6.2094 13.386-3.5042 1.1848 2.2333-3.6615-1.6287-5.2932-4.3781-3.3775-10.823-6.2535-7.6854-13.029 0.85941-3.3508 4.9226-4.7015 7.9907-5.1405zm115.08 0.25448c5.3812 3.6079-5.369 3.4481 0 0zm-40.055 2.443c5.5838 0.0649 4.3004 7.5159-1.3233 4.5807-1.4505-1.2123-1.7839-5.4207 1.3233-4.5807zm-409.26 2.2394c4.333 2.4406-5.8021 3.9139-1.6287 0.61076 0.48496-0.33458 1.0524-0.5394 1.6287-0.61076zm297.18 2.6975c-0.40253 0.18888-0.40253-0.18888 0 0zm96.041-0.0509c5.041-0.28954 0.62272 6.1058-2.4939 2.4939-3.4047-1.451 0.98695-2.534 2.4939-2.4939zm-37.714 3.2574c4.6215 0.44444 5.3975 7.9976-0.50896 6.5656-6.101 0.54816-5.0687-4.5744 0.50896-6.5656zm-129.12 0.35628c3.1795 0.75121-0.92104 7.7014-0.91614 2.2394 0.0725-0.79907 0.21963-1.7911 0.91614-2.2394zm87.033 0.91613c1.3498 0.54633-1.533 0.659 0 0zm-342.74 0.81435c3.5342 3.693-1.3569 3.9573 0 0zm17.152 1.1706c5.1392 1.1843-2.3777 10.693-1.8323 3.1047-0.0609-1.2372 0.22067-3.147 1.8323-3.1047zm208.17 3.0538c2.7831 4.8134-6.706 7.0797-1.5778 11.553 3.3739 6.5163 12.59 5.4531 16.541 10.637 2.2802 4.988-4.7514 10.224 0.76345 14.251 4.175 2.2429 6.2462 7.1406 1.6796 10.179-8.3989 6.3376 1.0027 6.2208 5.2423 8.7033 2.4218 4.467 0.86962 9.1846-4.8861 6.5656-3.3185-0.33852-7.0264-7.4917-8.4997-1.2215-0.38527 1.5786 0.52033 10.999-2.0359 8.6524-0.61262-7.694-8.9186-8.7741-15.116-6.7183-3.0886 0.76546-5.0981 4.2463-6.4129-0.86524-3.6206-5.0074-3.6889-11.625 0.91613-15.625 1.2902-5.8218 1.3225-12.058 6.5147-16.083 4.117-6.0901-4.2716-12.007-9.7721-11.961 5.0239-2.187 0.37727-11.659 7.1255-12.164 3.8161 1.2795 8.4466-10.067 9.5176-5.904zm220.38-0.61075c4.5335 1.2989-0.0514 7.1358-0.45807 1.5269 0.0547-0.48247 0.12933-1.255 0.45807-1.5269zm-329.35 0.0509c3.0613 1.4956 2.3604 7.3226-1.7305 4.9878-2.6855 0.35336-2.2652 6.8027-4.937 2.2903-2.1353-3.5857-0.0931-5.8171 3.7154-5.4968 1.1471-0.29958 2.0692-1.1109 2.952-1.7814zm387.52 3.0538c0.76864 0.52515-0.76414 0.54121 0 0zm-655.65 0.96703c4.7529 0.35836 3.2843 10.359-0.50896 4.6316-1.1176-1.1567-1.8215-4.6388 0.50896-4.6316zm426.16 0.10179c4.022 0.31644 1.1301 6.9722-0.86524 2.3412-0.29939-0.87561-0.22295-2.1888 0.86524-2.3412zm-297.64 0.30538c4.9185 5.6939-4.2372 5.074 0 0zm307.11 0.66165c0.76951 1.1983 4.1549 10.237 1.4251 5.2423-0.77999-1.0506-2.144-6.2705-1.4251-5.2423zm-142.15-0.35627c4.9967-0.25023 3.8328 4.899 4.7334 7.7871 3.8911 2.4423 11.056 0.0127 11.706 6.7183 4.1612 7.9779-7.6454 2.8048-12.317 2.6975-2.3887-1.4368-9.6953-2.327-6.4638 2.2394 3.0879 2.0267 2.3253 5.5962-1.4251 4.1735-5.1239-1.7343-10.576-9.3574-3.9699-12.877 6.6707-0.0132 1.9651-10.034 7.7362-10.739zm291.08 0.66165c3.8419-0.49082 11.48 6.5632 5.1405 8.1434-6.0716 3.076-11.472-4.0023-5.8531-7.9907 0.23736-0.0429 0.46832-0.16121 0.71255-0.15269zm-55.375 0.35627c1.9265 3.6842-3.2144 4.7122 0 0zm99.757 3.1556c4.1071 1.2051-1.1006 5.7594-1.4251 1.3233 0.20397-0.69575 0.71023-1.2119 1.4251-1.3233zm-293.82 1.7305c0.72631 4.5127 8.825 5.7757 5.9549 10.994-2.9933 0.55416-9.6376-0.51847-9.9248-3.3083 4.3464-2.1252 6.1893-1.5584 3.9699-7.6854zm281.81 0.10179c3.1734 2.1889 3.8832 11.14 0.76345 12.826-4.4232-1.1466-5.4127-12.111-0.76345-12.826zm-160.99 0.10179c5.0523-0.0732 3.9021 10.582-0.66166 5.5477-2.6129-1.721-3.4452-5.2999 0.66166-5.5477zm96.245 0.20359c5.4971 2.5653 2.5395 11.536-2.2903 12.164-5.0428-2.8188-2.8039-10.965 2.2903-12.164zm-53.238 1.3742c6.0204-0.10152 7.2747 5.4234 3.919 9.6703-5.234 2.6102-10.747-7.6374-3.919-9.6703zm-432.26 0.15269c5.1067 1.582-3.6132 5.4538 0 0zm346.91 0c4.1417 1.1036-3.2073 1.9536 0 0zm-11.095 2.8502c4.237 0.67334-2.9502 5.5961-1.5778 0.45806 0.43594-0.36834 1.0299-0.41062 1.5778-0.45806zm-246.95 1.6287c7.4877 1.6815 2.7398 14.502-4.2244 8.9578-2.3804-3.4552-0.28276-8.8103 4.2244-8.9578zm279.12 6.5147c4.1474-0.24181 3.9498 7.5772-0.25448 3.9699-1.1251-0.92072-1.9362-3.9039 0.25448-3.9699zm-321 0.15269c4.5642 1.2378 0.39916 5.2728-1.8323 1.9341-0.6737-1.1675 0.85299-1.9402 1.8323-1.9341zm557.21 0.15268c4.5542 1.9901-1.4764 3.5172 0 0zm-250.26 1.3233c3.4381 0.33896-0.91635 7.5927-2.4939 2.7993-1.7473-1.9615 0.82455-3.0015 2.4939-2.7993zm62.399 0.66165c0.76864 0.52516-0.76415 0.54121 0 0zm161.14 2.9011c6.9846 2.434-6.6016 3.4996-0.15269 0zm-323.75 0.50896c6.1384 0.63353-2.9121 8.5605-2.7484 2.3921 0.0891-1.465 1.213-2.4933 2.7484-2.3921zm18.933 0.81434c4.0821 1.3154 7.508 5.2178 12.317 3.8681 5.6169 1.5797 6.2742 7.7663 1.3742 10.841-2.1212 0.9773-8.9375 3.1869-8.856 0.40718 2.4718-6.8402-7.3857-4.0583-9.2122-6.2603 0.43362-3.0008 0.66291-8.0708 4.3771-8.856zm-67.692 1.3742c4.5205 0.90826 7.3473 7.9394 3.0538 9.4667-1.2559-2.641-3.8921-7.719-3.0538-9.4667zm311.43 0.1018c9.1447-0.0361 10.643 19.038 0 15.88-7.4586-0.95837-10.677-12.02-3.0538-15.167 0.96433-0.50903 1.9437-0.66302 3.0538-0.71255zm-281.15 0.35627c4.5798 0.0731-0.94887 5.4348-0.55986 1.3742 0.16406-0.37821-0.13067-1.476 0.55986-1.3742zm165.01 1.5269c4.7609-0.0818 6.194 6.8842 11.197 5.4459 1.8551 4.2829-3.8831-1.9471-5.7513 1.2215-3.0479 4.18-12.088 2.1266-11.961-2.8502 1.4782-2.1705 3.856-3.7748 6.5147-3.8172zm49.573 0.61076c7.5175-0.46118 3.5289 14.646-1.985 8.8051-4.2377-3.0725-3.7528-8.453 1.985-8.8051zm-29.316 0.91613c2.9636-0.18379 1.7535 7.9573-0.76345 3.0029-0.97597-1.1861-1.6377-3.2493 0.76345-3.0029zm13.029 0.25449c4.4873 2.8322 3.6078 11.79-1.476 4.7334-2.4458-1.4824 0.32971-3.5568 1.476-4.7334zm-208.93 0c5.8546 1.2914 12.583 8.0975 18.628 3.7154 0.93549 3.7636 5.773-0.41631 6.413 3.9699 2.4009 2.9557 8.9807-0.13064 7.1255 4.9878 0.34976 2.7016 6.1836 6.0417 1.6796 7.9398-4.8644-2.19-14.999 4.8835-7.6345 8.3979 9.1194 2.4294 17.834-8.7094 26.263-1.1706 4.3758 1.9616 5.9248 5.3536 6.9219 9.3649 3.4365 2.4248 6.6537 8.7979 1.8323 10.79-5.0023-3.6326-8.0744 3.699-7.4309 7.7871-4.2338-4.7522-8.821 8.003-3.2574 9.3649 2.3165 2.7697 1.5992 12.176-2.5957 8.3979-5.0623-4.6401-11.916-7.1004-17.203-11.808-3.985-0.0419-0.32341-3.7436-4.0717-5.6495-2.2216-3.8174-7.1482-3.309-9.1104-1.6287 4.3149-1.0034 6.9584-10.353 0.30538-9.7721-3.6287 0.0712-3.3594-7.1991-6.7692-8.856-3.2609-2.7964-6.3803-8.4123-4.2244-12.062 8.3915 1.5624 5.4818-17.502-2.1376-11.248-0.33754 5.263-6.3913 3.2171-10.179 3.6136 3.34-4.6099 2.8355-10.759 3.461-15.574 0.5712-0.38945 1.3036-0.53297 1.985-0.55986zm311.99 3.6645c1.3782 2.7033-4.9173 2.9869-0.71255 0.35627 0.20284-0.14373 0.45605-0.34829 0.71255-0.35627zm-615.39 0.96703c2.526 1.4512-1.1052 5.5263-0.81435 1.2724 0.10753-0.46669 0.28296-1.1256 0.81435-1.2724zm660.43 0.86523c-1.0581 1.0645-1.5936 0.33398 0 0zm-316.22 4.428c3.3459 0.2723 0.43108 2.4878-0.71255 0.30538 0.1465-0.15079 0.46724-0.24308 0.71255-0.30538zm162.26 0.61076c3.8753 0.61821 0.71708 6.7377-0.45807 1.9341-0.047-0.61595-0.13946-1.598 0.45807-1.9341zm-87.084 3.8681c5.1529 1.2196 1.121 5.1979-2.4939 2.8502-0.79317-1.0036 1.3221-2.9296 2.4939-2.8502zm101.33 0.55986c2.9499 2.4974 8.4538 5.5973 9.2122 9.1614-4.6185 0.50834-9.2721-6.1517-9.2122-9.1614zm-28.756 1.7814c2.7876 2.4704-1.2464 6.4431-2.2394 2.2394 0.0466-1.1147 1.1257-2.2691 2.2394-2.2394zm-351.34 2.6466c2.4814 3.8979-7.985 1.8577-2.1885 0.61075 0.71932-0.29191 1.4096-0.53658 2.1885-0.61075zm451.55 0.20358c4.2964 0.57486 1.1194 8.2529-0.76345 10.23-3.8394 2.7543-13.344-2.2987-6.871-6.362 2.2425-1.7494 4.7354-3.5566 7.6345-3.8681zm56.139 0.66165c7.3702-1.7046 6.656 8.2896 4.0717 12.113-3.5257 5.7575 9.1644 7.6929 9.7212 7.5327-3.3019 5.5999 6.6284 10.752 2.0868 16.592-3.2218 5.3447 1.2275 9.8252 2.0868 14.913 0.2607 2.8383 8.7878 6.1043 5.2423 7.9907-5.3481 1.4274-5.2232-7.5032-10.027-9.0596-3.8112-4.5021-11.071-1.2661-8.6524 4.428-1.6249-3.162-7.8958-7.8445-10.23-2.3412-2.4427 2.5232-2.2332-4.7286-4.8352-5.4968-2.1922-4.3191-7.3335-3.5543-6.9728 1.0179-5.7732 2.3297-9.7742-3.3904-7.1255-8.1943 5.4248-0.47991 8.9241-5.075 7.2273-10.586 0.42842-4.4066-0.19567-10.209 4.9878-10.637 3.1826-4.0087 14.876-2.9757 10.332-10.586-3.6363-1.722-2.2542-8.335 2.0868-7.6854zm-179.77 0.25449c7.628-1.0664 12.696 6.0833 11.095 13.233-0.061 3.4303 0.43092 14.454-5.8531 10.841-0.44766-2.9322 1.523-8.4842-3.919-6.7183-6.0821-3.2713-5.2809-12.591-1.985-17.305l0.40717-0.0509zm-344.26 0.61075c7.9918-0.73921 6.5051 10.023 0.10179 10.994-5.7891-1.5436-6.8188-10.587-0.10179-10.994zm-47.079 0.25448c3.7476 1.6172 3.1714 3.9934-1.2215 2.5448-2.5242-0.15391 0.38087-2.2343 1.2215-2.5448zm284.77 0.66166c1.8278 3.4384-1.9295 2.2262 0 0zm130.96 4.2244c4.2458 2.119-2.0701 4.5006-1.3233 0.76344 0.22397-0.48181 0.80369-0.90276 1.3233-0.76344zm61.127 1.476c3.8152-1.4942 7.837 4.3838 4.1735 6.2602-3.5082 1.4302-9.0252-5.0834-4.1735-6.2602zm-252.45 0.76345c4.8822-0.37068 4.6645 8.336 2.6975 10.434-4.5889-0.77163-2.7204 8.9343-5.395 4.1735-4.2457-1.4064-11.965-5.3599-6.2602-10.383 2.5066-2.3342 5.6149-3.6278 8.9578-4.2244zm138.18 1.2724c0.1022 5.1241-4.3728 0.83367 0 0zm-7.6345 0.45806c1.2517 4.6722-0.93247 10.494-6.5656 8.1943-3.5645-3.1562 0.96776-7.3809 4.8352-6.6674 0.76702-0.18068 1.3139-1.1361 1.7305-1.5269zm86.778 0.96703c11.091-0.81145 17.415 16.256 6.8201 21.529-11.677 5.1907-22.544-14.868-10.739-20.715 1.248-0.53568 2.5324-0.75389 3.919-0.81435zm-344.21 1.3233c4.1223 5.3784 1.3394 14.554-5.0896 15.88-6.4251-2.8122 0.59137-14.084 5.0896-15.88zm455.78 1.4251c1.4462 4.1461-4.6298-0.18676 0 0zm-430.28 0.76344c2.2864 1.5188-1.8855 3.0586 0 0zm82.503 3.6136c5.0859 0.4907 0.98716 6.6789-1.4251 2.2394-0.40806-1.1361 0.16636-2.1859 1.4251-2.2394zm96.652 2.1376c4.8582-1.9416 9.6214 3.5331 5.395 7.1764-3.9601 3.0683-7.5703-3.6717-10.892-4.4789-1.3731-3.7178 3.5757-2.2717 5.4968-2.6975zm186.18 0.55986c3.836-0.12382 4.2426 6.1501 0 3.8681-1.3548-0.79542-1.1978-3.3147 0-3.8681zm27.891 2.7484c5.8058-0.43431 1.1285 9.6328-1.0688 3.2574-0.45999-1.3114-0.88016-3.2105 1.0688-3.2574zm-294.69 5.7004c6.2335-0.21777 7.7326 5.2524 5.5477 10.128 1.037 4.256-8.7414 7.6423-2.952 10.128 4.2463-1.4589 9.2638 3.6426 4.1735 5.904-4.3166 1.4528-7.328-6.4674-10.179-8.9069 0.39087-5.4536 0.94301-12.138 0.0509-17.966 1.1197 0.23751 2.2394 0.47504 3.3592 0.71255zm113.24-0.15269c6.2286 0.8512 2.167 9.0391-2.0868 4.8861-0.88965-1.682-0.057-4.7473 2.0868-4.8861zm60.261 0.91614c5.161 2.4716-3.7937 6.1516-0.86523 0.40717 0.27612-0.21083 0.54026-0.34815 0.86523-0.40717zm-185.47 3.3083c-0.40253 0.18888-0.40253-0.18888 0 0zm100.77 0.61076c2.2971 1.374-0.57128 1.164 0 0zm-111.51 3.2065c-0.29265 2.4167-2.4931 0.26909 0 0zm-122.15-0.15269c-0.17719 2.3197-5.934-0.0364-5.8531 4.0208 0.3095 2.0504-2.0895 5.4729-1.3742 1.6796 1.0301-4.05 3.3046-5.0119 7.2273-5.7004zm202.57 0.0509 0.0509 0.20358zm223.44 4.0208c1.3498 0.54633-1.533 0.659 0 0zm-242.98 14.149c2.4689 1.3392-1.5333 3.0508 0 0zm-22.445 0.91614c-0.40253 0.18888-0.40253-0.18888 0 0z" fill="#ff0e0e" filter="url(#a)"/>
</g>
<metadata>
<rdf:RDF>
<cc:Work>
<dc:format>image/svg+xml</dc:format>
<dc:type rdf:resource="http://purl.org/dc/dcmitype/StillImage"/>
<cc:license rdf:resource="http://creativecommons.org/licenses/publicdomain/"/>
<dc:publisher>
<cc:Agent rdf:about="http://openclipart.org/">
<dc:title>Openclipart</dc:title>
</cc:Agent>
</dc:publisher>
</cc:Work>
<cc:License rdf:about="http://creativecommons.org/licenses/publicdomain/">
<cc:permits rdf:resource="http://creativecommons.org/ns#Reproduction"/>
<cc:permits rdf:resource="http://creativecommons.org/ns#Distribution"/>
<cc:permits rdf:resource="http://creativecommons.org/ns#DerivativeWorks"/>
</cc:License>
</rdf:RDF>
</metadata>
</svg>
