<?xml version="1.0" encoding="UTF-8"?>
<svg preserveAspectRatio="none" version="1.1" viewBox="0 0 64 64" xmlns="http://www.w3.org/2000/svg" xmlns:cc="http://creativecommons.org/ns#" xmlns:dc="http://purl.org/dc/elements/1.1/" xmlns:rdf="http://www.w3.org/1999/02/22-rdf-syntax-ns#" xmlns:xlink="http://www.w3.org/1999/xlink">
<metadata>
<rdf:RDF>
<cc:Work rdf:about="">
<dc:format>image/svg+xml</dc:format>
<dc:type rdf:resource="http://purl.org/dc/dcmitype/StillImage"/>
<dc:title/>
</cc:Work>
</rdf:RDF>
</metadata>
<defs>
<g id="b">
<path d="m1227.8 638.55q-5.2-2.1-12.5-2.1-7.4 0-12.6 2.1-5.1 2.2-5.1 5.25 0 3 5.1 5.15 5.2 2.15 12.6 2.15 7.3 0 12.5-2.15 5.3-2.15 5.3-5.15 0-3.05-5.3-5.25z" fill-opacity=".05098"/>
</g>
<g id="a">
<path d="m1198.2 635.65q-0.25 1.4 0.6 2.5 0.85 1.2 2.3 1.45 1.4 0.2 2.55-0.6 0.4-0.3 0.7-0.65 1.1 3.95 1.1 6.45 1.3-6.5 1.1-13.15-2.9 1.25-3.45 4.75-0.1 0.6-0.6 0.95t-1.1 0.25-0.95-0.6q-0.4-0.45-0.3-1.05 0.85-5.2 4.5-8.2 0.25-0.25 0.5-0.45l-2.8-0.15q-3.3 3.25-4.15 8.5m18.6 7.6q0.95 0 1.85-0.05l2.25 2.15-0.55-4.45q-1.65 0.35-3.55 0.35-3 0-5.4-0.85l-1.9 4.95 3.15-2.5q1.9 0.4 4.15 0.4m14.05-15.5-2.55-0.2q0.2 0.25 0.4 0.55 2.3 3.7 1.8 8.55-0.05 0.6-0.55 1-0.45 0.35-1 0.3-0.65-0.05-1.05-0.55-0.4-0.45-0.35-1.05 0.25-2.15-0.55-3.7-0.2 0.85-0.4 1.65-1.1 4.45-1.55 11.05 2.2-3.1 2.6-5.7 0.5 0.25 1.15 0.3 1.3 0.1 2.4-0.7v-0.05q1.2-0.95 1.3-2.35 0.5-5.1-1.65-9.1z" fill="#637fa3"/>
<path d="m1228.3 627.55q-0.05 0-0.05 0.05-4.75 4.7-11.45 4.7-6.65 0-11.35-4.7-0.15-0.15-0.3-0.3-0.25 0.2-0.5 0.45-3.65 3-4.5 8.2-0.1 0.6 0.3 1.05 0.35 0.5 0.95 0.6t1.1-0.25 0.6-0.95q0.55-3.5 3.45-4.75 0.2 6.65-1.1 13.15 0 0.25 0 0.5 0 0.05 0 0.15 2 1.35 4.05-0.1l1.9-4.95q2.4 0.85 5.4 0.85 1.9 0 3.55-0.35l0.55 4.45q2.05 1.45 4.15 0 0.45-6.6 1.55-11.05 0.2-0.8 0.4-1.65 0.8 1.55 0.55 3.7-0.05 0.6 0.35 1.05 0.4 0.5 1.05 0.55 0.55 0.05 1-0.3 0.5-0.4 0.55-1 0.5-4.85-1.8-8.55-0.2-0.3-0.4-0.55m-0.85-11.8q0-4.4-3.1-7.5-3.15-3.1-7.55-3.1t-7.5 3.1q-3.15 3.1-3.15 7.5v8.95q0.5 0.6 1.05 1.15 3.95 3.95 9.6 3.95t9.7-3.95q0.5-0.5 0.95-1.05v-9.05m-7.65 2.25q0.5 0 0.85 0.4 0.35 0.35 0.35 0.85 0 0.55-0.35 0.9t-0.85 0.35q-0.55 0-0.9-0.35t-0.35-0.9q0-0.5 0.35-0.85 0.35-0.4 0.9-0.4m2.8 2.5q0.35-0.35 0.9-0.35 0.5 0 0.85 0.35 0.4 0.35 0.4 0.85 0 0.55-0.4 0.9-0.35 0.35-0.85 0.35-0.55 0-0.9-0.35t-0.35-0.9q0-0.5 0.35-0.85m-7.45 0q0.4-0.35 0.9-0.35 0.55 0 0.85 0.35 0.4 0.35 0.4 0.85 0 0.55-0.4 0.9-0.3 0.35-0.85 0.35-0.5 0-0.9-0.35-0.35-0.35-0.35-0.9 0-0.5 0.35-0.85m2.65 6.05q-0.1-0.15-0.1-0.35t0.1-0.4q0.15-0.15 0.4-0.15h3.1q0.2 0 0.35 0.15 0.2 0.2 0.2 0.4t-0.2 0.35q-0.15 0.2-0.35 0.2h-3.1q-0.25 0-0.4-0.2z" fill="#8db5e7"/>
<path d="m1232.9 615.3q0.05 0.4 0.05 0.85t-0.05 0.9q-0.05 1.4-0.35 2.8-0.95 4.3-4.25 7.7l2.55 0.2q2.75-3.35 3.65-7.45 0.35-1.5 0.4-3 0.05-0.6 0.05-1.15 0-0.6-0.05-1.1v0.15q-0.35-6.95-5.2-11.8-5.35-5.35-12.9-5.35-7.45 0-12.75 5.35-5 4.9-5.35 11.8 0 0.05 0 0.1 0 0.4 0 0.85t0 0.9q0 0.05 0 0.15 0.1 1.55 0.45 3.1 0.8 3.7 3.2 6.85l2.8 0.15q-3.15-3.3-4.05-7.45-0.3-1.4-0.4-2.8 0-0.45 0-0.9t0-0.85q0.3-6.15 4.75-10.5 4.7-4.75 11.35-4.75 6.7 0 11.45 4.75 4.35 4.35 4.65 10.5m-2.45 1.75q0-0.45 0-0.9t0-0.85q-0.3-5.1-3.95-8.75-4.05-4-9.7-4t-9.6 4q-3.7 3.65-4 8.75-0.05 0.4-0.05 0.85t0.05 0.9q0.05 1.45 0.45 2.8 0.7 2.65 2.5 4.85v-8.95q0-4.4 3.15-7.5 3.1-3.1 7.5-3.1t7.55 3.1q3.1 3.1 3.1 7.5v9.05q1.85-2.25 2.55-4.95 0.35-1.35 0.45-2.8z" fill="#ccc"/>
<path d="m1233 616.15q0-0.45-0.05-0.85-0.3-6.15-4.65-10.5-4.75-4.75-11.45-4.75-6.65 0-11.35 4.75-4.45 4.35-4.75 10.5 0 0.4 0 0.85t0 0.9q0.1 1.4 0.4 2.8 0.9 4.15 4.05 7.45 0.15 0.15 0.3 0.3 4.7 4.7 11.35 4.7 6.7 0 11.45-4.7 0-0.05 0.05-0.05 3.3-3.4 4.25-7.7 0.3-1.4 0.35-2.8 0.05-0.45 0.05-0.9m-2.5 0q0 0.45 0 0.9-0.1 1.45-0.45 2.8-0.7 2.7-2.55 4.95-0.45 0.55-0.95 1.05-4.05 3.95-9.7 3.95t-9.6-3.95q-0.55-0.55-1.05-1.15-1.8-2.2-2.5-4.85-0.4-1.35-0.45-2.8-0.05-0.45-0.05-0.9t0.05-0.85q0.3-5.1 4-8.75 3.95-4 9.6-4t9.7 4q3.65 3.65 3.95 8.75 0 0.4 0 0.85z" fill="#fff"/>
<path d="m1217.7 626.2q0 0.2 0.1 0.35 0.15 0.2 0.4 0.2h3.1q0.2 0 0.35-0.2 0.2-0.15 0.2-0.35t-0.2-0.4q-0.15-0.15-0.35-0.15h-3.1q-0.25 0-0.4 0.15-0.1 0.2-0.1 0.4m-1.65-6.05q-0.5 0-0.9 0.35-0.35 0.35-0.35 0.85 0 0.55 0.35 0.9 0.4 0.35 0.9 0.35 0.55 0 0.85-0.35 0.4-0.35 0.4-0.9 0-0.5-0.4-0.85-0.3-0.35-0.85-0.35m7.45 0q-0.55 0-0.9 0.35t-0.35 0.85q0 0.55 0.35 0.9t0.9 0.35q0.5 0 0.85-0.35 0.4-0.35 0.4-0.9 0-0.5-0.4-0.85-0.35-0.35-0.85-0.35m-2.85-1.75q-0.35-0.4-0.85-0.4-0.55 0-0.9 0.4-0.35 0.35-0.35 0.85 0 0.55 0.35 0.9t0.9 0.35q0.5 0 0.85-0.35t0.35-0.9q0-0.5-0.35-0.85z" fill="#4f719d"/>
</g>
</defs>
<g transform="translate(-1184.2 -592.58)">
<use width="100%" height="100%" xlink:href="#b"/>
<use width="100%" height="100%" xlink:href="#a"/>
</g>
</svg>
