<?xml version="1.0" encoding="UTF-8"?>
<svg preserveAspectRatio="none" version="1.1" viewBox="0 0 64 64" xmlns="http://www.w3.org/2000/svg" xmlns:cc="http://creativecommons.org/ns#" xmlns:dc="http://purl.org/dc/elements/1.1/" xmlns:rdf="http://www.w3.org/1999/02/22-rdf-syntax-ns#" xmlns:xlink="http://www.w3.org/1999/xlink">
<metadata>
<rdf:RDF>
<cc:Work rdf:about="">
<dc:format>image/svg+xml</dc:format>
<dc:type rdf:resource="http://purl.org/dc/dcmitype/StillImage"/>
<dc:title/>
</cc:Work>
</rdf:RDF>
</metadata>
<defs>
<g id="b">
<path d="m1123.6 643.8q0 3 5.1 5.15 5.2 2.15 12.6 2.15 7.3 0 12.5-2.15 5.3-2.15 5.3-5.15 0-3.05-5.3-5.25-5.2-2.1-12.5-2.1-7.4 0-12.6 2.1-5.1 2.2-5.1 5.25z" fill-opacity=".05098"/>
</g>
<g id="a">
<path d="m1153 632.55q-0.2 0.85-0.4 1.7-1.1 4.4-1.55 11.05 2.25-3.1 2.6-5.65 0.5 0.2 1.15 0.25 1.4 0.1 2.45-0.7v-0.05q1.2-0.95 1.3-2.35 0.5-5.2-1.7-9.2l-2.5-0.2q0.2 0.25 0.35 0.55 2.35 3.7 1.85 8.65-0.05 0.6-0.55 1-0.45 0.35-1.05 0.3-0.65-0.05-1.05-0.55-0.35-0.45-0.3-1.05 0.2-2.2-0.6-3.75m-14.55 10.25q2 0.45 4.25 0.45 0.95 0 1.9-0.05l2.25 2.1-0.55-4.4q-1.7 0.35-3.6 0.35-3 0-5.45-0.9l-1.85 4.95 3.05-2.5m-7.55-15.6-2.75-0.25q-3.35 3.3-4.2 8.6-0.25 1.4 0.55 2.55 0.85 1.2 2.3 1.45 1.45 0.2 2.6-0.6 0.45-0.3 0.75-0.7 1.1 3.9 1.15 6.45 1.25-6.5 1.05-13.15-2.95 1.25-3.5 4.8-0.1 0.6-0.6 0.95t-1.15 0.25q-0.6-0.1-0.95-0.6t-0.25-1.1q0.85-5.25 4.5-8.25 0.25-0.25 0.5-0.4z" fill="#4b8572"/>
<path d="m1131.2 627.45q-0.15-0.15-0.25-0.25h-0.05q-0.25 0.15-0.5 0.4-3.65 3-4.5 8.25-0.1 0.6 0.25 1.1t0.95 0.6q0.65 0.1 1.15-0.25t0.6-0.95q0.55-3.55 3.5-4.8 0.2 6.65-1.05 13.15 0 0.15 0 0.3-0.05 0.2 0 0.4 2 1.05 4.1-0.1l1.85-4.95q2.45 0.9 5.45 0.9 1.9 0 3.6-0.35l0.55 4.4q2.1 1.3 4.2 0 0.45-6.65 1.55-11.05 0.2-0.85 0.4-1.7 0.8 1.55 0.6 3.75-0.05 0.6 0.3 1.05 0.4 0.5 1.05 0.55 0.6 0.05 1.05-0.3 0.5-0.4 0.55-1 0.5-4.95-1.85-8.65-0.15-0.3-0.35-0.55-0.05 0-0.1 0.05-4.8 4.75-11.55 4.75t-11.5-4.75m0.75-2.95q0.5 0.6 1.05 1.15 4 4.05 9.7 4.05t9.8-4.05q0.5-0.5 0.95-1.05v-9.1q0-4.45-3.15-7.6t-7.6-3.15-7.6 3.15-3.15 7.6v9m16.15-6.15q0.75-0.75 1.85-0.75 1 0 1.7 0.75 0.75 0.75 0.75 1.7v0.05q0 1.05-0.75 1.75-0.7 0.75-1.7 0.75-1.1 0-1.85-0.75-0.7-0.7-0.7-1.75v-0.05q0.05-0.95 0.7-1.7m-9 0q0.75-0.75 1.85-0.75 1 0 1.7 0.75 0.75 0.75 0.75 1.7v0.05q0 1.05-0.75 1.75-0.7 0.75-1.7 0.75-1.1 0-1.85-0.75-0.7-0.7-0.7-1.75v-0.05q0.05-0.95 0.7-1.7m10.25 5.6q0.1 0.2 0 0.45-0.3 0.7-1 1.3-1.15 0.9-2.7 0.9-1.6 0-2.7-0.9-0.8-0.6-1.05-1.35-0.05-0.25 0.05-0.45t0.3-0.25q0.25-0.05 0.45 0.05t0.25 0.3q0.15 0.5 0.65 0.9 0.8 0.65 2.05 0.65 1.15 0 2-0.65 0.5-0.45 0.7-0.9 0.05-0.25 0.25-0.3 0.25-0.15 0.45 0 0.2 0.05 0.3 0.25z" fill="#6fc4a9"/>
<path d="m1126.4 615.9q0-0.45 0.05-0.9 0.3-6.2 4.75-10.6 4.75-4.8 11.5-4.8t11.55 4.8q4.45 4.4 4.75 10.6 0 0.45 0 0.9t0 0.85q-0.1 1.45-0.35 2.85-1 4.35-4.3 7.8l2.5 0.2q2.8-3.4 3.75-7.55 0-0.05 0.05-0.1 0.25-1.5 0.35-3.05 0-0.1 0-0.15 0-0.4 0-0.85t0-0.9q0-0.05 0-0.1-0.35-7-5.35-11.9h0.05q-5.4-5.4-13-5.4-7.55 0-12.9 5.4-4.95 4.9-5.35 11.8-0.05 0.55-0.05 1.1 0 0.5 0.05 0.95 0.05 1.6 0.4 3.2 0.85 3.75 3.3 6.9l2.75 0.25h0.05q-3.2-3.4-4.15-7.6-0.3-1.4-0.35-2.85-0.05-0.4-0.05-0.85m2.55-0.9q-0.05 0.45-0.05 0.9t0.05 0.85q0.05 1.5 0.45 2.85 0.7 2.7 2.55 4.9v-9q0-4.45 3.15-7.6t7.6-3.15 7.6 3.15 3.15 7.6v9.1q1.85-2.25 2.6-5 0.35-1.35 0.45-2.85 0-0.4 0-0.85t0-0.9q-0.3-5.15-4-8.85-4.1-4.05-9.8-4.05t-9.7 4.05q-3.75 3.7-4.05 8.85z" fill="#ccc"/>
<path d="m1126.4 615q-0.05 0.45-0.05 0.9t0.05 0.85q0.05 1.45 0.35 2.85 0.95 4.2 4.15 7.6 0.1 0.1 0.25 0.25 4.75 4.75 11.5 4.75t11.55-4.75q0.05-0.05 0.1-0.05 3.3-3.45 4.3-7.8 0.25-1.4 0.35-2.85 0-0.4 0-0.85t0-0.9q-0.3-6.2-4.75-10.6-4.8-4.8-11.55-4.8t-11.5 4.8q-4.45 4.4-4.75 10.6m2.45 0.9q0-0.45 0.05-0.9 0.3-5.15 4.05-8.85 4-4.05 9.7-4.05t9.8 4.05q3.7 3.7 4 8.85 0 0.45 0 0.9t0 0.85q-0.1 1.5-0.45 2.85-0.75 2.75-2.6 5-0.45 0.55-0.95 1.05-4.1 4.05-9.8 4.05t-9.7-4.05q-0.55-0.55-1.05-1.15-1.85-2.2-2.55-4.9-0.4-1.35-0.45-2.85-0.05-0.4-0.05-0.85z" fill="#fff"/>
<path d="m1149.4 624.4q0.1-0.25 0-0.45t-0.3-0.25q-0.2-0.15-0.45 0-0.2 0.05-0.25 0.3-0.2 0.45-0.7 0.9-0.85 0.65-2 0.65-1.25 0-2.05-0.65-0.5-0.4-0.65-0.9-0.05-0.2-0.25-0.3t-0.45-0.05q-0.2 0.05-0.3 0.25t-0.05 0.45q0.25 0.75 1.05 1.35 1.1 0.9 2.7 0.9 1.55 0 2.7-0.9 0.7-0.6 1-1.3m-8.4-6.8q-1.1 0-1.85 0.75-0.65 0.75-0.7 1.7v0.05q0 1.05 0.7 1.75 0.75 0.75 1.85 0.75 1 0 1.7-0.75 0.75-0.7 0.75-1.75v-0.05q0-0.95-0.75-1.7-0.7-0.75-1.7-0.75m9 0q-1.1 0-1.85 0.75-0.65 0.75-0.7 1.7v0.05q0 1.05 0.7 1.75 0.75 0.75 1.85 0.75 1 0 1.7-0.75 0.75-0.7 0.75-1.75v-0.05q0-0.95-0.75-1.7-0.7-0.75-1.7-0.75z" fill="#347e67"/>
</g>
</defs>
<g transform="translate(-1110.3 -592.35)">
<use width="100%" height="100%" xlink:href="#b"/>
<use width="100%" height="100%" xlink:href="#a"/>
</g>
</svg>
