<?xml version="1.0" encoding="UTF-8"?>
<svg preserveAspectRatio="none" version="1.1" viewBox="0 0 64 64" xmlns="http://www.w3.org/2000/svg" xmlns:cc="http://creativecommons.org/ns#" xmlns:dc="http://purl.org/dc/elements/1.1/" xmlns:rdf="http://www.w3.org/1999/02/22-rdf-syntax-ns#" xmlns:xlink="http://www.w3.org/1999/xlink">
<metadata>
<rdf:RDF>
<cc:Work rdf:about="">
<dc:format>image/svg+xml</dc:format>
<dc:type rdf:resource="http://purl.org/dc/dcmitype/StillImage"/>
<dc:title/>
</cc:Work>
</rdf:RDF>
</metadata>
<defs>
<g id="b">
<path d="m1122.6 717.8q0 3 5.1 5.15 5.2 2.15 12.6 2.15 7.3 0 12.5-2.15 5.3-2.15 5.3-5.15 0-3.05-5.3-5.25-5.2-2.1-12.5-2.1-7.4 0-12.6 2.1-5.1 2.2-5.1 5.25z" fill-opacity=".05098"/>
</g>
<g id="a">
<path d="m1141.2 717.35q0.95 0 1.9-0.05l2.2 1.9-0.5-4.2q-1.65 0.35-3.6 0.35-3 0-5.45-0.9l-1.85 4.75h0.15l2.9-2.3q2 0.45 4.25 0.45m14.55-4.05q1.25-0.85 1.4-2.5 0.5-5.2-1.75-9.2l-2.5-0.15q0.2 0.25 0.4 0.55 2.35 3.7 1.85 8.65-0.05 0.65-0.55 1-0.45 0.4-1.05 0.35-0.7-0.05-1.1-0.55-0.35-0.5-0.3-1.1 0.2-2.15-0.6-3.75-0.2 0.85-0.4 1.7-1.05 4.4-1.55 10.9 2.25-2.95 2.6-5.45 0.55 0.2 1.2 0.25 1.35 0.1 2.35-0.7m-26.4-12.05-2.75-0.25q-3.35 3.3-4.25 8.65-0.3 1.45 0.7 2.65l-0.1-0.1q0.85 1.2 2.3 1.45 1.45 0.2 2.6-0.6 0.05-0.05 0.1-0.1 0.4-0.3 0.7-0.7 1.1 4.35 1.15 6 1.2-6.25 1-12.65-2.95 1.25-3.5 4.8-0.1 0.6-0.6 1-0.5 0.35-1.15 0.25-0.6-0.1-0.95-0.6-0.4-0.5-0.3-1.1 0.9-5.3 4.55-8.3 0.25-0.25 0.5-0.4m2.85-15.8q-1.9 1.85-2.8 4.1-0.85 2.8-0.8 6.15 0.7 1.5 1.8 2.85v-4.45q0.15-4.2 3.2-7.25 3.15-3.15 7.6-3.15 4.5 0 7.65 3.15 3.05 3.05 3.15 7.25v4.55q0.8-0.95 1.4-1.95 0.65-3.55-0.3-7.1-0.95-2.3-2.8-4.15-3.75-3.75-9.1-3.75-5.3 0-9 3.75z" fill="#c27d94"/>
<path d="m1129.6 701.5q-0.15-0.15-0.25-0.25h-0.05q-0.25 0.15-0.5 0.4-3.65 3-4.55 8.3-0.1 0.6 0.3 1.1 0.35 0.5 0.95 0.6 0.65 0.1 1.15-0.25 0.5-0.4 0.6-1 0.55-3.55 3.5-4.8 0.2 6.4-1 12.65 0 0.45-0.05 0.7-0.05 0.15-0.05 0.3 2.05 1.15 4.2-0.05l1.85-4.75q2.45 0.9 5.45 0.9 1.95 0 3.6-0.35l0.5 4.2q2.15 1.45 4.3 0 0.5-6.5 1.55-10.9 0.2-0.85 0.4-1.7 0.8 1.6 0.6 3.75-0.05 0.6 0.3 1.1 0.4 0.5 1.1 0.55 0.6 0.05 1.05-0.35 0.5-0.35 0.55-1 0.5-4.95-1.85-8.65-0.2-0.3-0.4-0.55-0.05 0-0.1 0.05-4.8 4.75-11.6 4.75-6.75 0-11.55-4.75m0.75-7.4v4.45q0.5 0.6 1.05 1.15 4.05 4.05 9.75 4.05 5.75 0 9.85-4.05 0.5-0.5 0.95-1.05v-4.55q-0.1-4.2-3.15-7.25-3.15-3.15-7.65-3.15-4.45 0-7.6 3.15-3.05 3.05-3.2 7.25m9.9-2.6q0-1.55 1.1-2.75 1.15-1.1 2.8-1.1 1.5 0 2.65 1.1 1.2 1.2 1.2 2.75 0 0.35-0.05 0.65-0.25 1.15-1.15 2-1.15 1.15-2.65 1.15-1.65 0-2.8-1.15-0.85-0.85-1-2-0.1-0.3-0.1-0.65m5.8 7.45q0.15-0.15 0.3-0.25 0.2-0.3 0.35-0.65 0.05-0.2 0.25-0.25 0.2-0.1 0.4 0h0.05q0.15 0.05 0.3 0.25 0.1 0.2 0 0.4-0.3 0.7-1.05 1.25-1.05 0.9-2.6 0.9t-2.6-0.9q-0.8-0.55-1-1.3-0.05-0.2 0.05-0.35 0.1-0.25 0.3-0.25 0.2-0.1 0.45 0 0.15 0.1 0.2 0.3 0.15 0.3 0.4 0.6 0.1 0.15 0.25 0.25 0.8 0.6 1.95 0.6t2-0.6z" fill="#f19cb7"/>
<path d="m1124.8 688.95q0 0.45 0 0.95 0 0.45 0 0.85 0.1 1.45 0.4 2.85 0.95 4.25 4.15 7.65 0.1 0.1 0.25 0.25 4.8 4.75 11.55 4.75 6.8 0 11.6-4.75 0.05-0.05 0.1-0.05 3.35-3.45 4.3-7.85 0.3-1.4 0.35-2.85 0.05-0.4 0.05-0.85 0-0.5-0.05-0.95-0.3-6.2-4.75-10.65-4.8-4.75-11.6-4.75-6.75 0-11.55 4.75-4.45 4.45-4.8 10.65m2.55 1.8q-0.05-0.4-0.05-0.85 0-0.5 0.05-0.95 0.3-5.15 4.05-8.85 4.05-4.05 9.75-4.05 5.75 0 9.85 4.05 3.7 3.7 4 8.85 0.05 0.45 0.05 0.95 0 0.45-0.05 0.85-0.05 1.5-0.4 2.85-0.45 1.6-1.25 3.1-0.6 1-1.4 1.95-0.45 0.55-0.95 1.05-4.1 4.05-9.85 4.05-5.7 0-9.75-4.05-0.55-0.55-1.05-1.15-1.1-1.35-1.8-2.85-0.45-1-0.75-2.1-0.4-1.35-0.45-2.85m14-2q-1.1 1.2-1.1 2.75 0 0.35 0.1 0.65 0.15 1.15 1 2 1.15 1.15 2.8 1.15 1.5 0 2.65-1.15 0.9-0.85 1.15-2 0.05-0.3 0.05-0.65 0-1.55-1.2-2.75-1.15-1.1-2.65-1.1-1.65 0-2.8 1.1m0.7 2.7q0-1 0.7-1.8 0.7-0.65 1.65-0.75 0.1 0 0.25 0 1 0 1.75 0.75 0.75 0.8 0.75 1.8 0 1.05-0.75 1.75-0.75 0.8-1.75 0.8-0.15 0-0.25 0-0.95-0.1-1.65-0.8t-0.7-1.75z" fill="#fff"/>
<path d="m1146.4 698.7q-0.15 0.1-0.3 0.25-0.85 0.6-2 0.6t-1.95-0.6q-0.15-0.1-0.25-0.25-0.25-0.3-0.4-0.6-0.05-0.2-0.2-0.3-0.25-0.1-0.45 0-0.2 0-0.3 0.25-0.1 0.15-0.05 0.35 0.2 0.75 1 1.3 1.05 0.9 2.6 0.9t2.6-0.9q0.75-0.55 1.05-1.25 0.1-0.2 0-0.4-0.15-0.2-0.3-0.25h-0.05q-0.2-0.1-0.4 0-0.2 0.05-0.25 0.25-0.15 0.35-0.35 0.65m-3.6-9.05q-0.7 0.8-0.7 1.8 0 1.05 0.7 1.75t1.65 0.8q0.1 0 0.25 0 1 0 1.75-0.8 0.75-0.7 0.75-1.75 0-1-0.75-1.8-0.75-0.75-1.75-0.75-0.15 0-0.25 0-0.95 0.1-1.65 0.75z" fill="#a55b72"/>
<path d="m1132.8 681.55h0.05q3.45-3.5 8.3-3.5 4.95 0 8.45 3.5 3.15 3.15 3.4 7.55v0.1q0 0.15 0.05 0.4 0.95 3.55 0.3 7.1 0.8-1.5 1.25-3.1 0.35-1.35 0.4-2.85 0.05-0.4 0.05-0.85 0-0.5-0.05-0.95-0.3-5.15-4-8.85-4.1-4.05-9.85-4.05-5.7 0-9.75 4.05-3.75 3.7-4.05 8.85-0.05 0.45-0.05 0.95 0 0.45 0.05 0.85 0.05 1.5 0.45 2.85 0.3 1.1 0.75 2.1-0.05-3.35 0.8-6.15 0-0.2 0-0.35v-0.1q0.25-4.4 3.45-7.55m-10 9.2q0 0.05 0 0.15 0.1 1.6 0.45 3.15 0.85 3.8 3.3 6.95l2.75 0.25h0.05q-3.2-3.4-4.15-7.65-0.3-1.4-0.4-2.85 0-0.4 0-0.85 0-0.5 0-0.95 0.35-6.2 4.8-10.65 4.8-4.75 11.55-4.75 6.8 0 11.6 4.75 4.45 4.45 4.75 10.65 0.05 0.45 0.05 0.95 0 0.45-0.05 0.85-0.05 1.45-0.35 2.85-0.95 4.4-4.3 7.85l2.5 0.15q2.85-3.4 3.75-7.55 0.35-1.6 0.4-3.2 0.05-0.45 0.05-0.95 0-0.6-0.05-1.15-0.3855-6.8859-5.3-11.85h-0.05q-5.4-5.35-13-5.35-7.55 0-12.95 5.35-5 4.95-5.4 11.95 0 0.05 0 0.1 0 0.45 0 0.95 0 0.45 0 0.85z" fill="#ccc"/>
</g>
</defs>
<g transform="translate(-1108.9 -666.32)">
<use width="100%" height="100%" xlink:href="#b"/>
<use width="100%" height="100%" xlink:href="#a"/>
</g>
</svg>
