<?xml version="1.0" encoding="UTF-8"?>
<svg viewBox="0 0 1200 1200" xmlns="http://www.w3.org/2000/svg" xmlns:xlink="http://www.w3.org/1999/xlink">
<metadata>image/svg+xml</metadata>
<g>
<title>background</title>
<rect x="-1" y="-1" width="1202" height="1202" fill="none"/>
</g>
<g>
<title>Layer 1</title>
<g stroke="null">
<g transform="rotate(.57758 609.51 597.62)" fill-rule="evenodd">
<path d="m557.38 592.59c10.816-0.12092 21.633-0.24185 32.449-0.36277 2.5795 30.904 14.454 52.622 30.561 70.167-6.2802 2.6811-12.56 5.3621-18.838 8.0454-22.601-17.193-39.58-40.643-44.173-77.85z" fill="#ccc" stroke="#000" stroke-linecap="round" stroke-linejoin="round" stroke-miterlimit="2.6131" stroke-width="3.5432"/>
<path d="m713.23 643.68c-1.2656 98.527-180.23 95.283-203.96 42.451-14.162-31.521-21.992-74.036-9.7593-107.85l242.36-2.7094c-32.964 20.247-27.353 22.47-28.634 68.106zm-178.43-14.219c23.382-40.928 135.27-50.146 149.94-0.75165 21.98 74.019-121.92 79.956-142.45 51.66-13.486-18.585-12.526-42.08-7.4841-50.908z" fill="#ccc" stroke="#000" stroke-linecap="round" stroke-linejoin="round" stroke-miterlimit="2.6131" stroke-width="3.5432"/>
<path d="m392.04 312.87c41.209-0.037842 41.02 58.792 20.201 92.809l14.513 24.107c19.061-12.356 76.78-63.6 83.983-87.421-7.7533-33.915-30.122 5.9379-85.86-46.339-19.345-18.144-34.577-5.9898-32.837 16.844l-1e-6 -5.5e-5z" fill="#b3b3b3" stroke="#000" stroke-linecap="round" stroke-linejoin="round" stroke-miterlimit="2.6131" stroke-width="3.5432"/>
<path d="m1119.1 277.19l-16.673 0.1864c-22.512 44.43-75.098 15.631-74.89 33.686l0.37966 32.844 91.943-1.0279-0.75933-65.689 5.2e-5 -1e-6z" fill="#b3b3b3" stroke="#000" stroke-linecap="round" stroke-linejoin="round" stroke-miterlimit="2.6131" stroke-width="3.5432"/>
<path d="m553.48 290.04l182.16-2.0365 71.585 24.456 2.2692 196.31c-35.104 8.8638-60.815 47.161-59.58 66.918l-403.43 4.5101-1.514-130.98c-0.16355-18.35 2.9767-27.625 29.201-28.044 61.105-11.2 167.44-113.65 179.3-131.13z" fill="#ccc" stroke="#000" stroke-linecap="round" stroke-linejoin="round" stroke-miterlimit="2.6131" stroke-width="3.5432"/>
<path d="m581.52 325.64l93.295-1.043 2.1956 189.94-93.295 1.043c-40.902 0.45726-74.86-41.905-75.464-94.138v0c-0.60377-52.232 32.367-95.344 73.269-95.802z" fill="#666" stroke="#000" stroke-linecap="round" stroke-linejoin="round" stroke-miterlimit="2.6131" stroke-width="3.5432"/>
<path d="m805.63 329l317.63-3.551 1.3747 118.93-317.63 3.551-1.3747-118.93z" fill="#ccc" stroke="#000" stroke-linecap="round" stroke-linejoin="round" stroke-miterlimit="2.6131" stroke-width="3.5432"/>
<path d="m807.6 499.43l317.63-3.551-0.59529-51.498-317.63 3.551 0.59529 51.498z" fill="#ccc" stroke="#000" stroke-linecap="round" stroke-linejoin="round" stroke-miterlimit="2.6131" stroke-width="3.5432"/>
<path d="m811.21 351.81l287.66-3.2159 0.42299 36.593-287.66 3.2159-0.42299-36.593z" fill="#fff" stroke="null"/>
<path d="m805.46 314.51l-59.086 0.66055 2.3553 203.75 59.086-0.66055-2.3553-203.75z" fill="#808080" stroke="#000" stroke-linecap="round" stroke-linejoin="round" stroke-miterlimit="2.6131" stroke-width="3.5432"/>
<path d="m756.21 433.38l42.157-0.47129 0.28501 24.656-42.157 0.47129-0.28501-24.656z" fill="#b3b3b3" stroke="null"/>
<path d="m755.12 339.13l42.157-0.47129 0.285 24.655-42.157 0.47129-0.285-24.655z" fill="#b3b3b3" stroke="null"/>
<path d="m745.97 315.17l-140.21 1.5675 2.3553 203.75 140.21-1.5675-2.3553-203.75z" fill="#b3b3b3" stroke="#000" stroke-linecap="round" stroke-linejoin="round" stroke-miterlimit="2.6131" stroke-width="3.5432"/>
<path d="m578.72 317.04l27.043-0.30232 2.3553 203.75-27.043 0.30232-2.3553-203.75z" fill="#808080" stroke="#000" stroke-linecap="round" stroke-linejoin="round" stroke-miterlimit="2.6131" stroke-width="3.5432"/>
<path d="m746.65 373.88l-140.21 1.5675 0.99799 86.335 140.21-1.5675-0.99799-86.335z" fill="#b3b3b3" stroke="#000" stroke-linecap="round" stroke-linejoin="round" stroke-miterlimit="2.6131" stroke-width="3.5432"/>
<path d="m625.25 334.68l103.76-1.16 0.285 24.655-103.76 1.16-0.285-24.655z" fill="#fff" stroke="null"/>
<path d="m625.93 393.39l103.76-1.16 0.285 24.655-103.76 1.16-0.285-24.655z" fill="#fff" stroke="null"/>
<path d="m499.93 514.61c9.971-0.11147 18.152 8.2408 18.272 18.651 0.12036 10.412-7.8651 18.944-17.836 19.055-9.969 0.11145-18.152-8.2391-18.272-18.651-0.12034-10.411 7.8671-18.944 17.836-19.055z" fill="#b3b3b3" stroke="#000" stroke-linecap="round" stroke-linejoin="round" stroke-miterlimit="2.6131" stroke-width="3.5432"/>
<path d="m94.519 890.45c-8.8367-78.834 63.692-277.56 163.13-334.35 83.399-87.71 151.84-92.79 176.5-29.52 4.4581 10.801 17.545 54.508 1.2885 69.06-35.765 32.021-24.913 56.128-27.811 61.676-10.322 19.755-29.706 20.245-35.022 55.505-1.5388 10.203 14.708 31.676 14.296 42.583-1.0854 28.705-19.177 20.202-12.703 61.47 4.6072 11.207 20.087 25.601 21.95 35.799 3.7701 20.64-14.979 19.485-3.3503 51.053-69.123 18.539-276.08 23.806-298.27-13.278l-3.11e-4 3e-6z" fill="#630" stroke="#000" stroke-linecap="round" stroke-linejoin="round" stroke-miterlimit="2.6131" stroke-width="3.5432"/>
<path d="m365.39 519.8c19.331-0.21612 35.197 15.981 35.431 36.166 0.23336 20.188-15.254 36.736-34.586 36.952-19.332 0.21612-35.198-15.981-35.431-36.169-0.23333-20.185 15.254-36.733 34.586-36.949z" fill="#666" stroke="#000" stroke-linecap="round" stroke-linejoin="round" stroke-miterlimit="2.6131" stroke-width="3.5432"/>
<path d="m148.64 841.07c11.765-0.13153 21.42 9.7242 21.562 22.009 0.14202 12.286-9.282 22.353-21.047 22.485-11.763 0.13151-21.419-9.7226-21.561-22.009-0.142-12.284 9.2833-22.353 21.046-22.485z" fill="#b3b3b3" stroke="#000" stroke-linecap="round" stroke-linejoin="round" stroke-miterlimit="2.6131" stroke-width="3.5432"/>
</g>
</g>
</g>
</svg>
