<?xml version="1.0" encoding="UTF-8"?>
<svg viewBox="0 0 1200 1200" xmlns="http://www.w3.org/2000/svg" xmlns:xlink="http://www.w3.org/1999/xlink">
<defs>
<clipPath id="a">
<path d="m810.84 412.87h121.47v-44.042h-121.47v44.042z" clip-rule="evenodd"/>
</clipPath>
</defs>
<metadata>image/svg+xml</metadata>
<g>
<title>background</title>
<rect x="-1" y="-1" width="1202" height="1202" fill="none"/>
</g>
<g>
<title>Layer 1</title>
<g fill-rule="evenodd">
<path d="m698.59 444.54c-33.024 39.402-57.621 97.706-101.05 118.21-60.334 28.481-108.86 25.599-173.51 32.305v165.99c63.239-41.078 98.175-99.361 169.29-112.78 38.822-7.3269 70.604 18.085 105.03 40.72l0.2277-244.44h5.76e-4z" fill="#dec44f" stroke="#000" stroke-linecap="round" stroke-linejoin="round" stroke-miterlimit="2.6131" stroke-width="3.5432"/>
<path d="m728.61 641.17h22.452c1.5371 17.628 9.5788 30.08 20.581 40.182-4.3658 1.4877-8.732 2.9757-13.097 4.4647-15.498-9.9419-27.056-23.414-29.936-44.646z" fill="#dec44f" stroke="#000" stroke-linecap="round" stroke-linejoin="round" stroke-miterlimit="2.6131" stroke-width="3.5432"/>
<path d="m853.59 561.91h177.02v43.78h-177.02v-43.78z" fill="#666" stroke="#000" stroke-linecap="round" stroke-linejoin="round" stroke-miterlimit="2.6131" stroke-width="3.5432"/>
<path d="m861.85 580.57h160.5v9.7493h-160.5v-9.7493z" fill="#808080" stroke="null"/>
<path d="m614.18 396.83c11.226-8.9295 22.452-17.859 33.678-26.788 18.866 36.362 38.374 53.582 52.887 17.364l23.702 0.141c0 8.9291-7.3614 20.442-7.3614 29.371-3.7418 5.2082-10.515 23.334-14.257 28.543-34.608 8.2582-44.687-5.9961-58.712-41.936-7.4839 4.4644-14.968 8.9291-22.452 13.394 0 0-9.3548-20.09-7.4839-20.09v0.002751z" fill="#b3b3b3" stroke="#000" stroke-linecap="round" stroke-linejoin="round" stroke-miterlimit="2.6131" stroke-width="3.5432"/>
<path d="m722.27 387.9h126.04l49.327 19.964v155.18c-24.357 6.6955-42.449 24.554-41.753 40.18h-156.57v-174.18c16.701-13.716 14.614-27.429 22.964-41.142z" fill="#963" stroke="#000" stroke-linecap="round" stroke-linejoin="round" stroke-miterlimit="2.6131" stroke-width="3.5432"/>
<path d="m741.4 414.55h64.55v150.15h-64.55c-28.299 0-51.453-33.783-51.453-75.073v0c0-41.291 23.154-75.073 51.453-75.073z" fill="#dec44f" stroke="#000" stroke-linecap="round" stroke-linejoin="round" stroke-miterlimit="2.6131" stroke-width="3.5432"/>
<path d="m896.42 409.1h200.48v153.18h-200.48v-153.18z" fill="#dec44f" stroke="#000" stroke-linecap="round" stroke-linejoin="round" stroke-miterlimit="2.6131" stroke-width="3.5432"/>
<path d="m1096.3 409.1l40.624-33.865v218.08l-40.624-31.042v-153.18z" fill="#dec44f" stroke="#000" stroke-linecap="round" stroke-linejoin="round" stroke-miterlimit="2.6131" stroke-width="3.5432"/>
<path d="m905.77 430.42h181.77v34.111h-181.77v-34.111z" fill="#ff9" stroke="null"/>
<path d="m1103.8 417.72l25.63-21.166v48.222l-25.63 19.754v-46.81z" fill="#ff9" stroke="null"/>
<path d="m896.42 394.22h-40.881v161.07h40.881v-161.07z" fill="#dec44f" stroke="#000" stroke-linecap="round" stroke-linejoin="round" stroke-miterlimit="2.6131" stroke-width="3.5432"/>
<path d="m861.39 501.25h29.167v19.491h-29.167v-19.491z" fill="#ff9" stroke="null"/>
<path d="m861.39 426.74h29.167v19.49h-29.167v-19.49z" fill="#ff9" stroke="null"/>
<path d="m855.26 407.73h-97.013v161.07h97.013v-161.07z" fill="#dec44f" stroke="#000" stroke-linecap="round" stroke-linejoin="round" stroke-miterlimit="2.6131" stroke-width="3.5432"/>
<path d="m739.53 407.73h18.71v161.07h-18.71v-161.07z" fill="#dec44f" stroke="#000" stroke-linecap="round" stroke-linejoin="round" stroke-miterlimit="2.6131" stroke-width="3.5432"/>
<path d="m855.26 454.14h-97.013v68.249h97.013v-68.249z" fill="#dec44f" stroke="#000" stroke-linecap="round" stroke-linejoin="round" stroke-miterlimit="2.6131" stroke-width="3.5432"/>
<path d="m771.58 422.08h71.79v19.491h-71.79v-19.491z" fill="#ff9" stroke="null"/>
<path d="m771.58 468.49h71.79v19.491h-71.79v-19.491z" fill="#ff9" stroke="null"/>
<path d="m845.65 675.53l-60.699 40.926-85.049-24.964-1.5308-53.575v-30.229h157.17l-9.8872 67.842zm-128.76-34.172l112.77-2.0008 0.11529 22.411-47.222 33.672-62.655-18.62-3.0014-35.462h-0.002018z" fill="#dec44f" stroke="#000" stroke-linecap="round" stroke-linejoin="round" stroke-miterlimit="2.6131" stroke-width="3.5432"/>
<path d="m971.07 405.96h32.828v158.03h-32.828v-158.03z" fill="#dec44f" stroke="#000" stroke-linecap="round" stroke-linejoin="round" stroke-miterlimit="2.6131" stroke-width="3.5432"/>
<path d="m980.44 422.24h14.084v48.625h-14.084v-48.625z" fill="#ff9" stroke="null"/>
<path d="m424.69 595.44v165.99l-284.57 118.21-48.483-238.93 333.06-45.27z" fill="#630" stroke="#000" stroke-linecap="round" stroke-linejoin="round" stroke-miterlimit="2.6131" stroke-width="3.5432"/>
<path d="m133.79 887.18l-42.159-248.99 101.18-17.605c-32.677 32.695-48.135 62.875-52.699 95.57l18.971 160.96-25.295 10.06z" fill="#dec44f" stroke="#000" stroke-linecap="round" stroke-linejoin="round" stroke-miterlimit="2.6131" stroke-width="3.5432"/>
<path d="m125.71 649.41c6.8977 0 12.491 6.6735 12.491 14.904 0 8.23-5.5934 14.904-12.491 14.904-6.8982 0-12.492-6.6735-12.492-14.904 0-8.23 5.5934-14.904 12.492-14.904z" fill="#dec44f" stroke="#000" stroke-linecap="round" stroke-linejoin="round" stroke-miterlimit="2.6131" stroke-width="3.5432"/>
<path d="m182.27 650.77l231.87-40.24-2.1078 22.635-255.06 67.905s23.187-50.3 25.295-50.3" fill="#963" stroke="null"/>
<path d="m435.23 610.53c54.198-3.9723 112-11.901 160.2-30.18 45.351-22.92 67.825-60.026 90.642-103.12-2.1078 20.12-2.1078 45.27-4.216 65.39-28.809 22.635-55.509 37.725-84.318 60.36-54.809 23.794-107.51 26.172-162.31 32.695 1.4054-9.2221-1.4051-15.928 0-25.15" fill="#ff9" stroke="null"/>
<path d="m524.5 532.42c80.105 5.2945 137.29 21.764 170.07-10.586-0.99152 38.817-0.50354 77.634-1.4789 116.45-12.324-37.051-44.365-41.171-84.293-12.35-4.4313-38.826-35.981-38.823-79.857-21.173-11.437-19.409-33.388-7.4511-53.238-1.7645 5.9154-31.172 35.492-55.285 48.802-70.576z" fill="#dec44f" stroke="#000" stroke-linecap="round" stroke-linejoin="round" stroke-miterlimit="2.6131" stroke-width="3.5432"/>
<path d="m531.15 555.36c53.73 5.9452 107.46 11.293 161.19-1.7645 0 4.7048 2.0528 3.4743 0 14.115-2.0531 10.641-161.54-4.299-161.19-12.351" stroke="null"/>
</g>
<g fill-rule="evenodd">
<path d="m1597 481.55h124.98v7.7641h-124.98v-7.7641z" fill="#4c4c4c" stroke="#000" stroke-linecap="round" stroke-linejoin="round" stroke-miterlimit="2.6131" stroke-width="3.5432"/>
<path d="m1442 530.8c2.7986-4.0046 5.5095-10.016 11.045-14.12 4.9288-3.6551 9.8946 0.34339 10.968-0.58749 10.399-9.0177 26.407-20.769 38.066-22.562h18.604v14.495c-14.445 7.676-25.367 34.632-25.221 56.125-29.428-2.8509-51.612-25.945-53.462-33.35z" fill="#4c4c4c" stroke="#000" stroke-linecap="round" stroke-linejoin="round" stroke-miterlimit="2.6131" stroke-width="3.5432"/>
<path d="m1457 525.35c2.9417 0 5.327 2.335 5.327 5.2144 0 2.8795-2.3853 5.2145-5.327 5.2145-2.9419 0-5.3269-2.335-5.3269-5.2145 0-2.8794 2.385-5.2144 5.3269-5.2144z" fill="#ccc" stroke="#000" stroke-linecap="round" stroke-linejoin="round" stroke-miterlimit="2.6131" stroke-width="3.5432"/>
<path d="m1581 508.87c9.3706-4.5657 22.666-5.7701 32.036-10.336 4.6317 26.357 13.883 46.384 33.509 65.436-8.6714 5.9415-15.237 12.574-24.608 17.14-21.039-13.784-38.657-40.16-40.937-72.24z" fill="#4c4c4c" stroke="#000" stroke-linecap="round" stroke-linejoin="round" stroke-miterlimit="2.6131" stroke-width="3.5432"/>
<path d="m1589.8 518.63c6.4154-3.1256 13.065-2.51 19.481-5.6356 3.1708 18.044 13.919 37.037 27.356 50.081-5.9366 4.0677-7.9792 6.2079-14.395 9.3334-14.404-9.4372-29.408-30.855-32.442-53.778z" fill="#4c4c4c" stroke="#000" stroke-linecap="round" stroke-linejoin="round" stroke-miterlimit="2.6131" stroke-width="3.5432"/>
<path d="m1573.8 491.08l43.532-6.0104 4.3859 30.438-43.532 6.0108-4.3859-30.438z" fill="#4c4c4c" stroke="#000" stroke-linecap="round" stroke-linejoin="round" stroke-miterlimit="2.6131" stroke-width="3.5432"/>
<path d="m1574.1 515.1l48.974-6.7618 1.5349 10.653-48.973 6.762-1.5354-10.653z" fill="#4c4c4c" stroke="#000" stroke-linecap="round" stroke-linejoin="round" stroke-miterlimit="2.6131" stroke-width="3.5432"/>
<path d="m1546.3 493.78h6.2537c0.42836 5.5875 2.668 9.5344 5.7327 12.736-1.216 0.4716-2.4322 0.9432-3.6479 1.4151-4.3168-3.1512-7.5364-7.4213-8.3385-14.151z" fill="#4c4c4c" stroke="#000" stroke-linecap="round" stroke-linejoin="round" stroke-miterlimit="2.6131" stroke-width="3.5432"/>
<path d="m1576.2 503.32c-0.46333 17.794-34.941 16.847-39.397 7.2561-2.6588-5.7222-4.0729-13.418-1.6403-19.5h46.707c-6.3971 3.5906-5.3208 4.0035-5.6694 12.244zm-34.35-2.9289c4.5967-7.3455 26.178-8.7845 28.894 0.16701 4.0707 13.414-23.672 14.196-27.565 9.0436-2.5575-3.3842-2.3202-7.6262-1.3289-9.2106z" fill="#4c4c4c" stroke="#000" stroke-linecap="round" stroke-linejoin="round" stroke-miterlimit="2.6131" stroke-width="3.5432"/>
<path d="m1540.3 441.26c7.9407 0.076377 7.7735 10.702 3.6858 16.805l2.743 4.3837c3.7006-2.1935 14.937-11.333 16.378-15.621-1.4185-6.1418-5.8175 1.0117-16.442-8.5435-3.6873-3.3165-6.6495-1.1519-6.3649 2.9762z" fill="#4c4c4c" stroke="#000" stroke-linecap="round" stroke-linejoin="round" stroke-miterlimit="2.6131" stroke-width="3.5432"/>
<path d="m1747.2 430.42h-3.2133c-4.4371 8.7077-14.506 2.916-14.506 6.4749v6.4748h17.719v-12.95z" fill="#4c4c4c" stroke="#000" stroke-linecap="round" stroke-linejoin="round" stroke-miterlimit="2.6131" stroke-width="3.5432"/>
<path d="m1565.2 435.91h53.537l2.6813 0.954v42.681c-0.016125 6.3145-0.69182 12.076-4.2575 11.967h-118.3v-20.053c0.009363-3.315 0.63512-4.9839 5.6893-5.007 47.272-1.1315 63.029-26.21 60.649-30.542z" fill="#4c4c4c" stroke="#000" stroke-linecap="round" stroke-linejoin="round" stroke-miterlimit="2.6131" stroke-width="3.5432"/>
<path d="m1621.1 439.94h126.04v17.64h-126.04v-17.64z" fill="#4c4c4c" stroke="#000" stroke-linecap="round" stroke-linejoin="round" stroke-miterlimit="2.6131" stroke-width="3.5432"/>
<path d="m1621.1 457.06h124.98v15.738h-124.98v-15.738z" fill="#4c4c4c" stroke="#000" stroke-linecap="round" stroke-linejoin="round" stroke-miterlimit="2.6131" stroke-width="3.5432"/>
<path d="m1623.2 443.34h114.14v5.4277h-114.14v-5.4277z" fill="#808080"/>
<path d="m1623.2 460.09h113.19v4.8427h-113.19v-4.8427z" fill="#808080"/>
<path d="m1621.1 440.69h-13.151v40.165h13.151v-40.165z" fill="#4c4c4c" stroke="#000" stroke-linecap="round" stroke-linejoin="round" stroke-miterlimit="2.6131" stroke-width="3.5432"/>
<path d="m1609.9 464.02h9.3826v4.8604h-9.3826v-4.8604z" fill="#808080"/>
<path d="m1609.9 445.44h9.3826v4.8604h-9.3826v-4.8604z" fill="#808080"/>
<path d="m1613.8 440.69h-36.135v40.165h36.135v-40.165z" fill="#4c4c4c" stroke="#000" stroke-linecap="round" stroke-linejoin="round" stroke-miterlimit="2.6131" stroke-width="3.5432"/>
<path d="m1570.7 440.69h6.9692v40.165h-6.9692v-40.165z" fill="#4c4c4c" stroke="#000" stroke-linecap="round" stroke-linejoin="round" stroke-miterlimit="2.6131" stroke-width="3.5432"/>
<path d="m1613.8 452.27h-36.135v17.019h36.135v-17.019z" fill="#4c4c4c" stroke="#000" stroke-linecap="round" stroke-linejoin="round" stroke-miterlimit="2.6131" stroke-width="3.5432"/>
<path d="m1582.6 444.27h26.74v4.8601h-26.74v-4.8601z" fill="#808080"/>
<path d="m1535.2 466.81c10.669-0.45745 20.551-10.537 32.582-21.65v4.454c-8.8199 10.009-19.681 19.631-32.582 21.65v-4.4542" fill="#666"/>
<path d="m1582.6 455.85h26.74v4.8605h-26.74v-4.8605z" fill="#808080"/>
<path d="m1548.5 479.58c1.9216 0 3.4794 1.5253 3.4794 3.4059 0 1.8811-1.5578 3.4061-3.4794 3.4061-1.9212 0-3.4795-1.525-3.4795-3.4061 0-1.8806 1.5583-3.4059 3.4795-3.4059z" fill="#4c4c4c" stroke="#000" stroke-linecap="round" stroke-linejoin="round" stroke-miterlimit="2.6131" stroke-width="3.5432"/>
<path d="m1468.5 525.9c2.1052 4.4382 4.6907 8.5068 7.7027 12.17 0.62472 0.7599-2.6449 6.9778-1.9839 7.7027 2.8136 3.0827 5.9524 5.8459 9.3817 8.2632 3.4289 2.4172 7.1494 4.4894 11.125 6.1922 0.30078-2.2484 4.0227-3.4399 4.4603-5.7391 0.4372-2.2992-2.4074-5.708-1.8214-8.0099 0.58688-2.3017 1.2515-4.5948 1.998-6.8511 0.74683-2.2567 4.3741-2.2899 5.2933-4.4531 0.91939-2.1632-0.86803-6.4579 0.23524-8.4785 1.1025-2.0207 2.3016-3.9598 3.5995-5.79 1.2983-1.8305 5.4946-0.81846 6.9993-2.4099 1.5051-1.5917 1.1959-18.075 33.575-24.963l-21.755 0.067212c-21.451 0-43.871 17.675-58.81 32.299v6.11e-4z" fill="#4c4c4c" stroke="#000" stroke-linecap="round" stroke-linejoin="round" stroke-miterlimit="2.6131" stroke-width="3.5432"/>
<path d="m1637.2 429.63h13.887v62.742h-13.887v-62.742z" fill="#4c4c4c" stroke="#000" stroke-linecap="round" stroke-linejoin="round" stroke-miterlimit="2.6131" stroke-width="3.5432"/>
<path d="m1666.1 429.63h13.887v62.742h-13.887v-62.742z" fill="#4c4c4c" stroke="#000" stroke-linecap="round" stroke-linejoin="round" stroke-miterlimit="2.6131" stroke-width="3.5432"/>
<path d="m1644.2 438.3c2.4896 0 4.5085 1.9762 4.5085 4.4134 0 2.437-2.0189 4.4134-4.5085 4.4134-2.4898 0-4.5087-1.9763-4.5087-4.4134 0-2.4371 2.0189-4.4134 4.5087-4.4134z" fill="#4c4c4c" stroke="#000" stroke-linecap="round" stroke-linejoin="round" stroke-miterlimit="2.6131" stroke-width="3.5432"/>
<path d="m1673 438.3c2.4896 0 4.5085 1.9762 4.5085 4.4134 0 2.437-2.0189 4.4134-4.5085 4.4134-2.4896 0-4.5086-1.9763-4.5086-4.4134 0-2.4371 2.019-4.4134 4.5086-4.4134z" fill="#4c4c4c" stroke="#000" stroke-linecap="round" stroke-linejoin="round" stroke-miterlimit="2.6131" stroke-width="3.5432"/>
<path d="m1497.2 509.59c3.4488 4.316 8.4757 9.2627 14.221 10.208-1.3204 1.3106-3.5015 3.4641-4.8223 4.775-5.5714-3.5553-8.4178-10.305-9.3991-14.983"/>
<path d="m1487.8 527.7c3.4488 4.3163 8.4757 9.263 14.221 10.208-1.3207 1.3106-3.5019 3.464-4.8223 4.7748-5.5712-3.5553-8.4177-10.305-9.399-14.983"/>
<path d="m1515.6 471.26h-5.5938l-5.5812 13.915h5.5938l5.5812-13.915z" fill="#4c4c4c" stroke="#000" stroke-linecap="round" stroke-linejoin="round" stroke-miterlimit="2.6131" stroke-width="3.5432"/>
<path d="m1526.7 471.26h-5.5938l-5.5814 13.915h5.5938l5.5814-13.915z" fill="#4c4c4c" stroke="#000" stroke-linecap="round" stroke-linejoin="round" stroke-miterlimit="2.6131" stroke-width="3.5432"/>
<path d="m1537.8 471.26h-5.5938l-5.5812 13.915h5.5938l5.5812-13.915z" fill="#4c4c4c" stroke="#000" stroke-linecap="round" stroke-linejoin="round" stroke-miterlimit="2.6131" stroke-width="3.5432"/>
<path d="m1503.9 383.41h155.66v16.774h-155.66v-16.774z" fill="#4c4c4c" stroke="#000" stroke-linecap="round" stroke-linejoin="round" stroke-miterlimit="2.6131" stroke-width="3.5432"/>
<path d="m1553 413.45h101.41v7.0727h-101.41v-7.0727z" fill="#4c4c4c" stroke="#000" stroke-linecap="round" stroke-linejoin="round" stroke-miterlimit="2.6131" stroke-width="3.5432"/>
<path d="m1579.8 396.77h-15.84v26.381h15.84v-26.381z" fill="#4c4c4c" stroke="#000" stroke-linecap="round" stroke-linejoin="round" stroke-miterlimit="2.6131" stroke-width="3.5432"/>
<path d="m1623.8 396.77h-15.84v26.381h15.84v-26.381z" fill="#4c4c4c" stroke="#000" stroke-linecap="round" stroke-linejoin="round" stroke-miterlimit="2.6131" stroke-width="3.5432"/>
<path d="m1652.4 380.62l27.134-3.6085v30.981l-27.134-3.6082v-23.764z" fill="#4c4c4c" stroke="#000" stroke-linecap="round" stroke-linejoin="round" stroke-miterlimit="2.6131" stroke-width="3.5432"/>
<path d="m1543.3 380.62l-26.992-3.6085v30.981l26.992-3.6082v-23.764z" fill="#4c4c4c" stroke="#000" stroke-linecap="round" stroke-linejoin="round" stroke-miterlimit="2.6131" stroke-width="3.5432"/>
<path d="m1693.5 377.01h-13.934v30.981h13.934v-30.981z" fill="#4c4c4c" stroke="#000" stroke-linecap="round" stroke-linejoin="round" stroke-miterlimit="2.6131" stroke-width="3.5432"/>
<path d="m1502.5 377.01h13.861v30.981h-13.861v-30.981z" fill="#4c4c4c" stroke="#000" stroke-linecap="round" stroke-linejoin="round" stroke-miterlimit="2.6131" stroke-width="3.5432"/>
<path d="m1586.3 378.61h-28.687v26.381h28.687v-26.381z" fill="#4c4c4c" stroke="#000" stroke-linecap="round" stroke-linejoin="round" stroke-miterlimit="2.6131" stroke-width="3.5432"/>
<path d="m1630.3 378.61h-28.687v26.381h28.687v-26.381z" fill="#4c4c4c" stroke="#000" stroke-linecap="round" stroke-linejoin="round" stroke-miterlimit="2.6131" stroke-width="3.5432"/>
<path d="m1679.5 412.14h-49.978v20.793h61.037v-11.711c-0.83162-4.4246-5.9451-8.1501-11.059-9.0815z" fill="#4c4c4c" stroke="#000" stroke-linecap="round" stroke-linejoin="round" stroke-miterlimit="2.6131" stroke-width="3.5432"/>
<path d="m1571.9 387.38c2.4896 0 4.5085 1.9763 4.5085 4.4134 0 2.4371-2.0189 4.4134-4.5085 4.4134-2.4896 0-4.5086-1.9762-4.5086-4.4134 0-2.437 2.019-4.4134 4.5086-4.4134z" fill="#4c4c4c" stroke="#000" stroke-linecap="round" stroke-linejoin="round" stroke-miterlimit="2.6131" stroke-width="3.5432"/>
<path d="m1615.9 387.38c2.4896 0 4.5087 1.9763 4.5087 4.4134 0 2.4371-2.019 4.4134-4.5087 4.4134-2.4896 0-4.5085-1.9762-4.5085-4.4134 0-2.437 2.0189-4.4134 4.5085-4.4134z" fill="#4c4c4c" stroke="#000" stroke-linecap="round" stroke-linejoin="round" stroke-miterlimit="2.6131" stroke-width="3.5432"/>
<path d="m1677 417.83c2.4896 0 4.5085 1.9762 4.5085 4.4135 0 2.437-2.0189 4.4133-4.5085 4.4133-2.4898 0-4.5086-1.9762-4.5086-4.4133 0-2.4372 2.0189-4.4135 4.5086-4.4135z" fill="#4c4c4c" stroke="#000" stroke-linecap="round" stroke-linejoin="round" stroke-miterlimit="2.6131" stroke-width="3.5432"/>
</g>
<g fill-rule="evenodd">
<path d="m916.46 2001.5h541.25v14.371h-541.25v-14.371z" fill="#808080" stroke="#000" stroke-linecap="round" stroke-linejoin="round" stroke-miterlimit="2.6131" stroke-width="3.5432"/>
<path d="m922.57 2004.2h526.08v4.422h-526.08v-4.422z" fill="#b3b3b3"/>
<path d="m842.02 2060.2l49.176-17.902c7.8018-2.8401 17.24 2.8802 20.975 12.712v0c3.7352 9.8313 0.40802 20.199-7.3935 23.038l-49.176 17.901c-7.8014 2.8398-17.24-2.8801-20.975-12.712v0c-0.43787-1.1521-0.77848-2.3122-1.0266-3.4655-0.41322-1.9228-10.709-2.2638-10.627-4.0946 0.14596-3.2234 11.174-7.7815 12.692-10.208 1.5191-2.4274 3.6726-4.2937 6.3543-5.2696zm6.8028 6.4426l41.524-15.116c4.8762-1.775 10.349 0.67833 12.163 5.4516l1.034 2.7211c1.8131 4.7731-0.69307 10.131-5.5688 11.906l-41.524 15.116c-4.8756 1.775-10.349-0.67792-12.163-5.4515l-1.034-2.7211c-1.8132-4.7735 0.69265-10.131 5.5688-11.906z" fill="#666" stroke="#000" stroke-linecap="round" stroke-linejoin="round" stroke-miterlimit="2.6131" stroke-width="3.5432"/>
<path d="m889.91 1975.8c12.62 2.7846 8.6342 19.652-0.013524 28l2.8341 7.9015c2.5533-0.86316 12.45-11.75 15.003-12.613 1.048-1.7534 0.09467-0.020367 1.1438-1.7736-0.10923-10.257 4.154-10.592-7.7907-24.121-5.3347-6.0418-10.187-4.0646-11.179 2.6052h0.001665z" fill="#b3b3b3" stroke="#000" stroke-linecap="round" stroke-linejoin="round" stroke-miterlimit="2.6131" stroke-width="3.5432"/>
<path d="m915.33 1983.7c-11.92 11.668-20.798 28.934-36.471 35.004-21.777 8.4341-39.292 7.5804-62.624 9.5665v49.154c22.825-12.164 35.435-29.424 61.102-33.399 14.012-2.1696 25.484 5.3555 37.91 12.058l0.082186-72.384h4.16e-4z" fill="#808080" stroke="#000" stroke-linecap="round" stroke-linejoin="round" stroke-miterlimit="2.6131" stroke-width="3.5432"/>
<path d="m1428.1 1967.2h4.1639c5.7497 10.34 18.797 3.4626 18.797 7.6886v7.6891h-22.961v-15.378z" fill="#666" stroke="#000" stroke-linecap="round" stroke-linejoin="round" stroke-miterlimit="2.6131" stroke-width="3.5432"/>
<path d="m1109.2 1970.2c5.7497 10.34 11.424 3.4626 11.424 7.6888v7.6889h-29.492v-7.6889c0-4.2262 5.6746 2.6516 11.424-7.6888h6.6441z" fill="#666" stroke="#000" stroke-linecap="round" stroke-linejoin="round" stroke-miterlimit="2.6131" stroke-width="3.5432"/>
<path d="m924.76 2040.7h8.1036c-0.39397 5.0904 2.0817 9.0563 7.4285 11.899-1.5758 0.44054-3.1517 0.88108-4.727 1.322-9.3649-2.9967-10.662-7.9679-10.805-13.221z" fill="#666" stroke="#000" stroke-linecap="round" stroke-linejoin="round" stroke-miterlimit="2.6131" stroke-width="3.5432"/>
<path d="m915.04 2000.3h249.97v20.766l-116.09 11.326h-133.88v-32.092z" fill="#630" stroke="#000" stroke-linecap="round" stroke-linejoin="round" stroke-miterlimit="2.6131" stroke-width="3.5432"/>
<path d="m916.46 1983.8h541.25v17.639h-541.25v-17.639z" fill="#808080" stroke="#000" stroke-linecap="round" stroke-linejoin="round" stroke-miterlimit="2.6131" stroke-width="3.5432"/>
<path d="m922.57 1987.2h526.08v5.4269h-526.08v-5.4269z" fill="#b3b3b3"/>
<path d="m986.72 2037.8c-2.7619 2.424-5.5235 4.8475-8.2852 7.2716-0.67528 25.938-58.407 25.205-63.192 10.577-0.18383-5.2884-0.36828-10.577-0.55252-15.865v-8.9516h78.844l-6.8147 6.9685zm-66.626 3.0021c9.1074 0.22007 43.033 0.44054 52.141 0.66102-2.3405 20.27-42.527 19.7-48.923 12.765-3.7279-4.0425-2.8841-9.3068-3.2176-13.426z" fill="#666" stroke="#000" stroke-linecap="round" stroke-linejoin="round" stroke-miterlimit="2.6131" stroke-width="3.5432"/>
<path d="m1155.2 1999.5h11.849v21.867h-11.849v-21.867z" fill="#666" stroke="#000" stroke-linecap="round" stroke-linejoin="round" stroke-miterlimit="2.6131" stroke-width="3.5432"/>
<path d="m1362.4 2001.6h11.849v17.59h-11.849v-17.59z" fill="#666" stroke="#000" stroke-linecap="round" stroke-linejoin="round" stroke-miterlimit="2.6131" stroke-width="3.5432"/>
<path d="m1158.5 2003.7h5.0833v6.7282h-5.0833v-6.7282z" fill="#999"/>
<path d="m1365.8 2005h5.0833v5.4123h-5.0833v-5.4123z" fill="#999"/>
<path d="m816.47 2028.4v49.154l-218.08 66.375c7.9375-25.095 14.212-57.743-2.5435-87.484l220.63-28.046z" fill="#630" stroke="#000" stroke-linecap="round" stroke-linejoin="round" stroke-miterlimit="2.6131" stroke-width="3.5432"/>
<path d="m612.18 2062.2l200.49-29.345-0.7609 6.7028-198.89 36.143c-2.4221 0.43993-1.6013-13.501-0.84048-13.501" fill="#963"/>
<path d="m820.28 2032.8c19.562-1.1763 40.426-3.5243 57.823-8.9372 16.369-6.7874 24.48-17.775 32.716-30.535-0.7609 5.9581-0.7609 13.406-1.5216 19.364-10.398 6.703-20.035 11.172-30.433 17.874-19.782 7.0461-38.803 7.7504-58.584 9.682 0.50716-2.7309-0.50737-4.7169 0-7.4477" fill="#b3b3b3"/>
<path d="m915.03 1983.7h101.13v48.764h-101.13v-48.764z" fill="#666" stroke="#000" stroke-linecap="round" stroke-linejoin="round" stroke-miterlimit="2.6131" stroke-width="3.5432"/>
<path d="m961.32 2009.4h54.125v16.731h-54.125c-4.7006 0-8.546-3.7643-8.546-8.3657v0c0-4.6012 3.8454-8.3655 8.546-8.3655z" fill="#333" stroke="#000" stroke-linecap="round" stroke-linejoin="round" stroke-miterlimit="2.6131" stroke-width="3.5432"/>
</g>
<path d="m781.85 2685.1h85.355v9.2836h-85.355v-9.2836z" fill="#4c4c4c" fill-rule="evenodd" stroke="#000" stroke-linecap="round" stroke-linejoin="round" stroke-miterlimit="2.6131" stroke-width="3.5432"/>
<path d="m781.85 2705.2h85.355v17.02h-85.355v-17.02z" fill="#4c4c4c" fill-rule="evenodd" stroke="#000" stroke-linecap="round" stroke-linejoin="round" stroke-miterlimit="2.6131" stroke-width="3.5432"/>
<path d="m864.04 2678.1l42.677-10.825v92.576l-42.677-10.825v-70.926z" fill="#4c4c4c" fill-rule="evenodd" stroke="#000" stroke-linecap="round" stroke-linejoin="round" stroke-miterlimit="2.6131" stroke-width="3.5432"/>
<path d="m1017.5 2588h-15.84v18.505h15.84v-18.505z" fill="#4c4c4c" fill-rule="evenodd" stroke="#000" stroke-linecap="round" stroke-linejoin="round" stroke-miterlimit="2.6131" stroke-width="3.5432"/>
<path d="m879.72 2743.5l118-7.2171-18.393 50.004h-99.602v-42.786zm43.801 8.0661h58.998l-9.5351 26.251h-46.483l-11.323-14.584 8.3434-11.667z" fill="#4c4c4c" fill-rule="evenodd" stroke="#000" stroke-linecap="round" stroke-linejoin="round" stroke-miterlimit="2.6131" stroke-width="3.5432"/>
<path d="m928.66 2752.7c3.0846-0.43952 6.1691-0.87905 9.2538-1.3185 0.59715 7.1038 4.2399 12.186 10.93 15.247-1.709 0.8656-3.4175 1.7312-5.1261 2.5975-11.31-2.6207-13.814-9.285-15.058-16.527z" fill="#4c4c4c" fill-rule="evenodd" stroke="#000" stroke-linecap="round" stroke-linejoin="round" stroke-miterlimit="2.6131" stroke-width="3.5432"/>
<path d="m1003.6 2757.2c13.323-6.4913 32.226-8.204 45.549-14.695 6.5854 37.474 19.739 65.949 47.643 93.036-12.329 8.4475-21.664 17.878-34.988 24.369-29.914-19.599-54.962-57.099-58.205-102.71z" fill="#4c4c4c" fill-rule="evenodd" stroke="#000" stroke-linecap="round" stroke-linejoin="round" stroke-miterlimit="2.6131" stroke-width="3.5432"/>
<path d="m1016.3 2771.1c9.1215-4.4441 18.575-3.5687 27.697-8.0127 4.5086 25.655 19.791 52.66 38.894 71.204-8.4406 5.7835-11.345 8.8259-20.466 13.27-20.479-13.418-41.813-43.87-46.125-76.462z" fill="#4c4c4c" fill-rule="evenodd" stroke="#000" stroke-linecap="round" stroke-linejoin="round" stroke-miterlimit="2.6131" stroke-width="3.5432"/>
<path d="m993.43 2731.9l61.894-8.5458 6.2356 43.276-61.894 8.5457-6.2356-43.276z" fill="#4c4c4c" fill-rule="evenodd" stroke="#000" stroke-linecap="round" stroke-linejoin="round" stroke-miterlimit="2.6131" stroke-width="3.5432"/>
<path d="m993.84 2766.1l69.63-9.6141 2.1826 15.147-69.63 9.6142-2.1822-15.147z" fill="#4c4c4c" fill-rule="evenodd" stroke="#000" stroke-linecap="round" stroke-linejoin="round" stroke-miterlimit="2.6131" stroke-width="3.5432"/>
<path d="m901.66 2683.4h475.64v17.639h-475.64v-17.639z" fill="#808080" fill-rule="evenodd" stroke="#000" stroke-linecap="round" stroke-linejoin="round" stroke-miterlimit="2.6131" stroke-width="3.5432"/>
<path d="m901.66 2664.9h245.76v17.639h-245.76v-17.639z" fill="#808080" fill-rule="evenodd" stroke="#000" stroke-linecap="round" stroke-linejoin="round" stroke-miterlimit="2.6131" stroke-width="3.5432"/>
<path d="m1378.7 2713.7h-257.19v33.86h257.19v-33.86z" fill="#4c4c4c" fill-rule="evenodd" stroke="#000" stroke-linecap="round" stroke-linejoin="round" stroke-miterlimit="2.6131" stroke-width="3.5432"/>
<path d="m906.8 2686.8h466.41v5.4269h-466.41v-5.4269z" fill="#b3b3b3" fill-rule="evenodd"/>
<path d="m905.35 2668.3h238.87v5.4269h-238.87v-5.4269z" fill="#b3b3b3" fill-rule="evenodd"/>
<path d="m1374.8 2720.2h-249.98v10.418h249.98v-10.418z" fill="#666" fill-rule="evenodd"/>
<path d="m929.37 2715v-24.646h24.098v24.646c0 6.4868-5.4217 11.794-12.049 11.794v0c-6.6272 0-12.049-5.307-12.049-11.794z" fill="#333" fill-rule="evenodd" stroke="#000" stroke-linecap="round" stroke-linejoin="round" stroke-miterlimit="2.6131" stroke-width="3.5432"/>
<path d="m889.62 2682.4h199.8v42.612l-196.45 26.223-3.3486-68.835z" fill="#666" fill-rule="evenodd" stroke="#000" stroke-linecap="round" stroke-linejoin="round" stroke-miterlimit="2.6131" stroke-width="3.5432"/>
<path d="m884.04 2693.3h199.8v14.204l-196.45 8.741-3.3486-22.945z" fill="#666" fill-rule="evenodd" stroke="#000" stroke-linecap="round" stroke-linejoin="round" stroke-miterlimit="2.6131" stroke-width="3.5432"/>
<path d="m947.38 2603.2h158.59v16.774h-158.59v-16.774z" fill="#4c4c4c" fill-rule="evenodd" stroke="#000" stroke-linecap="round" stroke-linejoin="round" stroke-miterlimit="2.6131" stroke-width="3.5432"/>
<path d="m993.81 2616.5h-15.84v26.381h15.84v-26.381z" fill="#4c4c4c" fill-rule="evenodd" stroke="#000" stroke-linecap="round" stroke-linejoin="round" stroke-miterlimit="2.6131" stroke-width="3.5432"/>
<path d="m1041.5 2616.5h-15.84v26.381h15.84v-26.381z" fill="#4c4c4c" fill-rule="evenodd" stroke="#000" stroke-linecap="round" stroke-linejoin="round" stroke-miterlimit="2.6131" stroke-width="3.5432"/>
<path d="m1063.7 2602.1l52.837-16.986v52.901l-52.837-16.988v-18.927z" fill="#4c4c4c" fill-rule="evenodd" stroke="#000" stroke-linecap="round" stroke-linejoin="round" stroke-miterlimit="2.6131" stroke-width="3.5432"/>
<path d="m957.31 2600.4l-52.837-3.6082v30.981l52.837-3.6083v-23.764z" fill="#4c4c4c" fill-rule="evenodd" stroke="#000" stroke-linecap="round" stroke-linejoin="round" stroke-miterlimit="2.6131" stroke-width="3.5432"/>
<path d="m1143.7 2585.1h-27.133v52.901h27.133v-52.901z" fill="#4c4c4c" fill-rule="evenodd" stroke="#000" stroke-linecap="round" stroke-linejoin="round" stroke-miterlimit="2.6131" stroke-width="3.5432"/>
<path d="m1143.7 2585.1h12.53v52.901h-12.53v-52.901z" fill="#4c4c4c" fill-rule="evenodd" stroke="#000" stroke-linecap="round" stroke-linejoin="round" stroke-miterlimit="2.6131" stroke-width="3.5432"/>
<path d="m877.34 2596.7h27.133v30.981h-27.133v-30.981z" fill="#4c4c4c" fill-rule="evenodd" stroke="#000" stroke-linecap="round" stroke-linejoin="round" stroke-miterlimit="2.6131" stroke-width="3.5432"/>
<path d="m1000.2 2598.3h-28.687v26.381h28.687v-26.381z" fill="#4c4c4c" fill-rule="evenodd" stroke="#000" stroke-linecap="round" stroke-linejoin="round" stroke-miterlimit="2.6131" stroke-width="3.5432"/>
<path d="m1047.9 2598.3h-28.687v26.381h28.687v-26.381z" fill="#4c4c4c" fill-rule="evenodd" stroke="#000" stroke-linecap="round" stroke-linejoin="round" stroke-miterlimit="2.6131" stroke-width="3.5432"/>
<path d="m985.89 2607.1c2.4896 0 4.5086 1.9764 4.5086 4.4135s-2.019 4.4134-4.5086 4.4134c-2.4896 0-4.5085-1.9763-4.5085-4.4134s2.0189-4.4135 4.5085-4.4135z" fill="#4c4c4c" fill-rule="evenodd" stroke="#000" stroke-linecap="round" stroke-linejoin="round" stroke-miterlimit="2.6131" stroke-width="3.5432"/>
<path d="m1033.6 2607.1c2.4896 0 4.5087 1.9764 4.5087 4.4135s-2.019 4.4134-4.5087 4.4134c-2.4896 0-4.5085-1.9763-4.5085-4.4134s2.0189-4.4135 4.5085-4.4135z" fill="#4c4c4c" fill-rule="evenodd" stroke="#000" stroke-linecap="round" stroke-linejoin="round" stroke-miterlimit="2.6131" stroke-width="3.5432"/>
<path d="m904.01 2731.6c2.4896 0 4.5085 1.9763 4.5085 4.4135 0 2.437-2.0189 4.4133-4.5085 4.4133-2.4896 0-4.5087-1.9762-4.5087-4.4133 0-2.4371 2.019-4.4135 4.5087-4.4135z" fill="#808080" fill-rule="evenodd" stroke="#000" stroke-linecap="round" stroke-linejoin="round" stroke-miterlimit="2.6131" stroke-width="3.5432"/>
<path d="m1386.5 2682.7h-11.517v19.181h11.517v-19.181z" fill="#333" fill-rule="evenodd" stroke="#000" stroke-linecap="round" stroke-linejoin="round" stroke-miterlimit="2.6131" stroke-width="3.5432"/>
<path d="m1383.7 2685.2h-5.7582v6.1116h5.7582v-6.1116z" fill="#b3b3b3" fill-rule="evenodd"/>
<path d="m1537.1 2677.9h-136.45v28.723h136.45v-28.723z" fill="#333" fill-rule="evenodd" stroke="#000" stroke-linecap="round" stroke-linejoin="round" stroke-miterlimit="2.6131" stroke-width="3.5432"/>
<path d="m1537.1 2677.9h12.436v28.723h-12.436v-28.723z" fill="#333" fill-rule="evenodd" stroke="#000" stroke-linecap="round" stroke-linejoin="round" stroke-miterlimit="2.6131" stroke-width="3.5432"/>
<path d="m1533.5 2681.7h-129.34v9.1516h129.34v-9.1516z" fill="#b3b3b3" fill-rule="evenodd"/>
<path d="m1539.6 2681.7h7.3292v9.1516h-7.3292v-9.1516z" fill="#b3b3b3" fill-rule="evenodd"/>
<path d="m1386.9 2681.5l13.714-3.6085v28.723l-13.714-3.6083v-21.507z" fill="#333" fill-rule="evenodd" stroke="#000" stroke-linecap="round" stroke-linejoin="round" stroke-miterlimit="2.6131" stroke-width="3.5432"/>
<path d="m840.08 2848.9c-4.2764-18.024 32.983-52.666 34.39-91.171 8.2404-0.40378 14.113-0.10326 14.508 1.8991 2.1716 11.013 5.7325 20.277 20.903 19.52 6.8498-0.34135 14.033 0.36009 14.746 3.3031 2.3569 9.7208-1.1613 13.588-5.1247 14.012-5.8912 0.63047-11.362 4.548-11.709 12.585-0.10029 2.3253-0.22015 7.2708-0.027361 9.7604 0.50794 6.5516-4.1344 4.5641-1.4446 14.004 1.4255 2.5706 5.5886 5.8968 6.3174 8.2301 1.4749 4.7228-3.1296 4.4111 0.55632 11.65-16.363 4.0569-55.315 9.4207-73.115-3.7935h5.2e-5z" fill="#333" fill-rule="evenodd" stroke="#000" stroke-linecap="round" stroke-linejoin="round" stroke-miterlimit="2.6131" stroke-width="3.5432"/>
<path d="m919.79 2782.6c-25.387 1.8403-34.061-4.5242-39.275-22.808v5.6309c-0.036203 17.778 12.821 23.536 39.275 22.808v-5.6309" fill="#666" fill-rule="evenodd"/>
<path d="m912.12 2846.3c-18.739 0.92334-37.361 1.6194-52.388-4.7233 1.1489-19.343 17.463-29.24 22.058-47.908 10.34 4.0487 21.599 5.3981 33.777 4.0487" fill="none" stroke="#000" stroke-linecap="round" stroke-linejoin="round" stroke-miterlimit="2.6131" stroke-width="3.5432"/>
<path d="m1109.8 2665.2h204.46l7.3724 23.786v23.786h-219.21v-23.786l7.3724-23.786z" fill="#4c4c4c" fill-rule="evenodd" stroke="#000" stroke-linecap="round" stroke-linejoin="round" stroke-miterlimit="2.6131" stroke-width="3.5432"/>
<path d="m1089.7 2712.4h181.98v39.787h-181.98v-39.787z" fill="#4c4c4c" fill-rule="evenodd" stroke="#000" stroke-linecap="round" stroke-linejoin="round" stroke-miterlimit="2.6131" stroke-width="3.5432"/>
<path d="m1101.7 2705.1h157.96v56.064h-157.96v-56.064z" fill="#4c4c4c" fill-rule="evenodd"/>
<g transform="matrix(1.3004 0 0 -1.2729 47.254 3230.7)" stroke="null">
<g clip-path="url(#a)" stroke="null">
<path d="m808 390.85h127.87v-30.546h-127.87v30.546z" fill="#333" fill-rule="evenodd"/>
</g>
</g>
<path d="m1101.7 2705.1h157.96v56.064h-157.96v-56.064z" fill="none" stroke="#000" stroke-linecap="round" stroke-linejoin="round" stroke-miterlimit="2.6131" stroke-width="3.5432"/>
<path d="m1106.3 2709.7h148.73v10.851h-148.73v-10.851z" fill="#808080" fill-rule="evenodd"/>
<path d="m1117.9 2729.7v0c2.2847 0 4.1536 1.8294 4.1536 4.0658v15.812c0 2.2366-1.869 4.066-4.1536 4.066v0c-2.2847 0-4.1536-1.8294-4.1536-4.066v-15.812c0-2.2364 1.869-4.0658 4.1536-4.0658z" fill="#333" fill-rule="evenodd" stroke="#000" stroke-linecap="round" stroke-linejoin="round" stroke-miterlimit="2.6131" stroke-width="3.5432"/>
<path d="m1133.6 2729.7v0c2.2847 0 4.1536 1.8294 4.1536 4.0658v15.812c0 2.2366-1.869 4.066-4.1536 4.066v0c-2.2847 0-4.1536-1.8294-4.1536-4.066v-15.812c0-2.2364 1.869-4.0658 4.1536-4.0658z" fill="#333" fill-rule="evenodd" stroke="#000" stroke-linecap="round" stroke-linejoin="round" stroke-miterlimit="2.6131" stroke-width="3.5432"/>
<path d="m1149.3 2729.7v0c2.2848 0 4.1536 1.8294 4.1536 4.0658v15.812c0 2.2366-1.8688 4.066-4.1536 4.066v0c-2.2847 0-4.1535-1.8294-4.1535-4.066v-15.812c0-2.2364 1.8688-4.0658 4.1535-4.0658z" fill="#333" fill-rule="evenodd" stroke="#000" stroke-linecap="round" stroke-linejoin="round" stroke-miterlimit="2.6131" stroke-width="3.5432"/>
<path d="m1165 2729.7v0c2.2847 0 4.1535 1.8294 4.1535 4.0658v15.812c0 2.2366-1.8688 4.066-4.1535 4.066v0c-2.2847 0-4.1536-1.8294-4.1536-4.066v-15.812c0-2.2364 1.869-4.0658 4.1536-4.0658z" fill="#333" fill-rule="evenodd" stroke="#000" stroke-linecap="round" stroke-linejoin="round" stroke-miterlimit="2.6131" stroke-width="3.5432"/>
<path d="m1180.7 2729.7v0c2.2847 0 4.1536 1.8294 4.1536 4.0658v15.812c0 2.2366-1.869 4.066-4.1536 4.066v0c-2.2847 0-4.1536-1.8294-4.1536-4.066v-15.812c0-2.2364 1.869-4.0658 4.1536-4.0658z" fill="#333" fill-rule="evenodd" stroke="#000" stroke-linecap="round" stroke-linejoin="round" stroke-miterlimit="2.6131" stroke-width="3.5432"/>
<path d="m1196.4 2729.7v0c2.2847 0 4.1536 1.8294 4.1536 4.0658v15.812c0 2.2366-1.869 4.066-4.1536 4.066v0c-2.2847 0-4.1536-1.8294-4.1536-4.066v-15.812c0-2.2364 1.869-4.0658 4.1536-4.0658z" fill="#333" fill-rule="evenodd" stroke="#000" stroke-linecap="round" stroke-linejoin="round" stroke-miterlimit="2.6131" stroke-width="3.5432"/>
<path d="m1212 2729.7v0c2.2847 0 4.1536 1.8294 4.1536 4.0658v15.812c0 2.2366-1.869 4.066-4.1536 4.066v0c-2.2847 0-4.1536-1.8294-4.1536-4.066v-15.812c0-2.2364 1.869-4.0658 4.1536-4.0658z" fill="#333" fill-rule="evenodd" stroke="#000" stroke-linecap="round" stroke-linejoin="round" stroke-miterlimit="2.6131" stroke-width="3.5432"/>
<path d="m1227.7 2729.7v0c2.2848 0 4.1536 1.8294 4.1536 4.0658v15.812c0 2.2366-1.8688 4.066-4.1536 4.066v0c-2.2847 0-4.1535-1.8294-4.1535-4.066v-15.812c0-2.2364 1.8688-4.0658 4.1535-4.0658z" fill="#333" fill-rule="evenodd" stroke="#000" stroke-linecap="round" stroke-linejoin="round" stroke-miterlimit="2.6131" stroke-width="3.5432"/>
<path d="m1243.4 2729.7v0c2.2847 0 4.1535 1.8294 4.1535 4.0658v15.812c0 2.2366-1.8688 4.066-4.1535 4.066v0c-2.2847 0-4.1536-1.8294-4.1536-4.066v-15.812c0-2.2364 1.869-4.0658 4.1536-4.0658z" fill="#333" fill-rule="evenodd" stroke="#000" stroke-linecap="round" stroke-linejoin="round" stroke-miterlimit="2.6131" stroke-width="3.5432"/>
<path d="m1121 2702.7c3.3773 0 6.1158-2.6489 6.1158-5.9151s-2.7385-5.9151-6.1158-5.9151c-3.3773 0-6.1161 2.6489-6.1161 5.9151s2.7388 5.9151 6.1161 5.9151zm20.387 0c3.3773 0 6.1162-2.6489 6.1162-5.9151s-2.7389-5.9151-6.1162-5.9151c-3.3773 0-6.1161 2.6489-6.1161 5.9151s2.7388 5.9151 6.1161 5.9151zm-9.5089-18.393c3.3773 0 6.1161-2.649 6.1161-5.9151 0-3.2663-2.7388-5.9153-6.1161-5.9153-3.3773 0-6.1158 2.6491-6.1158 5.9153 0 3.2662 2.7385 5.9151 6.1158 5.9151zm29.896 18.393c3.3773 0 6.1162-2.6489 6.1162-5.9151s-2.7389-5.9151-6.1162-5.9151c-3.3773 0-6.1161 2.6489-6.1161 5.9151s2.7388 5.9151 6.1161 5.9151zm-9.5085-18.393c3.3769 0 6.1157-2.649 6.1157-5.9151 0-3.2663-2.7388-5.9153-6.1157-5.9153-3.3773 0-6.1162 2.6491-6.1162 5.9153 0 3.2662 2.7389 5.9151 6.1162 5.9151zm29.895 18.393c3.3773 0 6.1162-2.6489 6.1162-5.9151s-2.7389-5.9151-6.1162-5.9151c-3.3773 0-6.1161 2.6489-6.1161 5.9151s2.7388 5.9151 6.1161 5.9151zm-9.5086-18.393c3.377 0 6.1158-2.649 6.1158-5.9151 0-3.2663-2.7388-5.9153-6.1158-5.9153-3.3773 0-6.1161 2.6491-6.1161 5.9153 0 3.2662 2.7388 5.9151 6.1161 5.9151zm29.896 18.393c3.3773 0 6.1162-2.6489 6.1162-5.9151s-2.7389-5.9151-6.1162-5.9151c-3.3773 0-6.1158 2.6489-6.1158 5.9151s2.7385 5.9151 6.1158 5.9151zm-9.5086-18.393c3.377 0 6.1162-2.649 6.1162-5.9151 0-3.2663-2.7392-5.9153-6.1162-5.9153-3.3773 0-6.1165 2.6491-6.1165 5.9153 0 3.2662 2.7392 5.9151 6.1165 5.9151z" fill="#333" fill-rule="evenodd" stroke="#000" stroke-linecap="round" stroke-linejoin="round" stroke-miterlimit="2.6131" stroke-width="3.5432"/>
<path d="m1212.8 2672.4c3.3773 0 6.1158 2.6491 6.1158 5.9153 0 3.2662-2.7385 5.9151-6.1158 5.9151-3.3773 0-6.1161-2.649-6.1161-5.9151 0-3.2663 2.7388-5.9153 6.1161-5.9153zm20.387 0c3.3773 0 6.1162 2.6491 6.1162 5.9153 0 3.2662-2.7389 5.9151-6.1162 5.9151-3.3773 0-6.1161-2.649-6.1161-5.9151 0-3.2663 2.7388-5.9153 6.1161-5.9153zm-9.5089 18.393c3.3773 0 6.1161 2.6489 6.1161 5.9151s-2.7388 5.9151-6.1161 5.9151c-3.3773 0-6.1158-2.6489-6.1158-5.9151s2.7385-5.9151 6.1158-5.9151zm29.896-18.393c3.3773 0 6.1161 2.6491 6.1161 5.9153 0 3.2662-2.7388 5.9151-6.1161 5.9151-3.3773 0-6.1161-2.649-6.1161-5.9151 0-3.2663 2.7388-5.9153 6.1161-5.9153zm-9.5086 18.393c3.377 0 6.1158 2.6489 6.1158 5.9151s-2.7388 5.9151-6.1158 5.9151c-3.3773 0-6.1161-2.6489-6.1161-5.9151s2.7388-5.9151 6.1161-5.9151zm29.896-18.393c3.3773 0 6.1161 2.6491 6.1161 5.9153 0 3.2662-2.7388 5.9151-6.1161 5.9151-3.3773 0-6.1162-2.649-6.1162-5.9151 0-3.2663 2.7389-5.9153 6.1162-5.9153zm-9.5086 18.393c3.3769 0 6.1158 2.6489 6.1158 5.9151s-2.7389 5.9151-6.1158 5.9151c-3.3773 0-6.1161-2.6489-6.1161-5.9151s2.7388-5.9151 6.1161-5.9151zm29.896-18.393c3.3773 0 6.1161 2.6491 6.1161 5.9153 0 3.2662-2.7388 5.9151-6.1161 5.9151-3.3773 0-6.1158-2.649-6.1158-5.9151 0-3.2663 2.7385-5.9153 6.1158-5.9153zm-9.5086 18.393c3.3769 0 6.1162 2.6489 6.1162 5.9151s-2.7393 5.9151-6.1162 5.9151c-3.3773 0-6.1165-2.6489-6.1165-5.9151s2.7392-5.9151 6.1165-5.9151z" fill="#333" fill-rule="evenodd" stroke="#000" stroke-linecap="round" stroke-linejoin="round" stroke-miterlimit="2.6131" stroke-width="3.5432"/>
<path d="m1253.8 2651.5h81.148v14.122h-81.148v-14.122z" fill="#4c4c4c" fill-rule="evenodd" stroke="#000" stroke-linecap="round" stroke-linejoin="round" stroke-miterlimit="2.6131" stroke-width="3.5432"/>
<path d="m1253.8 2642.7h21.639v8.826h-21.639v-8.826z" fill="#4c4c4c" fill-rule="evenodd" stroke="#000" stroke-linecap="round" stroke-linejoin="round" stroke-miterlimit="2.6131" stroke-width="3.5432"/>
<path d="m953.34 2641.8h98.79v10.057h-98.79v-10.057z" fill="#4c4c4c" fill-rule="evenodd" stroke="#000" stroke-linecap="round" stroke-linejoin="round" stroke-miterlimit="2.6131" stroke-width="3.5432"/>
<path d="m920.94 2652.6h139.1v11.604h-139.1v-11.604z" fill="#4c4c4c" fill-rule="evenodd" stroke="#000" stroke-linecap="round" stroke-linejoin="round" stroke-miterlimit="2.6131" stroke-width="3.5432"/>
<path d="m926.48 2641.8h15.016v10.057h-15.016v-10.057z" fill="#4c4c4c" fill-rule="evenodd" stroke="#000" stroke-linecap="round" stroke-linejoin="round" stroke-miterlimit="2.6131" stroke-width="3.5432"/>
<path d="m641.17 2682h50.581 69.548 24.5v43.323h-24.5v6.9626h-62.176l-44.234 44.484h-13.719v-44.484-6.9626-43.323zm18.968 9.2837c3.9276 0 7.1129 3.1179 7.1129 6.9626s-3.1852 6.9627-7.1129 6.9627c-3.9276 0-7.1128-3.118-7.1128-6.9627s3.1852-6.9626 7.1128-6.9626zm24.894 0c3.9276 0 7.113 3.1179 7.113 6.9626s-3.1854 6.9627-7.113 6.9627c-3.9276 0-7.1129-3.118-7.1129-6.9627s3.1852-6.9626 7.1129-6.9626zm24.894 0c3.9278 0 7.113 3.1179 7.113 6.9626s-3.1852 6.9627-7.113 6.9627c-3.9276 0-7.1128-3.118-7.1128-6.9627s3.1852-6.9626 7.1128-6.9626zm24.894 0c3.9276 0 7.1129 3.1179 7.1129 6.9626s-3.1852 6.9627-7.1129 6.9627c-3.9276 0-7.113-3.118-7.113-6.9627s3.1854-6.9626 7.113-6.9626zm24.894 0c3.9276 0 7.1128 3.1179 7.1128 6.9626s-3.1852 6.9627-7.1128 6.9627c-3.9276 0-7.1129-3.118-7.1129-6.9627s3.1852-6.9626 7.1129-6.9626z" fill="#4c4c4c" fill-rule="evenodd" stroke="#000" stroke-linecap="round" stroke-linejoin="round" stroke-miterlimit="2.6131" stroke-width="3.5432"/>
<path d="m631.69 2678.4h9.4838v100.57h-9.4838v-100.57z" fill="#4c4c4c" fill-rule="evenodd" stroke="#000" stroke-linecap="round" stroke-linejoin="round" stroke-miterlimit="2.6131" stroke-width="3.5432"/>
<path d="m689.38 2734.6l7.9031 7.7364-29.242 29.398-9.4839-6.9627 30.823-30.172z" fill="#4c4c4c" fill-rule="evenodd" stroke="#000" stroke-linecap="round" stroke-linejoin="round" stroke-miterlimit="2.6131" stroke-width="3.5432"/>
<path d="m655.4 2712.2h30.823c2.6084 0 4.7419 2.0884 4.7419 4.6418v0c0 2.5532-2.1336 4.6418-4.7419 4.6418h-30.823c-2.6084 0-4.742-2.0886-4.742-4.6418v0c0-2.5533 2.1336-4.6418 4.742-4.6418z" fill="#666" fill-rule="evenodd" stroke="#000" stroke-linecap="round" stroke-linejoin="round" stroke-miterlimit="2.6131" stroke-width="3.5432"/>
<path d="m1696.1 948.73h308.93v12.964h-308.93v-12.964z" fill="#666" fill-rule="evenodd" stroke="#000" stroke-linecap="round" stroke-linejoin="round" stroke-miterlimit="2.6131" stroke-width="3.5432"/>
<path d="m1710.5 952.9h287.08v2.887h-287.08v-2.887z" fill="#808080" fill-rule="evenodd"/>
<path d="m1603.4 929.48l222.67-1.1013c16.875 0.31386 15.75 17.148 0 20.766-36.306-11.368-70.174-9.6117-100.48 11.326l-122.19 1.1013v-32.092z" fill="#963" fill-rule="evenodd" stroke="#000" stroke-linecap="round" stroke-linejoin="round" stroke-miterlimit="2.6131" stroke-width="3.5432"/>
<path d="m1622.7 892.55h426.39v45.36h-426.39v-45.36z" fill="#ccc" fill-rule="evenodd" stroke="#000" stroke-linecap="round" stroke-linejoin="round" stroke-miterlimit="2.6131" stroke-width="3.5432"/>
<path d="m1634.2 898.86h407.77v10.101h-407.77v-10.101z" fill="#fff" fill-rule="evenodd"/>
<path d="m1622.7 906.25h426.39v17.954h-426.39v-17.954z" fill="#ccc" fill-rule="evenodd" stroke="#000" stroke-linecap="round" stroke-linejoin="round" stroke-miterlimit="2.6131" stroke-width="3.5432"/>
<path d="m2047.4 892.55l43.999-17.245v79.014l-43.999-16.409v-45.36z" fill="#ccc" fill-rule="evenodd" stroke="#000" stroke-linecap="round" stroke-linejoin="round" stroke-miterlimit="2.6131" stroke-width="3.5432"/>
<path d="m1634.2 908.75h407.77v6.3643h-407.77v-6.3643z" fill="#fff" fill-rule="evenodd"/>
<path d="m2052.1 895.1l34.657-12.895v14.28l-34.657 12.477v-13.862z" fill="#fff" fill-rule="evenodd"/>
<path d="m2002.2 891.62h11.849v46.799h-11.849v-46.799z" fill="#ccc" fill-rule="evenodd" stroke="#000" stroke-linecap="round" stroke-linejoin="round" stroke-miterlimit="2.6131" stroke-width="3.5432"/>
<path d="m2005.6 896.44h5.0833v14.4h-5.0833v-14.4z" fill="#fff" fill-rule="evenodd"/>
<path d="m1513.5 957.49l5.7287 6.5669c19.287-1.675 34.675-5.7524 51.212-16.249 14.941-9.4833 24.92-22.632 67.625-26.791l-0.041613 49.144c-84.969 6.4856-136.75 92.004-266.39 89.375-4.2818-23.035-5.8352-78.003 0.48927-97.091l141.38-4.955h3.12e-4z" fill="#963" fill-rule="evenodd" stroke="#000" stroke-linecap="round" stroke-linejoin="round" stroke-miterlimit="2.6131" stroke-width="3.5432"/>
<path d="m1519.5 968c17.405-1.4952 34.687-9.7006 50.171-14.979 14.94-6.7874 28.708-23.92 57.867-27.122-0.69452 5.9582-0.69452 13.406-1.3889 19.364-20.311-2.855-45.657 10.489-55.783 14.461-18.046 7.0429-34.126 13.888-52.169 15.823l-0.28567 0.41315-8.0152-7.2993-131.24 13.876c-2.2361 0.24278-1.4616-13.501-0.76714-13.501l132.06-6.3956 9.5468 5.3591z" fill="#c93" fill-rule="evenodd"/>
<path d="m1612.6 974.04h8.2771c-4.2458 5.4046-4.0058 13.957 5.1695 19.093-2.044 0.62598-1.8581 1.5249-3.9015 2.1513-12.145-4.2583-9.3589-13.78-9.545-21.244z" fill="#b3b3b3" fill-rule="evenodd" stroke="#000" stroke-linecap="round" stroke-linejoin="round" stroke-miterlimit="2.6131" stroke-width="3.5432"/>
<path d="m1682.2 980.18c-0.87575 36.857-75.747 35.816-81.952 15.029-0.23855-7.5144-0.47741-15.029-0.71658-22.543v-12.72h102.25c0.16936 15.617-8.5468 19.474-19.583 20.234zm-75.661-6.0664c11.811 0.31253 55.809 0.62609 67.62 0.93933 4.6509 32.466-53.075 33.467-65.679 21.417-5.4385-5.1997-1.508-16.502-1.9404-22.356z" fill="#b3b3b3" fill-rule="evenodd" stroke="#000" stroke-linecap="round" stroke-linejoin="round" stroke-miterlimit="2.6131" stroke-width="3.5432"/>
<path d="m1687.7 965.08c2.4896 0 4.5085 1.9762 4.5085 4.4134s-2.0189 4.4134-4.5085 4.4134c-2.4898 0-4.5087-1.9762-4.5087-4.4134s2.0189-4.4134 4.5087-4.4134z" fill="#ccc" fill-rule="evenodd" stroke="#000" stroke-linecap="round" stroke-linejoin="round" stroke-miterlimit="2.6131" stroke-width="3.5432"/>
<path d="m1626.3 929.68c30.009 12.019 75.342 4.045 75.342 15.843 0 11.798-24.125 7.102-55.251 7.102-31.126 0-59.716 3.6034-59.716-2.7314 0-6.3349 9.6151-32.232 39.624-20.213z" fill="#b3b3b3" fill-rule="evenodd" stroke="#000" stroke-linecap="round" stroke-linejoin="round" stroke-miterlimit="2.6131" stroke-width="3.5432"/>
<path d="m1603.4 904.55c11.711 0 21.208 9.2962 21.208 20.76 0 11.463-9.4967 20.76-21.208 20.76-11.711 0-21.207-9.2962-21.207-20.76 0-11.463 9.4967-20.76 21.207-20.76z" fill="#ccc" fill-rule="evenodd" stroke="#000" stroke-linecap="round" stroke-linejoin="round" stroke-miterlimit="2.6131" stroke-width="3.5432"/>
<path d="m1603.4 912.2c1.6486 0 3.2274 0.29247 4.686 0.82609 3.833-5.7383 7.6659-11.477 11.499-17.215-5.2089-4.3704-13.905-6.6109-15.627-13.111-1.5452-5.8354 5.2086-10.926 7.8133-16.389-1.4884-5.0987-2.9766-10.198-4.4647-15.297 5.2085 4.7349 10.418 9.4695 15.626 14.204-0.74415 6.5557-4.837 8.741-5.5808 15.297 11.906 5.8274 29.393 8.3767 40.183 25.13-2.6047 5.463-8.5576 8.7408-13.394 8.7408-1.8603-4.3704-7.0694-7.6483-11.162-8.7408-4.0928 6.2596-8.1856 12.519-12.278 18.779-4.1868 6.4053-8.1617 13.999-17.301 13.999-7.3963 0-13.394-5.8711-13.394-13.111 0-7.2401 5.9977-13.111 13.394-13.111z" fill="#ccc" fill-rule="evenodd" stroke="#000" stroke-linecap="round" stroke-linejoin="round" stroke-miterlimit="2.6131" stroke-width="3.5432"/>
<path d="m1601.8 916.02c2.9276 0 5.3018 2.3241 5.3018 5.19 0 2.8658-2.3742 5.1898-5.3018 5.1898-2.9275 0-5.3018-2.324-5.3018-5.1898 0-2.8659 2.3743-5.19 5.3018-5.19" fill="#fff" fill-rule="evenodd"/>
<path d="m1603.4 920.89c2.4897 0 4.5087 1.9762 4.5087 4.4133 0 2.4371-2.019 4.4135-4.5087 4.4135-2.4896 0-4.5085-1.9763-4.5085-4.4135 0-2.437 2.0189-4.4133 4.5085-4.4133z" fill="#ccc" fill-rule="evenodd" stroke="#000" stroke-linecap="round" stroke-linejoin="round" stroke-miterlimit="2.6131" stroke-width="3.5432"/>
<path d="m1720.1 887.03h-16.336v52.805h16.336v-52.805z" fill="#ccc" fill-rule="evenodd" stroke="#000" stroke-linecap="round" stroke-linejoin="round" stroke-miterlimit="2.6131" stroke-width="3.5432"/>
<path d="m1748 887.03h-16.336v52.805h16.336v-52.805z" fill="#ccc" fill-rule="evenodd" stroke="#000" stroke-linecap="round" stroke-linejoin="round" stroke-miterlimit="2.6131" stroke-width="3.5432"/>
<path d="m1838.7 887.03h-16.336v52.805h16.336v-52.805z" fill="#ccc" fill-rule="evenodd" stroke="#000" stroke-linecap="round" stroke-linejoin="round" stroke-miterlimit="2.6131" stroke-width="3.5432"/>
<path d="m1706.1 917.69h11.655v6.3901h-11.655v-6.3901z" fill="#fff" fill-rule="evenodd"/>
<path d="m1734 917.69h11.655v6.3901h-11.655v-6.3901z" fill="#fff" fill-rule="evenodd"/>
<path d="m1824.7 917.69h11.655v6.3901h-11.655v-6.3901z" fill="#fff" fill-rule="evenodd"/>
<path d="m1706.1 893.27h11.655v6.39h-11.655v-6.39z" fill="#fff" fill-rule="evenodd"/>
<path d="m1734 893.27h11.655v6.39h-11.655v-6.39z" fill="#fff" fill-rule="evenodd"/>
<path d="m1824.7 893.27h11.655v6.39h-11.655v-6.39z" fill="#fff" fill-rule="evenodd"/>
<path d="m2031.3 942.37c1.0295-0.3381 1.7775 23.812 0 24.112-6.0999 0-20.187-5.3988-20.187-12.056s14.087-12.056 20.187-12.056z" fill="#666" fill-rule="evenodd" stroke="#000" stroke-linecap="round" stroke-linejoin="round" stroke-miterlimit="2.6131" stroke-width="3.5432"/>
<path d="m2004 946.55h12.028v17.324h-12.028v-17.324z" fill="#666" fill-rule="evenodd" stroke="#000" stroke-linecap="round" stroke-linejoin="round" stroke-miterlimit="2.6131" stroke-width="3.5432"/>
<path d="m2006.6 951.26h6.7612v3.8576h-6.7612v-3.8576z" fill="#808080" fill-rule="evenodd"/>
<path d="m1629 937.64c2.4896 0 4.5085 1.9763 4.5085 4.4134 0 2.4371-2.0189 4.4134-4.5085 4.4134-2.4898 0-4.5087-1.9762-4.5087-4.4134 0-2.437 2.0189-4.4134 4.5087-4.4134z" fill="#ccc" fill-rule="evenodd" stroke="#000" stroke-linecap="round" stroke-linejoin="round" stroke-miterlimit="2.6131" stroke-width="3.5432"/>
<path d="m1658.8 919.64c2.4896 0 4.5086 1.9763 4.5086 4.4134s-2.019 4.4135-4.5086 4.4135c-2.4897 0-4.5087-1.9764-4.5087-4.4135s2.019-4.4134 4.5087-4.4134z" fill="#ccc" fill-rule="evenodd" stroke="#000" stroke-linecap="round" stroke-linejoin="round" stroke-miterlimit="2.6131" stroke-width="3.5432"/>
<path d="m1399 1003.1c0.46118-1.9384 2.4406-3.1436 4.4209-2.6921 1.9803 0.45134 3.2114 2.3891 2.7503 4.3275-0.68339 2.8368-0.36193 4.4314 0.45566 5.105 0.35122 0.28942 0.86555 0.45785 1.4675 0.51824 0.78285 0.078414 1.672-0.040734 2.5707-0.32883 2.3606-0.75766 4.5311-2.6127 4.8073-5.0738 0.48178-4.2925 0.5754-8.7256-0.96844-11.775-1.3181-2.6046-4.2244-4.3481-9.9469-4.2055-7.3955 0.18463-9.7791 13.706-10.526 17.998l-0.010403 0.051936h7.28e-4l0.010403-0.051936c0.071783-0.38311-0.038492 0.23565-0.010403 0.066193v-4.07e-4l-0.022887 0.11966-0.11776 0.63841c-0.5212 2.8397-0.69442 5.542-0.55834 8.0538 0.24552 4.525 1.5158 8.3504 3.572 11.16 1.8995 2.5952 4.4922 4.3088 7.5563 4.8475 0.9337 0.16385 1.9371 0.22231 3.0035 0.16701 10.834-0.56325 19.315-12.609 26.288-22.516 1.9794-2.812 3.8466-5.4645 5.7449-7.8193 3.37-4.181 6.5094-7.6588 10.494-10.606 4.0365-2.9855 8.8558-5.3754 15.508-7.312 8.0178-2.335 13.002-1.5977 16.38 0.81815 3.4484 2.4662 4.7138 6.2326 5.7216 10.231 0.060339 0.23891 0.11579 0.5214 0.16666 0.8433v0.015275h0.011444c0.57384 3.6478-1.0421 6.9656-3.5705 9.5167-2.2604 2.2809-5.3504 3.9751-8.1196 4.644-0.43236 0.10438-0.80469 0.18076-1.1074 0.22618-2.7424 0.41437-5.5429-0.53474-7.8423-2.1046-2.4645-1.683-4.4696-4.2276-5.1621-6.5478-0.70524-2.362-0.35985-4.3549 0.62035-5.9751 0.59091-0.9763 1.3886-1.761 2.3072-2.3684 0.79731-0.52731 1.7159-0.92559 2.6765-1.2001 2.5683-0.73434 5.6212-0.46121 7.4524 0.60042 1.7495 1.0117 2.3297 3.2209 1.2961 4.9333-1.0337 1.7125-3.2902 2.2805-5.0398 1.2688-0.24926-0.1444-0.92672-0.10693-1.6643 0.10438-0.21639 0.061101-0.42393 0.15153-0.60277 0.26986-0.057218 0.037679-0.088428 0.054991-0.089468 0.057028 0 0 0.03225 0.083505 0.098831 0.30917 0.24697 0.82813 1.1451 1.8609 2.3113 2.6573 0.86951 0.59391 1.7956 0.97274 2.5151 0.86418 0.21275-0.031569 0.37088-0.061101 0.47335-0.085542 1.5433-0.37272 3.2943-1.3463 4.6066-2.6701 1.0444-1.0538 1.7343-2.2809 1.5541-3.4281h0.011444c-0.010403-0.037679-0.023928-0.1056-0.048895-0.20673-0.66467-2.6372-1.4144-5.0614-2.9276-6.1436-1.5833-1.1319-4.5116-1.3052-9.959 0.28117-5.706 1.6611-9.7851 3.6704-13.146 6.1565-3.4131 2.5247-6.1755 5.5945-9.1695 9.3088-1.6596 2.059-3.5027 4.6772-5.4566 7.4528-7.8992 11.221-17.505 24.865-31.962 25.617-1.6017 0.082487-3.1638-0.014257-4.6742-0.27964-5.0433-0.88689-9.2438-3.6156-12.25-7.7233-2.8503-3.8941-4.6023-9.0385-4.9256-14.993-0.16354-3.0172 0.045774-6.2677 0.67351-9.6892l0.083226-0.45449 0.010403-0.066193c-0.018726 0.085542-0.037452 0.17282 0.023928-0.18076v2.04e-4c0.98092-5.6372 4.1371-23.704 17.618-24.04 9.1927-0.22944 14.161 3.1634 16.714 8.2087 2.3283 4.5989 2.2939 10.331 1.6888 15.722-0.62607 5.5776-5.0594 9.6252-9.847 11.162-1.8387 0.59004-3.7695 0.82171-5.5949 0.63902-2.0062-0.20062-3.8923-0.90532-5.4413-2.1816-2.8394-2.3399-4.3264-6.3318-2.9039-12.237l2.08e-4 -0.003462zm-4.979 3.9248h8.32e-4v0.014257l-6.24e-4 -4.07e-4v-0.014257l-2.08e-4 4.07e-4zm55.093-0.044808c-0.15896-1.9849 1.3562-3.7206 3.3839-3.8761 2.0279-0.1556 3.8008 1.3275 3.9598 3.3124 0.13264 1.6256 1.2138 3.1675 2.9264 4.5051 2.0301 1.5855 4.8554 2.8379 8.1072 3.6397 3.3769 0.8321 7.1629 1.1604 10.972 0.86204 6.9392-0.5438 13.879-3.1746 18.343-8.6489 0.96324-1.1856 2.5357-1.6179 3.9331-1.2098 2.9604 0.62018 4.9307-3.5178 7.2434-8.3779 4.3453-9.1298 9.5193-19.995 25.027-18.862 3.7927-4.9657 7.2371-8.2314 11.067-10.677 4.231-2.7012 8.7304-4.2755 14.586-5.9743 3.2837-0.95227 6.2549-0.94035 8.7202-0.25113 3.0466 0.85237 5.3431 2.7261 6.6177 5.1552 3.9582 7.5437-0.60121 11.454-7.6846 15.015-1.3709 0.68912-2.789 1.338-4.2523 2.0073-6.0011 2.7453-12.894 5.8989-14.85 11.304-0.67569 1.876-2.7776 2.8604-4.6941 2.1989s-2.9221-2.7189-2.2464-4.5948c2.9796-8.2371 11.372-12.077 18.68-15.42 1.4291-0.65358 2.8137-1.2871 4.0224-1.8949 3.3191-1.6688 5.5845-3.2564 4.4879-5.3465-0.3483-0.66417-1.073-1.2044-2.0963-1.4906-1.2122-0.33881-2.7784-0.31437-4.6314 0.22302-5.227 1.5165-9.1871 2.886-12.656 5.1004-3.4207 2.1845-6.5651 5.3194-10.274 10.42-0.75486 1.1255-2.1273 1.7886-3.5804 1.592-11.863-1.6374-16.061 7.1835-19.562 14.539-3.399 7.1424-6.3342 13.307-13.556 12.675-5.837 6.1006-13.995 9.0726-22.068 9.7051-4.6052 0.3608-9.2069-0.041753-13.333-1.0591-4.2516-1.0483-8.0477-2.765-10.9-4.9936-3.2859-2.5667-5.3837-5.8184-5.6911-9.5791z" fill="#ccc" stroke="#000" stroke-linecap="round" stroke-linejoin="round" stroke-miterlimit="2.6131" stroke-width="3.5432"/>
<path d="m1472.7 991.93c2.4896 0 4.5085 1.9763 4.5085 4.4135 0 2.437-2.0189 4.4134-4.5085 4.4134-2.4898 0-4.5087-1.9763-4.5087-4.4134 0-2.4371 2.0189-4.4135 4.5087-4.4135z" fill="#ccc" fill-rule="evenodd" stroke="#000" stroke-linecap="round" stroke-linejoin="round" stroke-miterlimit="2.6131" stroke-width="3.5432"/>
<path d="m1460.6 1022.4c2.4896 0 4.5087 1.9762 4.5087 4.4133s-2.0191 4.4135-4.5087 4.4135-4.5086-1.9764-4.5086-4.4135 2.019-4.4133 4.5086-4.4133z" fill="#ccc" fill-rule="evenodd" stroke="#000" stroke-linecap="round" stroke-linejoin="round" stroke-miterlimit="2.6131" stroke-width="3.5432"/>
<path d="m1489.9 966.89c2.4896 0 4.5085 1.9764 4.5085 4.4135s-2.0189 4.4133-4.5085 4.4133c-2.4898 0-4.5087-1.9762-4.5087-4.4133s2.0189-4.4135 4.5087-4.4135z" fill="#ccc" fill-rule="evenodd" stroke="#000" stroke-linecap="round" stroke-linejoin="round" stroke-miterlimit="2.6131" stroke-width="3.5432"/>
<path d="m1380.2 999.67c2.4897 0 4.5086 1.9763 4.5086 4.4135 0 2.437-2.0189 4.4134-4.5086 4.4134s-4.5086-1.9763-4.5086-4.4134c0-2.4371 2.0189-4.4135 4.5086-4.4135z" fill="#ccc" fill-rule="evenodd" stroke="#000" stroke-linecap="round" stroke-linejoin="round" stroke-miterlimit="2.6131" stroke-width="3.5432"/>
<path d="m1401.1 1038.8c2.4896 0 4.5085 1.9764 4.5085 4.4135s-2.0189 4.4133-4.5085 4.4133c-2.4897 0-4.5087-1.9762-4.5087-4.4133s2.019-4.4135 4.5087-4.4135z" fill="#ccc" fill-rule="evenodd" stroke="#000" stroke-linecap="round" stroke-linejoin="round" stroke-miterlimit="2.6131" stroke-width="3.5432"/>
<path d="m1449 1013.8c2.4896 0 4.9738 4.7087 4.9738 7.1457s-2.9493 13.976-15.673 15.798c0.76672-3.1878 5.2605-9.2624 3.8649-15.798s4.3449-7.1457 6.8346-7.1457z" fill="#ccc" fill-rule="evenodd" stroke="#000" stroke-linecap="round" stroke-linejoin="round" stroke-miterlimit="2.6131" stroke-width="3.5432"/>
<path d="m1387.4 999.45c-2.3028 0.92691-6.4294-2.5031-7.3761-4.7573-0.94701-2.2537-2.7016-14.024 8.3589-20.445 0.52922 3.2338-1.2674 10.525 2.5621 16.05 3.8297 5.5248-1.2425 8.226-3.5449 9.1526z" fill="#ccc" fill-rule="evenodd" stroke="#000" stroke-linecap="round" stroke-linejoin="round" stroke-miterlimit="2.6131" stroke-width="3.5432"/>
<path d="m1399 1002.4c-1.6655-1.5029-0.57728-5.6579 1.7517-7.9471 2.3289-2.2892 8.427-2.2895 14.408-6.3777-0.23886 4.877-0.23282 9.5401-3.4162 14.755-3.1838 5.2145-11.077 1.0728-12.743-0.43005z" fill="#ccc" fill-rule="evenodd" stroke="#000" stroke-linecap="round" stroke-linejoin="round" stroke-miterlimit="2.6131" stroke-width="3.5432"/>
<path d="m1394 1028.8c2.2626-0.10306 4.5177 3.5742 4.5451 6.8047 0.027049 3.2306-4.2575 7.4776-5.4888 14.516-3.3773-3.5935-6.7705-6.8662-8.3235-12.748-1.553-5.8813 7.0045-8.4689 9.2671-8.5728z" fill="#ccc" fill-rule="evenodd" stroke="#000" stroke-linecap="round" stroke-linejoin="round" stroke-miterlimit="2.6131" stroke-width="3.5432"/>
<path d="m1448.9 1008.7c-1.5145 1.6489-5.7721 0.63505-8.1393-1.6159-2.3673-2.2512-2.4432-8.2198-6.6935-14.024 4.9848 0.17363 9.7481 0.10947 15.114 3.1614 5.3664 3.0511 1.2334 10.829-0.2813 12.478z" fill="#ccc" fill-rule="evenodd" stroke="#000" stroke-linecap="round" stroke-linejoin="round" stroke-miterlimit="2.6131" stroke-width="3.5432"/>
<path d="m1575.3 966.56c-1.5302-4.2337 1.3642-5.527 4.3346-6.9346 2.9707-1.4077 8.7263 0.56325 15.751-1.3621-1.8711 4.5262-3.4384 8.9296-8.2029 12.822-4.7641 3.8931-10.353-0.29166-11.883-4.5256z" fill="#ccc" fill-rule="evenodd" stroke="#000" stroke-linecap="round" stroke-linejoin="round" stroke-miterlimit="2.6131" stroke-width="3.5432"/>
<path d="m1518.8 997.88c-1.3223-2.0651 1.4346-6.6262 3.5443-7.9201 2.1096-1.2943 13.665-4.9752 21.998 4.6122-3.1669 1.0564-10.811 0.5545-15.728 5.1827-4.9163 4.6276-8.4925 0.19003-9.8145-1.8749z" fill="#ccc" fill-rule="evenodd" stroke="#000" stroke-linecap="round" stroke-linejoin="round" stroke-miterlimit="2.6131" stroke-width="3.5432"/>
<path d="m1488.3 976.87c1.8559-1.6245 6.9138 0.26518 8.573 2.0824 1.6595 1.8168 7.3171 12.344-0.92891 22.003-1.5988-2.8767-2.3843-10.337-7.8746-14.299-5.4901-3.9619-1.626-8.162 0.23043-9.7862z" fill="#ccc" fill-rule="evenodd" stroke="#000" stroke-linecap="round" stroke-linejoin="round" stroke-miterlimit="2.6131" stroke-width="3.5432"/>
<path d="m1485.3 977.24c1.1756-2.1484-1.8917-6.5154-4.0861-7.6659-2.1949-1.1507-13.979-4.0544-21.627 6.0648 3.2325 0.8433 10.825-0.16599 16.051 4.1244 5.2264 4.2899 8.4864-0.37526 9.6619-2.5233z" fill="#ccc" fill-rule="evenodd" stroke="#000" stroke-linecap="round" stroke-linejoin="round" stroke-miterlimit="2.6131" stroke-width="3.5432"/>
<path d="m1571.8 963.7c2.4897 0 4.5087 1.9762 4.5087 4.4135 0 2.437-2.019 4.4133-4.5087 4.4133-2.4896 0-4.5086-1.9762-4.5086-4.4133 0-2.4372 2.019-4.4135 4.5086-4.4135z" fill="#ccc" fill-rule="evenodd" stroke="#000" stroke-linecap="round" stroke-linejoin="round" stroke-miterlimit="2.6131" stroke-width="3.5432"/>
</g>
</svg>
