<?xml version="1.0" encoding="UTF-8"?>
<svg viewBox="0 0 1200 1200" xmlns="http://www.w3.org/2000/svg" xmlns:xlink="http://www.w3.org/1999/xlink">
<defs>
<clipPath id="a">
<path d="m703.18 1427.8h121.47v-44.042h-121.47v44.042z" clip-rule="evenodd"/>
</clipPath>
</defs>
<metadata>image/svg+xml</metadata>
<g>
<title>background</title>
<rect x="-1" y="-1" width="1202" height="1202" fill="none"/>
</g>
<g>
<title>Layer 1</title>
<g fill-rule="evenodd">
<path d="m1720.5 713.48h541.25v14.371h-541.25v-14.371z" fill="#808080" stroke="#000" stroke-linecap="round" stroke-linejoin="round" stroke-miterlimit="2.6131" stroke-width="3.5432"/>
<path d="m1726.6 716.25h526.08v4.422h-526.08v-4.422z" fill="#b3b3b3"/>
<path d="m1646 772.24l49.176-17.902c7.8018-2.8401 17.24 2.8802 20.975 12.712v0c3.7352 9.8313 0.40802 20.199-7.3935 23.038l-49.176 17.901c-7.8014 2.8398-17.24-2.8801-20.975-12.712v0c-0.43787-1.1521-0.77848-2.3122-1.0266-3.4655-0.41322-1.9228-10.709-2.2638-10.627-4.0946 0.14596-3.2234 11.174-7.7815 12.692-10.208 1.5191-2.4274 3.6726-4.2937 6.3543-5.2696zm6.8028 6.4426l41.524-15.116c4.8762-1.775 10.349 0.67833 12.163 5.4516l1.034 2.7211c1.8131 4.7731-0.69307 10.131-5.5688 11.906l-41.524 15.116c-4.8756 1.775-10.349-0.67792-12.163-5.4515l-1.034-2.7211c-1.8132-4.7735 0.69265-10.131 5.5688-11.906z" fill="#666" stroke="#000" stroke-linecap="round" stroke-linejoin="round" stroke-miterlimit="2.6131" stroke-width="3.5432"/>
<path d="m1693.9 687.82c12.62 2.7846 8.6342 19.652-0.013524 28l2.8341 7.9015c2.5533-0.86316 12.45-11.75 15.003-12.613 1.048-1.7534 0.09467-0.020367 1.1438-1.7736-0.10923-10.257 4.154-10.592-7.7907-24.121-5.3347-6.0418-10.187-4.0646-11.179 2.6052h0.001665z" fill="#b3b3b3" stroke="#000" stroke-linecap="round" stroke-linejoin="round" stroke-miterlimit="2.6131" stroke-width="3.5432"/>
<path d="m1719.3 695.67c-11.92 11.668-20.798 28.934-36.471 35.004-21.777 8.4341-39.292 7.5804-62.624 9.5665v49.154c22.825-12.164 35.435-29.424 61.102-33.399 14.012-2.1696 25.484 5.3555 37.91 12.058l0.082186-72.384h4.16e-4z" fill="#808080" stroke="#000" stroke-linecap="round" stroke-linejoin="round" stroke-miterlimit="2.6131" stroke-width="3.5432"/>
<path d="m2232.1 679.22h4.1639c5.7497 10.34 18.797 3.4626 18.797 7.6886v7.6891h-22.961v-15.378z" fill="#666" stroke="#000" stroke-linecap="round" stroke-linejoin="round" stroke-miterlimit="2.6131" stroke-width="3.5432"/>
<path d="m1913.2 682.18c5.7497 10.34 11.424 3.4626 11.424 7.6888v7.6889h-29.492v-7.6889c0-4.2262 5.6746 2.6516 11.424-7.6888h6.6441z" fill="#666" stroke="#000" stroke-linecap="round" stroke-linejoin="round" stroke-miterlimit="2.6131" stroke-width="3.5432"/>
<path d="m1728.8 752.73h8.1036c-0.39397 5.0904 2.0817 9.0563 7.4285 11.899-1.5758 0.44054-3.1517 0.88108-4.727 1.322-9.3649-2.9967-10.662-7.9679-10.805-13.221z" fill="#666" stroke="#000" stroke-linecap="round" stroke-linejoin="round" stroke-miterlimit="2.6131" stroke-width="3.5432"/>
<path d="m1719 712.34h249.97v20.766l-116.09 11.326h-133.88v-32.092z" fill="#630" stroke="#000" stroke-linecap="round" stroke-linejoin="round" stroke-miterlimit="2.6131" stroke-width="3.5432"/>
<path d="m1720.5 695.78h541.25v17.639h-541.25v-17.639z" fill="#808080" stroke="#000" stroke-linecap="round" stroke-linejoin="round" stroke-miterlimit="2.6131" stroke-width="3.5432"/>
<path d="m1726.6 699.17h526.08v5.4269h-526.08v-5.4269z" fill="#b3b3b3"/>
<path d="m1790.7 749.78c-2.7619 2.424-5.5235 4.8475-8.2852 7.2716-0.67528 25.938-58.407 25.205-63.192 10.577-0.18383-5.2884-0.36828-10.577-0.55252-15.865v-8.9516h78.844l-6.8147 6.9685zm-66.626 3.0021c9.1074 0.22007 43.033 0.44054 52.141 0.66102-2.3405 20.27-42.527 19.7-48.923 12.765-3.7279-4.0425-2.8841-9.3068-3.2176-13.426z" fill="#666" stroke="#000" stroke-linecap="round" stroke-linejoin="round" stroke-miterlimit="2.6131" stroke-width="3.5432"/>
<path d="m1959.2 711.46h11.849v21.867h-11.849v-21.867z" fill="#666" stroke="#000" stroke-linecap="round" stroke-linejoin="round" stroke-miterlimit="2.6131" stroke-width="3.5432"/>
<path d="m2166.4 713.6h11.849v17.59h-11.849v-17.59z" fill="#666" stroke="#000" stroke-linecap="round" stroke-linejoin="round" stroke-miterlimit="2.6131" stroke-width="3.5432"/>
<path d="m1962.5 715.67h5.0833v6.7282h-5.0833v-6.7282z" fill="#999"/>
<path d="m2169.8 716.98h5.0833v5.4123h-5.0833v-5.4123z" fill="#999"/>
<path d="m1620.5 740.36v49.154l-218.08 66.375c7.9375-25.095 14.212-57.743-2.5435-87.484l220.63-28.046z" fill="#630" stroke="#000" stroke-linecap="round" stroke-linejoin="round" stroke-miterlimit="2.6131" stroke-width="3.5432"/>
<path d="m1416.2 774.17l200.49-29.345-0.7609 6.7028-198.89 36.143c-2.4221 0.43993-1.6013-13.501-0.84048-13.501" fill="#963"/>
<path d="m1624.3 744.82c19.562-1.1763 40.426-3.5243 57.823-8.9372 16.369-6.7874 24.48-17.775 32.716-30.535-0.7609 5.9581-0.7609 13.406-1.5216 19.364-10.398 6.703-20.035 11.172-30.433 17.874-19.782 7.0461-38.803 7.7504-58.584 9.682 0.50716-2.7309-0.50737-4.7169 0-7.4477" fill="#b3b3b3"/>
<path d="m1719 695.67h101.13v48.764h-101.13v-48.764z" fill="#666" stroke="#000" stroke-linecap="round" stroke-linejoin="round" stroke-miterlimit="2.6131" stroke-width="3.5432"/>
<path d="m1765.3 721.45h54.125v16.731h-54.125c-4.7006 0-8.546-3.7643-8.546-8.3657v0c0-4.6012 3.8454-8.3655 8.546-8.3655z" fill="#333" stroke="#000" stroke-linecap="round" stroke-linejoin="round" stroke-miterlimit="2.6131" stroke-width="3.5432"/>
</g>
<path d="m641.85 1393.1h85.355v9.2836h-85.355v-9.2836z" fill="#4c4c4c" fill-rule="evenodd" stroke="#000" stroke-linecap="round" stroke-linejoin="round" stroke-miterlimit="2.6131" stroke-width="3.5432"/>
<path d="m641.85 1413.2h85.355v17.02h-85.355v-17.02z" fill="#4c4c4c" fill-rule="evenodd" stroke="#000" stroke-linecap="round" stroke-linejoin="round" stroke-miterlimit="2.6131" stroke-width="3.5432"/>
<path d="m724.04 1386.1l42.677-10.825v92.576l-42.677-10.825v-70.926z" fill="#4c4c4c" fill-rule="evenodd" stroke="#000" stroke-linecap="round" stroke-linejoin="round" stroke-miterlimit="2.6131" stroke-width="3.5432"/>
<path d="m877.52 1296h-15.84v18.505h15.84v-18.505z" fill="#4c4c4c" fill-rule="evenodd" stroke="#000" stroke-linecap="round" stroke-linejoin="round" stroke-miterlimit="2.6131" stroke-width="3.5432"/>
<path d="m739.72 1451.5l118-7.2171-18.393 50.004h-99.602v-42.786zm43.801 8.0661h58.998l-9.5351 26.251h-46.483l-11.323-14.584 8.3434-11.667z" fill="#4c4c4c" fill-rule="evenodd" stroke="#000" stroke-linecap="round" stroke-linejoin="round" stroke-miterlimit="2.6131" stroke-width="3.5432"/>
<path d="m788.66 1460.7c3.0846-0.43952 6.1691-0.87905 9.2538-1.3185 0.59715 7.1038 4.2399 12.186 10.93 15.247-1.709 0.8656-3.4175 1.7312-5.1261 2.5975-11.31-2.6207-13.814-9.285-15.058-16.527z" fill="#4c4c4c" fill-rule="evenodd" stroke="#000" stroke-linecap="round" stroke-linejoin="round" stroke-miterlimit="2.6131" stroke-width="3.5432"/>
<path d="m863.65 1465.2c13.323-6.4913 32.226-8.204 45.549-14.695 6.5854 37.474 19.739 65.949 47.643 93.036-12.329 8.4475-21.664 17.878-34.988 24.369-29.914-19.599-54.962-57.099-58.205-102.71z" fill="#4c4c4c" fill-rule="evenodd" stroke="#000" stroke-linecap="round" stroke-linejoin="round" stroke-miterlimit="2.6131" stroke-width="3.5432"/>
<path d="m876.25 1479.1c9.1215-4.4441 18.575-3.5687 27.697-8.0127 4.5086 25.655 19.791 52.66 38.894 71.204-8.4406 5.7835-11.345 8.8259-20.466 13.27-20.479-13.418-41.813-43.87-46.125-76.462z" fill="#4c4c4c" fill-rule="evenodd" stroke="#000" stroke-linecap="round" stroke-linejoin="round" stroke-miterlimit="2.6131" stroke-width="3.5432"/>
<path d="m853.43 1439.9l61.894-8.5458 6.2356 43.276-61.894 8.5457-6.2356-43.276z" fill="#4c4c4c" fill-rule="evenodd" stroke="#000" stroke-linecap="round" stroke-linejoin="round" stroke-miterlimit="2.6131" stroke-width="3.5432"/>
<path d="m853.84 1474.1l69.63-9.6141 2.1826 15.147-69.63 9.6142-2.1822-15.147z" fill="#4c4c4c" fill-rule="evenodd" stroke="#000" stroke-linecap="round" stroke-linejoin="round" stroke-miterlimit="2.6131" stroke-width="3.5432"/>
<path d="m761.66 1391.4h475.64v17.639h-475.64v-17.639z" fill="#808080" fill-rule="evenodd" stroke="#000" stroke-linecap="round" stroke-linejoin="round" stroke-miterlimit="2.6131" stroke-width="3.5432"/>
<path d="m761.66 1372.9h245.76v17.639h-245.76v-17.639z" fill="#808080" fill-rule="evenodd" stroke="#000" stroke-linecap="round" stroke-linejoin="round" stroke-miterlimit="2.6131" stroke-width="3.5432"/>
<path d="m1238.7 1421.7h-257.19v33.86h257.19v-33.86z" fill="#4c4c4c" fill-rule="evenodd" stroke="#000" stroke-linecap="round" stroke-linejoin="round" stroke-miterlimit="2.6131" stroke-width="3.5432"/>
<path d="m766.8 1394.8h466.41v5.4269h-466.41v-5.4269z" fill="#b3b3b3" fill-rule="evenodd"/>
<path d="m765.35 1376.3h238.87v5.4269h-238.87v-5.4269z" fill="#b3b3b3" fill-rule="evenodd"/>
<path d="m1234.8 1428.2h-249.98v10.418h249.98v-10.418z" fill="#666" fill-rule="evenodd"/>
<path d="m789.37 1423v-24.646h24.098v24.646c0 6.4868-5.4217 11.794-12.049 11.794v0c-6.6272 0-12.049-5.307-12.049-11.794z" fill="#333" fill-rule="evenodd" stroke="#000" stroke-linecap="round" stroke-linejoin="round" stroke-miterlimit="2.6131" stroke-width="3.5432"/>
<path d="m749.62 1390.4h199.8v42.612l-196.45 26.223-3.3486-68.835z" fill="#666" fill-rule="evenodd" stroke="#000" stroke-linecap="round" stroke-linejoin="round" stroke-miterlimit="2.6131" stroke-width="3.5432"/>
<path d="m744.04 1401.3h199.8v14.204l-196.45 8.741-3.3486-22.945z" fill="#666" fill-rule="evenodd" stroke="#000" stroke-linecap="round" stroke-linejoin="round" stroke-miterlimit="2.6131" stroke-width="3.5432"/>
<path d="m807.38 1311.1h158.59v16.774h-158.59v-16.774z" fill="#4c4c4c" fill-rule="evenodd" stroke="#000" stroke-linecap="round" stroke-linejoin="round" stroke-miterlimit="2.6131" stroke-width="3.5432"/>
<path d="m853.81 1324.5h-15.84v26.381h15.84v-26.381z" fill="#4c4c4c" fill-rule="evenodd" stroke="#000" stroke-linecap="round" stroke-linejoin="round" stroke-miterlimit="2.6131" stroke-width="3.5432"/>
<path d="m901.51 1324.5h-15.84v26.381h15.84v-26.381z" fill="#4c4c4c" fill-rule="evenodd" stroke="#000" stroke-linecap="round" stroke-linejoin="round" stroke-miterlimit="2.6131" stroke-width="3.5432"/>
<path d="m923.74 1310.1l52.837-16.986v52.901l-52.837-16.988v-18.927z" fill="#4c4c4c" fill-rule="evenodd" stroke="#000" stroke-linecap="round" stroke-linejoin="round" stroke-miterlimit="2.6131" stroke-width="3.5432"/>
<path d="m817.31 1308.4l-52.837-3.6082v30.981l52.837-3.6083v-23.764z" fill="#4c4c4c" fill-rule="evenodd" stroke="#000" stroke-linecap="round" stroke-linejoin="round" stroke-miterlimit="2.6131" stroke-width="3.5432"/>
<path d="m1003.7 1293.1h-27.133v52.901h27.133v-52.901z" fill="#4c4c4c" fill-rule="evenodd" stroke="#000" stroke-linecap="round" stroke-linejoin="round" stroke-miterlimit="2.6131" stroke-width="3.5432"/>
<path d="m1003.7 1293.1h12.53v52.901h-12.53v-52.901z" fill="#4c4c4c" fill-rule="evenodd" stroke="#000" stroke-linecap="round" stroke-linejoin="round" stroke-miterlimit="2.6131" stroke-width="3.5432"/>
<path d="m737.34 1304.7h27.133v30.981h-27.133v-30.981z" fill="#4c4c4c" fill-rule="evenodd" stroke="#000" stroke-linecap="round" stroke-linejoin="round" stroke-miterlimit="2.6131" stroke-width="3.5432"/>
<path d="m860.24 1306.3h-28.687v26.381h28.687v-26.381z" fill="#4c4c4c" fill-rule="evenodd" stroke="#000" stroke-linecap="round" stroke-linejoin="round" stroke-miterlimit="2.6131" stroke-width="3.5432"/>
<path d="m907.94 1306.3h-28.687v26.381h28.687v-26.381z" fill="#4c4c4c" fill-rule="evenodd" stroke="#000" stroke-linecap="round" stroke-linejoin="round" stroke-miterlimit="2.6131" stroke-width="3.5432"/>
<path d="m845.89 1315.1c2.4896 0 4.5086 1.9764 4.5086 4.4135s-2.019 4.4134-4.5086 4.4134c-2.4896 0-4.5085-1.9763-4.5085-4.4134s2.0189-4.4135 4.5085-4.4135z" fill="#4c4c4c" fill-rule="evenodd" stroke="#000" stroke-linecap="round" stroke-linejoin="round" stroke-miterlimit="2.6131" stroke-width="3.5432"/>
<path d="m893.59 1315.1c2.4896 0 4.5087 1.9764 4.5087 4.4135s-2.019 4.4134-4.5087 4.4134c-2.4896 0-4.5085-1.9763-4.5085-4.4134s2.0189-4.4135 4.5085-4.4135z" fill="#4c4c4c" fill-rule="evenodd" stroke="#000" stroke-linecap="round" stroke-linejoin="round" stroke-miterlimit="2.6131" stroke-width="3.5432"/>
<path d="m764.01 1439.6c2.4896 0 4.5085 1.9763 4.5085 4.4135 0 2.437-2.0189 4.4133-4.5085 4.4133-2.4896 0-4.5087-1.9762-4.5087-4.4133 0-2.4371 2.019-4.4135 4.5087-4.4135z" fill="#808080" fill-rule="evenodd" stroke="#000" stroke-linecap="round" stroke-linejoin="round" stroke-miterlimit="2.6131" stroke-width="3.5432"/>
<path d="m1246.5 1390.7h-11.517v19.181h11.517v-19.181z" fill="#333" fill-rule="evenodd" stroke="#000" stroke-linecap="round" stroke-linejoin="round" stroke-miterlimit="2.6131" stroke-width="3.5432"/>
<path d="m1243.7 1393.2h-5.7582v6.1116h5.7582v-6.1116z" fill="#b3b3b3" fill-rule="evenodd"/>
<path d="m1397.1 1385.9h-136.45v28.723h136.45v-28.723z" fill="#333" fill-rule="evenodd" stroke="#000" stroke-linecap="round" stroke-linejoin="round" stroke-miterlimit="2.6131" stroke-width="3.5432"/>
<path d="m1397.1 1385.9h12.436v28.723h-12.436v-28.723z" fill="#333" fill-rule="evenodd" stroke="#000" stroke-linecap="round" stroke-linejoin="round" stroke-miterlimit="2.6131" stroke-width="3.5432"/>
<path d="m1393.5 1389.7h-129.34v9.1516h129.34v-9.1516z" fill="#b3b3b3" fill-rule="evenodd"/>
<path d="m1399.6 1389.7h7.3292v9.1516h-7.3292v-9.1516z" fill="#b3b3b3" fill-rule="evenodd"/>
<path d="m1246.9 1389.5l13.714-3.6085v28.723l-13.714-3.6083v-21.507z" fill="#333" fill-rule="evenodd" stroke="#000" stroke-linecap="round" stroke-linejoin="round" stroke-miterlimit="2.6131" stroke-width="3.5432"/>
<path d="m700.08 1556.9c-4.2764-18.024 32.983-52.666 34.39-91.171 8.2404-0.40378 14.113-0.10326 14.508 1.8991 2.1716 11.013 5.7325 20.277 20.903 19.52 6.8498-0.34135 14.033 0.36009 14.746 3.3031 2.3569 9.7208-1.1613 13.588-5.1247 14.012-5.8912 0.63047-11.362 4.548-11.709 12.585-0.10029 2.3253-0.22015 7.2708-0.027361 9.7604 0.50794 6.5516-4.1344 4.5641-1.4446 14.004 1.4255 2.5706 5.5886 5.8968 6.3174 8.2301 1.4749 4.7228-3.1296 4.4111 0.55632 11.65-16.363 4.0569-55.315 9.4207-73.115-3.7935h5.2e-5z" fill="#333" fill-rule="evenodd" stroke="#000" stroke-linecap="round" stroke-linejoin="round" stroke-miterlimit="2.6131" stroke-width="3.5432"/>
<path d="m779.79 1490.6c-25.387 1.8403-34.061-4.5242-39.275-22.808v5.6309c-0.036203 17.778 12.821 23.536 39.275 22.808v-5.6309" fill="#666" fill-rule="evenodd"/>
<path d="m772.12 1554.3c-18.739 0.92334-37.361 1.6194-52.388-4.7233 1.1489-19.343 17.463-29.24 22.058-47.908 10.34 4.0487 21.599 5.3981 33.777 4.0487" fill="none" stroke="#000" stroke-linecap="round" stroke-linejoin="round" stroke-miterlimit="2.6131" stroke-width="3.5432"/>
<path d="m969.81 1373.2h204.46l7.3724 23.786v23.786h-219.21v-23.786l7.3724-23.786z" fill="#4c4c4c" fill-rule="evenodd" stroke="#000" stroke-linecap="round" stroke-linejoin="round" stroke-miterlimit="2.6131" stroke-width="3.5432"/>
<path d="m949.67 1420.4h181.98v39.787h-181.98v-39.787z" fill="#4c4c4c" fill-rule="evenodd" stroke="#000" stroke-linecap="round" stroke-linejoin="round" stroke-miterlimit="2.6131" stroke-width="3.5432"/>
<path d="m961.68 1413.1h157.96v56.064h-157.96v-56.064z" fill="#4c4c4c" fill-rule="evenodd"/>
<g transform="matrix(1.3004 0 0 -1.2729 47.254 3230.7)" stroke="null">
<g clip-path="url(#a)" stroke="null">
<path d="m700.34 1405.8h127.87v-30.546h-127.87v30.546z" fill="#333" fill-rule="evenodd"/>
</g>
</g>
<path d="m961.68 1413.1h157.96v56.064h-157.96v-56.064z" fill="none" stroke="#000" stroke-linecap="round" stroke-linejoin="round" stroke-miterlimit="2.6131" stroke-width="3.5432"/>
<path d="m966.3 1417.7h148.73v10.851h-148.73v-10.851z" fill="#808080" fill-rule="evenodd"/>
<path d="m977.9 1437.7v0c2.2847 0 4.1536 1.8294 4.1536 4.0658v15.812c0 2.2366-1.869 4.066-4.1536 4.066v0c-2.2847 0-4.1536-1.8294-4.1536-4.066v-15.812c0-2.2364 1.869-4.0658 4.1536-4.0658z" fill="#333" fill-rule="evenodd" stroke="#000" stroke-linecap="round" stroke-linejoin="round" stroke-miterlimit="2.6131" stroke-width="3.5432"/>
<path d="m993.59 1437.7v0c2.2847 0 4.1536 1.8294 4.1536 4.0658v15.812c0 2.2366-1.869 4.066-4.1536 4.066v0c-2.2847 0-4.1536-1.8294-4.1536-4.066v-15.812c0-2.2364 1.869-4.0658 4.1536-4.0658z" fill="#333" fill-rule="evenodd" stroke="#000" stroke-linecap="round" stroke-linejoin="round" stroke-miterlimit="2.6131" stroke-width="3.5432"/>
<path d="m1009.3 1437.7v0c2.2848 0 4.1536 1.8294 4.1536 4.0658v15.812c0 2.2366-1.8688 4.066-4.1536 4.066v0c-2.2847 0-4.1535-1.8294-4.1535-4.066v-15.812c0-2.2364 1.8688-4.0658 4.1535-4.0658z" fill="#333" fill-rule="evenodd" stroke="#000" stroke-linecap="round" stroke-linejoin="round" stroke-miterlimit="2.6131" stroke-width="3.5432"/>
<path d="m1025 1437.7v0c2.2847 0 4.1535 1.8294 4.1535 4.0658v15.812c0 2.2366-1.8688 4.066-4.1535 4.066v0c-2.2847 0-4.1536-1.8294-4.1536-4.066v-15.812c0-2.2364 1.869-4.0658 4.1536-4.0658z" fill="#333" fill-rule="evenodd" stroke="#000" stroke-linecap="round" stroke-linejoin="round" stroke-miterlimit="2.6131" stroke-width="3.5432"/>
<path d="m1040.7 1437.7v0c2.2847 0 4.1536 1.8294 4.1536 4.0658v15.812c0 2.2366-1.869 4.066-4.1536 4.066v0c-2.2847 0-4.1536-1.8294-4.1536-4.066v-15.812c0-2.2364 1.869-4.0658 4.1536-4.0658z" fill="#333" fill-rule="evenodd" stroke="#000" stroke-linecap="round" stroke-linejoin="round" stroke-miterlimit="2.6131" stroke-width="3.5432"/>
<path d="m1056.4 1437.7v0c2.2847 0 4.1536 1.8294 4.1536 4.0658v15.812c0 2.2366-1.869 4.066-4.1536 4.066v0c-2.2847 0-4.1536-1.8294-4.1536-4.066v-15.812c0-2.2364 1.869-4.0658 4.1536-4.0658z" fill="#333" fill-rule="evenodd" stroke="#000" stroke-linecap="round" stroke-linejoin="round" stroke-miterlimit="2.6131" stroke-width="3.5432"/>
<path d="m1072 1437.7v0c2.2847 0 4.1536 1.8294 4.1536 4.0658v15.812c0 2.2366-1.869 4.066-4.1536 4.066v0c-2.2847 0-4.1536-1.8294-4.1536-4.066v-15.812c0-2.2364 1.869-4.0658 4.1536-4.0658z" fill="#333" fill-rule="evenodd" stroke="#000" stroke-linecap="round" stroke-linejoin="round" stroke-miterlimit="2.6131" stroke-width="3.5432"/>
<path d="m1087.7 1437.7v0c2.2848 0 4.1536 1.8294 4.1536 4.0658v15.812c0 2.2366-1.8688 4.066-4.1536 4.066v0c-2.2847 0-4.1535-1.8294-4.1535-4.066v-15.812c0-2.2364 1.8688-4.0658 4.1535-4.0658z" fill="#333" fill-rule="evenodd" stroke="#000" stroke-linecap="round" stroke-linejoin="round" stroke-miterlimit="2.6131" stroke-width="3.5432"/>
<path d="m1103.4 1437.7v0c2.2847 0 4.1535 1.8294 4.1535 4.0658v15.812c0 2.2366-1.8688 4.066-4.1535 4.066v0c-2.2847 0-4.1536-1.8294-4.1536-4.066v-15.812c0-2.2364 1.869-4.0658 4.1536-4.0658z" fill="#333" fill-rule="evenodd" stroke="#000" stroke-linecap="round" stroke-linejoin="round" stroke-miterlimit="2.6131" stroke-width="3.5432"/>
<path d="m981.04 1410.7c3.3773 0 6.1158-2.6489 6.1158-5.9151s-2.7385-5.9151-6.1158-5.9151c-3.3773 0-6.1161 2.6489-6.1161 5.9151s2.7388 5.9151 6.1161 5.9151zm20.387 0c3.3773 0 6.1162-2.6489 6.1162-5.9151s-2.7389-5.9151-6.1162-5.9151c-3.3773 0-6.1161 2.6489-6.1161 5.9151s2.7388 5.9151 6.1161 5.9151zm-9.5089-18.393c3.3773 0 6.1161-2.649 6.1161-5.9151 0-3.2663-2.7388-5.9153-6.1161-5.9153-3.3773 0-6.1158 2.6491-6.1158 5.9153 0 3.2662 2.7385 5.9151 6.1158 5.9151zm29.896 18.393c3.3773 0 6.1162-2.6489 6.1162-5.9151s-2.7389-5.9151-6.1162-5.9151c-3.3773 0-6.1161 2.6489-6.1161 5.9151s2.7388 5.9151 6.1161 5.9151zm-9.5085-18.393c3.3769 0 6.1157-2.649 6.1157-5.9151 0-3.2663-2.7388-5.9153-6.1157-5.9153-3.3773 0-6.1162 2.6491-6.1162 5.9153 0 3.2662 2.7389 5.9151 6.1162 5.9151zm29.895 18.393c3.3773 0 6.1162-2.6489 6.1162-5.9151s-2.7389-5.9151-6.1162-5.9151c-3.3773 0-6.1161 2.6489-6.1161 5.9151s2.7388 5.9151 6.1161 5.9151zm-9.5086-18.393c3.377 0 6.1158-2.649 6.1158-5.9151 0-3.2663-2.7388-5.9153-6.1158-5.9153-3.3773 0-6.1161 2.6491-6.1161 5.9153 0 3.2662 2.7388 5.9151 6.1161 5.9151zm29.896 18.393c3.3773 0 6.1162-2.6489 6.1162-5.9151s-2.7389-5.9151-6.1162-5.9151c-3.3773 0-6.1158 2.6489-6.1158 5.9151s2.7385 5.9151 6.1158 5.9151zm-9.5086-18.393c3.377 0 6.1162-2.649 6.1162-5.9151 0-3.2663-2.7392-5.9153-6.1162-5.9153-3.3773 0-6.1165 2.6491-6.1165 5.9153 0 3.2662 2.7392 5.9151 6.1165 5.9151z" fill="#333" fill-rule="evenodd" stroke="#000" stroke-linecap="round" stroke-linejoin="round" stroke-miterlimit="2.6131" stroke-width="3.5432"/>
<path d="m1072.8 1380.4c3.3773 0 6.1158 2.6491 6.1158 5.9153 0 3.2662-2.7385 5.9151-6.1158 5.9151-3.3773 0-6.1161-2.649-6.1161-5.9151 0-3.2663 2.7388-5.9153 6.1161-5.9153zm20.387 0c3.3773 0 6.1162 2.6491 6.1162 5.9153 0 3.2662-2.7389 5.9151-6.1162 5.9151-3.3773 0-6.1161-2.649-6.1161-5.9151 0-3.2663 2.7388-5.9153 6.1161-5.9153zm-9.5089 18.393c3.3773 0 6.1161 2.6489 6.1161 5.9151s-2.7388 5.9151-6.1161 5.9151c-3.3773 0-6.1158-2.6489-6.1158-5.9151s2.7385-5.9151 6.1158-5.9151zm29.896-18.393c3.3773 0 6.1161 2.6491 6.1161 5.9153 0 3.2662-2.7388 5.9151-6.1161 5.9151-3.3773 0-6.1161-2.649-6.1161-5.9151 0-3.2663 2.7388-5.9153 6.1161-5.9153zm-9.5086 18.393c3.377 0 6.1158 2.6489 6.1158 5.9151s-2.7388 5.9151-6.1158 5.9151c-3.3773 0-6.1161-2.6489-6.1161-5.9151s2.7388-5.9151 6.1161-5.9151zm29.896-18.393c3.3773 0 6.1161 2.6491 6.1161 5.9153 0 3.2662-2.7388 5.9151-6.1161 5.9151-3.3773 0-6.1162-2.649-6.1162-5.9151 0-3.2663 2.7389-5.9153 6.1162-5.9153zm-9.5086 18.393c3.3769 0 6.1158 2.6489 6.1158 5.9151s-2.7389 5.9151-6.1158 5.9151c-3.3773 0-6.1161-2.6489-6.1161-5.9151s2.7388-5.9151 6.1161-5.9151zm29.896-18.393c3.3773 0 6.1161 2.6491 6.1161 5.9153 0 3.2662-2.7388 5.9151-6.1161 5.9151-3.3773 0-6.1158-2.649-6.1158-5.9151 0-3.2663 2.7385-5.9153 6.1158-5.9153zm-9.5086 18.393c3.3769 0 6.1162 2.6489 6.1162 5.9151s-2.7393 5.9151-6.1162 5.9151c-3.3773 0-6.1165-2.6489-6.1165-5.9151s2.7392-5.9151 6.1165-5.9151z" fill="#333" fill-rule="evenodd" stroke="#000" stroke-linecap="round" stroke-linejoin="round" stroke-miterlimit="2.6131" stroke-width="3.5432"/>
<path d="m1113.8 1359.5h81.148v14.122h-81.148v-14.122z" fill="#4c4c4c" fill-rule="evenodd" stroke="#000" stroke-linecap="round" stroke-linejoin="round" stroke-miterlimit="2.6131" stroke-width="3.5432"/>
<path d="m1113.8 1350.7h21.639v8.826h-21.639v-8.826z" fill="#4c4c4c" fill-rule="evenodd" stroke="#000" stroke-linecap="round" stroke-linejoin="round" stroke-miterlimit="2.6131" stroke-width="3.5432"/>
<path d="m813.34 1349.8h98.79v10.057h-98.79v-10.057z" fill="#4c4c4c" fill-rule="evenodd" stroke="#000" stroke-linecap="round" stroke-linejoin="round" stroke-miterlimit="2.6131" stroke-width="3.5432"/>
<path d="m780.94 1360.6h139.1v11.604h-139.1v-11.604z" fill="#4c4c4c" fill-rule="evenodd" stroke="#000" stroke-linecap="round" stroke-linejoin="round" stroke-miterlimit="2.6131" stroke-width="3.5432"/>
<path d="m786.48 1349.8h15.016v10.057h-15.016v-10.057z" fill="#4c4c4c" fill-rule="evenodd" stroke="#000" stroke-linecap="round" stroke-linejoin="round" stroke-miterlimit="2.6131" stroke-width="3.5432"/>
<path d="m501.17 1390h50.581 69.548 24.5v43.323h-24.5v6.9626h-62.176l-44.234 44.484h-13.719v-44.484-6.9626-43.323zm18.968 9.2837c3.9276 0 7.1129 3.1179 7.1129 6.9626s-3.1852 6.9627-7.1129 6.9627c-3.9276 0-7.1128-3.118-7.1128-6.9627s3.1852-6.9626 7.1128-6.9626zm24.894 0c3.9276 0 7.113 3.1179 7.113 6.9626s-3.1854 6.9627-7.113 6.9627c-3.9276 0-7.1129-3.118-7.1129-6.9627s3.1852-6.9626 7.1129-6.9626zm24.894 0c3.9278 0 7.113 3.1179 7.113 6.9626s-3.1852 6.9627-7.113 6.9627c-3.9276 0-7.1128-3.118-7.1128-6.9627s3.1852-6.9626 7.1128-6.9626zm24.894 0c3.9276 0 7.1129 3.1179 7.1129 6.9626s-3.1852 6.9627-7.1129 6.9627c-3.9276 0-7.113-3.118-7.113-6.9627s3.1854-6.9626 7.113-6.9626zm24.894 0c3.9276 0 7.1128 3.1179 7.1128 6.9626s-3.1852 6.9627-7.1128 6.9627c-3.9276 0-7.1129-3.118-7.1129-6.9627s3.1852-6.9626 7.1129-6.9626z" fill="#4c4c4c" fill-rule="evenodd" stroke="#000" stroke-linecap="round" stroke-linejoin="round" stroke-miterlimit="2.6131" stroke-width="3.5432"/>
<path d="m491.69 1386.4h9.4838v100.57h-9.4838v-100.57z" fill="#4c4c4c" fill-rule="evenodd" stroke="#000" stroke-linecap="round" stroke-linejoin="round" stroke-miterlimit="2.6131" stroke-width="3.5432"/>
<path d="m549.38 1442.6l7.9031 7.7364-29.242 29.398-9.4839-6.9627 30.823-30.172z" fill="#4c4c4c" fill-rule="evenodd" stroke="#000" stroke-linecap="round" stroke-linejoin="round" stroke-miterlimit="2.6131" stroke-width="3.5432"/>
<path d="m515.4 1420.2h30.823c2.6084 0 4.7419 2.0884 4.7419 4.6418v0c0 2.5532-2.1336 4.6418-4.7419 4.6418h-30.823c-2.6084 0-4.742-2.0886-4.742-4.6418v0c0-2.5533 2.1336-4.6418 4.742-4.6418z" fill="#666" fill-rule="evenodd" stroke="#000" stroke-linecap="round" stroke-linejoin="round" stroke-miterlimit="2.6131" stroke-width="3.5432"/>
<path d="m554.61 624.8h488.26v24.649h-488.26v-24.649z" fill="#666" fill-rule="evenodd" stroke="#000" stroke-linecap="round" stroke-linejoin="round" stroke-miterlimit="2.6131" stroke-width="3.5432"/>
<path d="m577.39 632.73h453.72v5.4891h-453.72v-5.4891z" fill="#808080" fill-rule="evenodd" stroke="null"/>
<path d="m408.15 588.2l351.93-2.0938c26.671 0.59674 24.893 32.603 0 39.483-57.38-21.614-110.91-18.275-158.8 21.533l-193.12 2.0938v-61.017z" fill="#963" fill-rule="evenodd" stroke="#000" stroke-linecap="round" stroke-linejoin="round" stroke-miterlimit="2.6131" stroke-width="3.5432"/>
<path d="m438.58 517.99h673.89v86.243h-673.89v-86.243z" fill="#ccc" fill-rule="evenodd" stroke="#000" stroke-linecap="round" stroke-linejoin="round" stroke-miterlimit="2.6131" stroke-width="3.5432"/>
<path d="m456.74 529.99h644.46v19.205h-644.46v-19.205z" fill="#fff" fill-rule="evenodd" stroke="null"/>
<path d="m438.58 544.04h673.89v34.137h-673.89v-34.137z" fill="#ccc" fill-rule="evenodd" stroke="#000" stroke-linecap="round" stroke-linejoin="round" stroke-miterlimit="2.6131" stroke-width="3.5432"/>
<path d="m1109.9 517.99l69.538-32.788v150.23l-69.538-31.198v-86.243z" fill="#ccc" fill-rule="evenodd" stroke="#000" stroke-linecap="round" stroke-linejoin="round" stroke-miterlimit="2.6131" stroke-width="3.5432"/>
<path d="m456.74 548.79h644.46v12.101h-644.46v-12.101z" fill="#fff" fill-rule="evenodd" stroke="null"/>
<path d="m1117.3 522.84l54.774-24.517v27.15l-54.774 23.722v-26.355z" fill="#fff" fill-rule="evenodd" stroke="null"/>
<path d="m1038.4 516.22h18.727v88.978h-18.727v-88.978z" fill="#ccc" fill-rule="evenodd" stroke="#000" stroke-linecap="round" stroke-linejoin="round" stroke-miterlimit="2.6131" stroke-width="3.5432"/>
<path d="m1043.8 525.39h8.0339v27.378h-8.0339v-27.378z" fill="#fff" fill-rule="evenodd" stroke="null"/>
<path d="m265.98 641.46l9.0539 12.486c30.482-3.1847 54.803-10.937 80.938-30.894 23.613-18.031 39.384-43.031 106.88-50.937l-0.065768 93.437c-134.29 12.331-216.12 174.93-421.02 169.93-6.7672-43.796-9.2223-148.31 0.77326-184.6l223.45-9.421h4.93e-4z" fill="#963" fill-rule="evenodd" stroke="#000" stroke-linecap="round" stroke-linejoin="round" stroke-miterlimit="2.6131" stroke-width="3.5432"/>
<path d="m275.58 661.45c27.508-2.8427 54.822-18.444 79.293-28.479 23.612-12.905 45.372-45.479 91.456-51.567-1.0977 11.328-1.0977 25.489-2.1952 36.817-32.101-5.4282-72.158 19.942-88.163 27.494-28.521 13.391-53.935 26.406-82.451 30.085l-0.4515 0.78552-12.668-13.878-207.42 26.383c-3.534 0.46159-2.3099-25.669-1.2124-25.669l208.72-12.16 15.088 10.189z" fill="#c93" fill-rule="evenodd" stroke="null"/>
<path d="m422.67 672.93h13.082c-6.7103 10.276-6.331 26.536 8.1702 36.302-3.2305 1.1902-2.9367 2.8993-6.1662 4.0902-19.194-8.0963-14.791-26.2-15.085-40.392z" fill="#b3b3b3" fill-rule="evenodd" stroke="#000" stroke-linecap="round" stroke-linejoin="round" stroke-miterlimit="2.6131" stroke-width="3.5432"/>
<path d="m532.69 684.61c-1.3841 70.077-119.71 68.097-129.52 28.575-0.37701-14.287-0.75452-28.575-1.1325-42.862v-24.184h161.6c0.26768 29.693-13.508 37.025-30.949 38.471zm-119.58-11.534c18.667 0.59422 88.204 1.1904 106.87 1.786 7.3505 61.727-83.883 63.631-103.8 40.72-8.5954-9.8863-2.3833-31.375-3.0668-42.506z" fill="#b3b3b3" fill-rule="evenodd" stroke="#000" stroke-linecap="round" stroke-linejoin="round" stroke-miterlimit="2.6131" stroke-width="3.5432"/>
<path d="m541.37 655.89c3.9347 0 7.1254 3.7574 7.1254 8.3911 0 4.6337-3.1907 8.3911-7.1254 8.3911-3.9351 0-7.1258-3.7574-7.1258-8.3911 0-4.6337 3.1907-8.3911 7.1258-8.3911z" fill="#ccc" fill-rule="evenodd" stroke="#000" stroke-linecap="round" stroke-linejoin="round" stroke-miterlimit="2.6131" stroke-width="3.5432"/>
<path d="m444.37 588.58c47.429 22.851 119.08 7.6908 119.08 30.122 0 22.432-38.129 13.503-87.322 13.503-49.193 0-94.378 6.8511-94.378-5.1933 0-12.045 15.196-61.283 62.625-38.432z" fill="#b3b3b3" fill-rule="evenodd" stroke="#000" stroke-linecap="round" stroke-linejoin="round" stroke-miterlimit="2.6131" stroke-width="3.5432"/>
<path d="m408.21 540.8c18.508 0 33.518 17.675 33.518 39.47 0 21.795-15.009 39.47-33.518 39.47-18.508 0-33.517-17.675-33.517-39.47 0-21.795 15.009-39.47 33.517-39.47z" fill="#ccc" fill-rule="evenodd" stroke="#000" stroke-linecap="round" stroke-linejoin="round" stroke-miterlimit="2.6131" stroke-width="3.5432"/>
<path d="m408.21 555.34c2.6056 0 5.1008 0.55608 7.4059 1.5707 6.0579-10.91 12.116-21.821 18.173-32.731-8.2325-8.3094-21.976-12.569-24.697-24.929-2.4421-11.095 8.232-20.774 12.349-31.161-2.3524-9.6942-4.7044-19.389-7.0562-29.084 8.2318 9.0024 16.464 18.004 24.697 27.006-1.1761 12.464-7.6447 16.619-8.8203 29.084 18.816 11.08 46.454 15.927 63.507 47.78-4.1166 10.387-13.525 16.619-21.169 16.619-2.9402-8.3094-11.173-14.542-17.641-16.619-6.4684 11.901-12.937 23.803-19.405 35.704-6.6171 12.178-12.899 26.617-27.343 26.617-11.69 0-21.169-11.163-21.169-24.929 0-13.766 9.4791-24.929 21.169-24.929z" fill="#ccc" fill-rule="evenodd" stroke="#000" stroke-linecap="round" stroke-linejoin="round" stroke-miterlimit="2.6131" stroke-width="3.5432"/>
<path d="m405.56 562.61c4.6269 0 8.3793 4.4188 8.3793 9.8677 0 5.4487-3.7524 9.8673-8.3793 9.8673-4.6268 0-8.3793-4.4186-8.3793-9.8673 0-5.4489 3.7525-9.8677 8.3793-9.8677" fill="#fff" fill-rule="evenodd" stroke="null"/>
<path d="m408.21 571.88c3.9349 0 7.1258 3.7574 7.1258 8.3909 0 4.6337-3.1909 8.3913-7.1258 8.3913-3.9347 0-7.1254-3.7576-7.1254-8.3913 0-4.6335 3.1907-8.3909 7.1254-8.3909z" fill="#ccc" fill-rule="evenodd" stroke="#000" stroke-linecap="round" stroke-linejoin="round" stroke-miterlimit="2.6131" stroke-width="3.5432"/>
<path d="m592.56 507.5h-25.818v100.4h25.818v-100.4z" fill="#ccc" fill-rule="evenodd" stroke="#000" stroke-linecap="round" stroke-linejoin="round" stroke-miterlimit="2.6131" stroke-width="3.5432"/>
<path d="m636.67 507.5h-25.818v100.4h25.818v-100.4z" fill="#ccc" fill-rule="evenodd" stroke="#000" stroke-linecap="round" stroke-linejoin="round" stroke-miterlimit="2.6131" stroke-width="3.5432"/>
<path d="m780.04 507.5h-25.818v100.4h25.818v-100.4z" fill="#ccc" fill-rule="evenodd" stroke="#000" stroke-linecap="round" stroke-linejoin="round" stroke-miterlimit="2.6131" stroke-width="3.5432"/>
<path d="m570.44 565.8h18.42v12.15h-18.42v-12.15z" fill="#fff" fill-rule="evenodd" stroke="null"/>
<path d="m614.55 565.8h18.42v12.15h-18.42v-12.15z" fill="#fff" fill-rule="evenodd" stroke="null"/>
<path d="m757.92 565.8h18.42v12.15h-18.42v-12.15z" fill="#fff" fill-rule="evenodd" stroke="null"/>
<path d="m570.44 519.36h18.42v12.149h-18.42v-12.149z" fill="#fff" fill-rule="evenodd" stroke="null"/>
<path d="m614.55 519.36h18.42v12.149h-18.42v-12.149z" fill="#fff" fill-rule="evenodd" stroke="null"/>
<path d="m757.92 519.36h18.42v12.149h-18.42v-12.149z" fill="#fff" fill-rule="evenodd" stroke="null"/>
<path d="m1084.4 612.71c1.6271-0.64282 2.8093 45.274 0 45.844-9.6406 0-31.905-10.265-31.905-22.922s22.264-22.922 31.905-22.922z" fill="#666" fill-rule="evenodd" stroke="#000" stroke-linecap="round" stroke-linejoin="round" stroke-miterlimit="2.6131" stroke-width="3.5432"/>
<path d="m1041.2 620.66h19.01v32.939h-19.01v-32.939z" fill="#666" fill-rule="evenodd" stroke="#000" stroke-linecap="round" stroke-linejoin="round" stroke-miterlimit="2.6131" stroke-width="3.5432"/>
<path d="m1045.4 629.62h10.686v7.3345h-10.686v-7.3345z" fill="#808080" fill-rule="evenodd" stroke="null"/>
<path d="m448.62 603.73c3.9347 0 7.1254 3.7576 7.1254 8.3911 0 4.6337-3.1907 8.3911-7.1254 8.3911-3.9351 0-7.1258-3.7574-7.1258-8.3911 0-4.6335 3.1907-8.3911 7.1258-8.3911z" fill="#ccc" fill-rule="evenodd" stroke="#000" stroke-linecap="round" stroke-linejoin="round" stroke-miterlimit="2.6131" stroke-width="3.5432"/>
<path d="m495.69 569.5c3.9347 0 7.1256 3.7576 7.1256 8.3911s-3.1909 8.3913-7.1256 8.3913c-3.9349 0-7.1258-3.7578-7.1258-8.3913s3.1909-8.3911 7.1258-8.3911z" fill="#ccc" fill-rule="evenodd" stroke="#000" stroke-linecap="round" stroke-linejoin="round" stroke-miterlimit="2.6131" stroke-width="3.5432"/>
<path d="m85.12 728.15c0.72887-3.6856 3.8573-5.9769 6.987-5.1186 3.1297 0.85813 5.0755 4.5423 4.3468 8.2279-1.0801 5.3937-0.57202 8.4254 0.72016 9.7062 0.55508 0.55027 1.368 0.87052 2.3193 0.98534 1.2373 0.14909 2.6426-0.077448 4.0628-0.6252 3.7308-1.4405 7.1613-4.9675 7.5977-9.6468 0.76143-8.1613 0.9094-16.59-1.5306-22.389-2.0832-4.952-6.6764-8.267-15.721-7.996-11.688 0.35103-15.455 26.06-16.636 34.219l-0.016442 0.098747h0.001151l0.016442-0.098747c0.11345-0.7284-0.060835 0.44804-0.016442 0.12585v-7.74e-4l-0.036172 0.2275-0.18612 1.2138c-0.82374 5.3991-1.0975 10.537-0.88244 15.313 0.38803 8.6033 2.3956 15.877 5.6453 21.218 3.0021 4.9342 7.0998 8.1923 11.942 9.2165 1.4757 0.31154 3.0615 0.42267 4.747 0.31754 17.123-1.0709 30.526-23.974 41.548-42.81 3.1284-5.3464 6.0794-10.39 9.0796-14.867 5.3262-7.9493 10.288-14.562 16.585-20.165 6.3795-5.6764 13.996-10.22 24.51-13.902 12.672-4.4395 20.549-3.0377 25.889 1.5555 5.45 4.6889 7.45 11.85 9.0427 19.452 0.095363 0.45423 0.183 0.99134 0.2634 1.6034v0.029043h0.018086c0.90694 6.9355-1.647 13.244-5.643 18.094-3.5725 4.3367-8.4561 7.5578-12.833 8.8297-0.68333 0.19846-1.2718 0.34368-1.7502 0.43003-4.3343 0.78784-8.7603-1.0167-12.394-4.0016-3.8951-3.2-7.064-8.038-8.1585-12.449-1.1146-4.4908-0.56873-8.28 0.98043-11.361 0.9339-1.8562 2.1947-3.3483 3.6465-4.503 1.2601-1.0026 2.7119-1.7598 4.23-2.2818 4.059-1.3962 8.8841-0.87691 11.778 1.1416 2.765 1.9236 3.682 6.1238 2.0485 9.3798-1.6337 3.2559-5.2001 4.3359-7.9651 2.4123-0.39395-0.27455-1.4646-0.2033-2.6304 0.19846-0.34199 0.11617-0.67001 0.28811-0.95265 0.5131-0.090431 0.07164-0.13976 0.10456-0.1414 0.10843 0 0 0.05097 0.15877 0.1562 0.58783 0.39033 1.5745 1.8098 3.5382 3.6529 5.0523 1.3742 1.1292 2.8379 1.8495 3.975 1.6431 0.33624-0.060022 0.58616-0.11617 0.74811-0.16264 2.4392-0.70865 5.2065-2.5597 7.2805-5.0767 1.6506-2.0036 2.741-4.3367 2.4563-6.5179h0.018086c-0.016442-0.07164-0.037816-0.20078-0.077277-0.39305-1.0505-5.0142-2.2354-9.6233-4.6269-11.681-2.5023-2.1521-7.1304-2.4816-15.74 0.53459-9.0181 3.1583-15.465 6.9785-20.777 11.705-5.3943 4.8002-9.7601 10.637-14.492 17.699-2.623 3.9148-5.5358 8.8928-8.624 14.17-12.484 21.334-27.666 47.276-50.514 48.706-2.5314 0.15683-5.0003-0.027107-7.3874-0.53168-7.9707-1.6862-14.609-6.8743-19.361-14.684-4.5048-7.4039-7.2738-17.185-7.7848-28.506-0.25847-5.7366 0.072345-11.917 1.0645-18.422l0.13154-0.86413 0.016442-0.12585c-0.029596 0.16264-0.059191 0.32857 0.037816-0.34368v3.87e-4c1.5503-10.718 6.5385-45.068 27.844-45.708 14.529-0.43623 22.38 6.0146 26.416 15.607 3.6797 8.7439 3.6255 19.642 2.669 29.893-0.98948 10.605-7.9962 18.3-15.563 21.223-2.906 1.1218-5.9576 1.5623-8.8425 1.215-3.1707-0.38143-6.1516-1.7213-8.5998-4.1479-4.4875-4.4488-6.8377-12.039-4.5894-23.267l3.29e-4 -0.006583zm-7.8691 7.4621h0.001315v0.027107l-9.87e-4 -7.74e-4v-0.027107l-3.29e-4 7.74e-4zm87.072-0.085193c-0.25123-3.7739 2.1434-7.0739 5.3481-7.3696 3.205-0.29585 6.0071 2.524 6.2583 6.2979 0.20964 3.0908 1.9183 6.0224 4.6251 8.5656 3.2085 3.0145 7.6738 5.3956 12.813 6.9202 5.3371 1.5821 11.321 2.2063 17.341 1.639 10.967-1.0339 21.936-6.0359 28.99-16.444 1.5224-2.2541 4.0076-3.0761 6.216-2.3002 4.6787 1.1792 7.7928-6.6884 11.448-15.929 6.8676-17.358 15.045-38.017 39.555-35.862 5.9942-9.4413 11.438-15.65 17.49-20.3 6.6869-5.1358 13.798-8.129 23.052-11.359 5.1897-1.8105 9.8856-1.7879 13.782-0.47747 4.815 1.6206 8.4446 5.1832 10.459 9.8017 6.2558 14.343-0.95018 21.777-12.145 28.549-2.1667 1.3102-4.4079 2.544-6.7206 3.8165-9.4845 5.2196-20.379 11.216-23.469 21.492-1.0679 3.5669-4.3898 5.4384-7.4188 4.1809-3.0289-1.2576-4.6182-5.1695-3.5503-8.7362 4.7091-15.661 17.974-22.962 29.522-29.317 2.2586-1.2427 4.4469-2.4472 6.3573-3.6027 5.2456-3.1729 8.826-6.1914 7.0929-10.165-0.55048-1.2628-1.6958-2.29-3.3131-2.834-1.9158-0.64418-4.3912-0.59771-7.3198 0.42403-8.2611 2.8834-14.52 5.4872-20.002 9.6975-5.4063 4.1534-10.376 10.114-16.237 19.812-1.193 2.1399-3.3621 3.4008-5.6587 3.0269-18.748-3.1132-25.384 13.658-30.917 27.643-5.3719 13.58-10.011 25.301-21.425 24.1-9.2251 11.599-22.119 17.25-34.877 18.452-7.2784 0.686-14.551-0.079385-21.073-2.0137-6.7195-1.9931-12.719-5.2572-17.228-9.4944-5.1932-4.88-8.5087-11.063-8.9946-18.213z" fill="#ccc" stroke="#000" stroke-linecap="round" stroke-linejoin="round" stroke-miterlimit="2.6131" stroke-width="3.5432"/>
<path d="m201.61 706.95c3.9347 0 7.1254 3.7576 7.1254 8.3913 0 4.6335-3.1907 8.3911-7.1254 8.3911-3.9351 0-7.1258-3.7576-7.1258-8.3911 0-4.6337 3.1907-8.3913 7.1258-8.3913z" fill="#ccc" fill-rule="evenodd" stroke="#000" stroke-linecap="round" stroke-linejoin="round" stroke-miterlimit="2.6131" stroke-width="3.5432"/>
<path d="m182.49 764.95c3.9347 0 7.1258 3.7574 7.1258 8.3909s-3.1911 8.3913-7.1258 8.3913-7.1256-3.7578-7.1256-8.3913 3.1909-8.3909 7.1256-8.3909z" fill="#ccc" fill-rule="evenodd" stroke="#000" stroke-linecap="round" stroke-linejoin="round" stroke-miterlimit="2.6131" stroke-width="3.5432"/>
<path d="m228.81 659.33c3.9347 0 7.1254 3.7578 7.1254 8.3913s-3.1907 8.3909-7.1254 8.3909c-3.9351 0-7.1258-3.7574-7.1258-8.3909s3.1907-8.3913 7.1258-8.3913z" fill="#ccc" fill-rule="evenodd" stroke="#000" stroke-linecap="round" stroke-linejoin="round" stroke-miterlimit="2.6131" stroke-width="3.5432"/>
<path d="m55.298 721.66c3.9349 0 7.1256 3.7576 7.1256 8.3913 0 4.6335-3.1907 8.3911-7.1256 8.3911-3.9349 0-7.1256-3.7576-7.1256-8.3911 0-4.6337 3.1907-8.3913 7.1256-8.3913z" fill="#ccc" fill-rule="evenodd" stroke="#000" stroke-linecap="round" stroke-linejoin="round" stroke-miterlimit="2.6131" stroke-width="3.5432"/>
<path d="m88.383 796.12c3.9347 0 7.1254 3.7578 7.1254 8.3913s-3.1907 8.3909-7.1254 8.3909c-3.9349 0-7.1258-3.7574-7.1258-8.3909s3.1909-8.3913 7.1258-8.3913z" fill="#ccc" fill-rule="evenodd" stroke="#000" stroke-linecap="round" stroke-linejoin="round" stroke-miterlimit="2.6131" stroke-width="3.5432"/>
<path d="m164.11 748.5c3.9347 0 7.8609 8.9526 7.8609 13.586s-4.6613 26.573-24.771 30.036c1.2118-6.0609 8.314-17.611 6.1084-30.036s6.867-13.586 10.802-13.586z" fill="#ccc" fill-rule="evenodd" stroke="#000" stroke-linecap="round" stroke-linejoin="round" stroke-miterlimit="2.6131" stroke-width="3.5432"/>
<path d="m66.723 721.24c-3.6394 1.7623-10.161-4.7592-11.658-9.045-1.4967-4.285-4.2698-26.664 13.211-38.873 0.8364 6.1484-2.0031 20.011 4.0493 30.516 6.0526 10.504-1.9637 15.64-5.6026 17.402z" fill="#ccc" fill-rule="evenodd" stroke="#000" stroke-linecap="round" stroke-linejoin="round" stroke-miterlimit="2.6131" stroke-width="3.5432"/>
<path d="m85.088 726.86c-2.6322-2.8575-0.91236-10.757 2.7685-15.11 3.6807-4.3524 13.318-4.353 22.771-12.126-0.37751 9.2727-0.36797 18.139-5.3992 28.053-5.0319 9.9144-17.507 2.0398-20.14-0.81766z" fill="#ccc" fill-rule="evenodd" stroke="#000" stroke-linecap="round" stroke-linejoin="round" stroke-miterlimit="2.6131" stroke-width="3.5432"/>
<path d="m77.18 777.12c3.576-0.19594 7.1401 6.7957 7.1833 12.938 0.042749 6.1424-6.7289 14.217-8.6748 27.599-5.3377-6.8323-10.7-13.055-13.155-24.237-2.4545-11.182 11.07-16.102 14.646-16.3z" fill="#ccc" fill-rule="evenodd" stroke="#000" stroke-linecap="round" stroke-linejoin="round" stroke-miterlimit="2.6131" stroke-width="3.5432"/>
<path d="m163.88 738.89c-2.3936 3.1351-9.1225 1.2074-12.864-3.0724-3.7414-4.2802-3.8614-15.628-10.579-26.663 7.8783 0.33012 15.406 0.20814 23.887 6.0108 8.4814 5.8011 1.9494 20.59-0.44459 23.725z" fill="#ccc" fill-rule="evenodd" stroke="#000" stroke-linecap="round" stroke-linejoin="round" stroke-miterlimit="2.6131" stroke-width="3.5432"/>
<path d="m363.73 658.72c-2.4184-8.0496 2.156-10.509 6.8507-13.185 4.695-2.6764 13.792 1.0709 24.894-2.5897-2.9572 8.6057-5.4342 16.978-12.964 24.379-7.5294 7.4019-16.362-0.55453-18.78-8.6045z" fill="#ccc" fill-rule="evenodd" stroke="#000" stroke-linecap="round" stroke-linejoin="round" stroke-miterlimit="2.6131" stroke-width="3.5432"/>
<path d="m274.42 718.25c-2.0898-3.9264 2.2673-12.598 5.6016-15.058 3.3341-2.4609 21.597-9.4593 34.767 8.7693-5.0051 2.0086-17.087 1.0543-24.857 9.8539-7.77 8.7985-13.422 0.3613-15.511-3.5648z" fill="#ccc" fill-rule="evenodd" stroke="#000" stroke-linecap="round" stroke-linejoin="round" stroke-miterlimit="2.6131" stroke-width="3.5432"/>
<path d="m226.24 678.31c2.9332-3.0886 10.927 0.50419 13.549 3.9594 2.6228 3.4542 11.564 23.469-1.4681 41.834-2.5268-5.4694-3.7683-19.654-12.445-27.186-8.6769-7.5328-2.5699-15.519 0.36419-18.607z" fill="#ccc" fill-rule="evenodd" stroke="#000" stroke-linecap="round" stroke-linejoin="round" stroke-miterlimit="2.6131" stroke-width="3.5432"/>
<path d="m221.46 679.02c1.8579-4.0848-2.9898-12.388-6.4579-14.575-3.4689-2.1879-22.093-7.7086-34.181 11.531 5.1088 1.6034 17.108-0.3156 25.368 7.8416 8.2601 8.1565 13.412-0.71349 15.27-4.7975z" fill="#ccc" fill-rule="evenodd" stroke="#000" stroke-linecap="round" stroke-linejoin="round" stroke-miterlimit="2.6131" stroke-width="3.5432"/>
<path d="m358.21 653.27c3.9349 0 7.1258 3.7574 7.1258 8.3913 0 4.6335-3.1909 8.3909-7.1258 8.3909-3.9347 0-7.1256-3.7574-7.1256-8.3909 0-4.6339 3.1909-8.3913 7.1256-8.3913z" fill="#ccc" fill-rule="evenodd" stroke="#000" stroke-linecap="round" stroke-linejoin="round" stroke-miterlimit="2.6131" stroke-width="3.5432"/>
</g>
</svg>
