<?xml version="1.0" encoding="UTF-8"?>
<svg viewBox="0 0 1200 1200" xmlns="http://www.w3.org/2000/svg" xmlns:xlink="http://www.w3.org/1999/xlink">
<defs>
<clipPath id="a">
<path d="m363.4 2144.3h121.47v-44.042h-121.47v44.042z" clip-rule="evenodd"/>
</clipPath>
</defs>
<metadata>image/svg+xml</metadata>
<g>
<title>background</title>
<rect x="-1" y="-1" width="1202" height="1202" fill="none"/>
</g>
<g>
<title>Layer 1</title>
<path d="m230.57 540.46h103.95v17.39h-103.95v-17.39z" fill="#4c4c4c" fill-rule="evenodd" stroke="#000" stroke-linecap="round" stroke-linejoin="round" stroke-miterlimit="2.6131" stroke-width="3.5432"/>
<path d="m230.57 578.14h103.95v31.882h-103.95v-31.882z" fill="#4c4c4c" fill-rule="evenodd" stroke="#000" stroke-linecap="round" stroke-linejoin="round" stroke-miterlimit="2.6131" stroke-width="3.5432"/>
<path d="m330.67 527.41l51.977-20.278v173.42l-51.977-20.278v-132.86z" fill="#4c4c4c" fill-rule="evenodd" stroke="#000" stroke-linecap="round" stroke-linejoin="round" stroke-miterlimit="2.6131" stroke-width="3.5432"/>
<path d="m517.6 358.59h-19.292v34.664h19.292v-34.664z" fill="#4c4c4c" fill-rule="evenodd" stroke="#000" stroke-linecap="round" stroke-linejoin="round" stroke-miterlimit="2.6131" stroke-width="3.5432"/>
<path d="m349.77 649.9l143.71-13.519-22.401 93.668h-121.31v-80.149zm53.346 15.11h71.853l-11.613 49.174h-56.612l-13.79-27.319 10.161-21.855z" fill="#4c4c4c" fill-rule="evenodd" stroke="#000" stroke-linecap="round" stroke-linejoin="round" stroke-miterlimit="2.6131" stroke-width="3.5432"/>
<path d="m409.37 667.07c3.7567-0.82333 7.5134-1.6467 11.27-2.4698 0.72727 13.307 5.1637 22.828 13.312 28.562-2.0814 1.6215-4.1622 3.243-6.2431 4.8658-13.775-4.9093-16.824-17.393-18.339-30.958z" fill="#4c4c4c" fill-rule="evenodd" stroke="#000" stroke-linecap="round" stroke-linejoin="round" stroke-miterlimit="2.6131" stroke-width="3.5432"/>
<path d="m500.7 675.53c16.227-12.16 39.248-15.368 55.475-27.528 8.0204 70.197 24.04 123.54 58.025 174.28-15.015 15.824-26.385 33.489-42.611 45.649-36.432-36.713-66.938-106.96-70.888-192.4z" fill="#4c4c4c" fill-rule="evenodd" stroke="#000" stroke-linecap="round" stroke-linejoin="round" stroke-miterlimit="2.6131" stroke-width="3.5432"/>
<path d="m516.05 701.53c11.109-8.3249 22.623-6.6851 33.732-15.01 5.4911 48.059 24.103 98.644 47.369 133.38-10.28 10.834-13.817 16.533-24.926 24.858-24.942-25.134-50.924-82.179-56.176-143.23z" fill="#4c4c4c" fill-rule="evenodd" stroke="#000" stroke-linecap="round" stroke-linejoin="round" stroke-miterlimit="2.6131" stroke-width="3.5432"/>
<path d="m488.26 628.15l75.38-16.008 7.5944 81.066-75.38 16.008-7.5944-81.066z" fill="#4c4c4c" fill-rule="evenodd" stroke="#000" stroke-linecap="round" stroke-linejoin="round" stroke-miterlimit="2.6131" stroke-width="3.5432"/>
<path d="m488.76 692.12l84.803-18.009 2.6582 28.373-84.803 18.01-2.6577-28.374z" fill="#4c4c4c" fill-rule="evenodd" stroke="#000" stroke-linecap="round" stroke-linejoin="round" stroke-miterlimit="2.6131" stroke-width="3.5432"/>
<path d="m376.49 537.32h579.28v33.042h-579.28v-33.042z" fill="#808080" fill-rule="evenodd" stroke="#000" stroke-linecap="round" stroke-linejoin="round" stroke-miterlimit="2.6131" stroke-width="3.5432"/>
<path d="m376.49 502.53h299.31v33.042h-299.31v-33.042z" fill="#808080" fill-rule="evenodd" stroke="#000" stroke-linecap="round" stroke-linejoin="round" stroke-miterlimit="2.6131" stroke-width="3.5432"/>
<path d="m957.46 593.92h-313.23v63.427h313.23v-63.427z" fill="#4c4c4c" fill-rule="evenodd" stroke="#000" stroke-linecap="round" stroke-linejoin="round" stroke-miterlimit="2.6131" stroke-width="3.5432"/>
<path d="m382.74 543.68h568.04v10.166h-568.04v-10.166z" fill="#b3b3b3" fill-rule="evenodd" stroke="null"/>
<path d="m380.98 508.88h290.92v10.166h-290.92v-10.166z" fill="#b3b3b3" fill-rule="evenodd" stroke="null"/>
<path d="m952.76 606.12h-304.45v19.516h304.45v-19.516z" fill="#666" fill-rule="evenodd" stroke="null"/>
<path d="m410.24 596.49v-46.168h29.348v46.168c0 12.151-6.6031 22.094-14.674 22.094v0c-8.0712 0-14.674-9.9412-14.674-22.094z" fill="#333" fill-rule="evenodd" stroke="#000" stroke-linecap="round" stroke-linejoin="round" stroke-miterlimit="2.6131" stroke-width="3.5432"/>
<path d="m361.82 535.33h243.33v79.822l-239.25 49.121-4.0782-128.94z" fill="#666" fill-rule="evenodd" stroke="#000" stroke-linecap="round" stroke-linejoin="round" stroke-miterlimit="2.6131" stroke-width="3.5432"/>
<path d="m355.03 555.8h243.33v26.607l-239.25 16.374-4.0782-42.981z" fill="#666" fill-rule="evenodd" stroke="#000" stroke-linecap="round" stroke-linejoin="round" stroke-miterlimit="2.6131" stroke-width="3.5432"/>
<path d="m432.17 386.92h193.15v31.423h-193.15v-31.423z" fill="#4c4c4c" fill-rule="evenodd" stroke="#000" stroke-linecap="round" stroke-linejoin="round" stroke-miterlimit="2.6131" stroke-width="3.5432"/>
<path d="m488.72 411.95h-19.292v49.419h19.292v-49.419z" fill="#4c4c4c" fill-rule="evenodd" stroke="#000" stroke-linecap="round" stroke-linejoin="round" stroke-miterlimit="2.6131" stroke-width="3.5432"/>
<path d="m546.82 411.95h-19.292v49.419h19.292v-49.419z" fill="#4c4c4c" fill-rule="evenodd" stroke="#000" stroke-linecap="round" stroke-linejoin="round" stroke-miterlimit="2.6131" stroke-width="3.5432"/>
<path d="m573.89 384.9l64.351-31.818v99.095l-64.351-31.822v-35.455z" fill="#4c4c4c" fill-rule="evenodd" stroke="#000" stroke-linecap="round" stroke-linejoin="round" stroke-miterlimit="2.6131" stroke-width="3.5432"/>
<path d="m444.26 381.68l-64.351-6.7591v58.034l64.351-6.7593v-44.515z" fill="#4c4c4c" fill-rule="evenodd" stroke="#000" stroke-linecap="round" stroke-linejoin="round" stroke-miterlimit="2.6131" stroke-width="3.5432"/>
<path d="m671.28 353.09h-33.045v99.095h33.045v-99.095z" fill="#4c4c4c" fill-rule="evenodd" stroke="#000" stroke-linecap="round" stroke-linejoin="round" stroke-miterlimit="2.6131" stroke-width="3.5432"/>
<path d="m671.28 353.09h15.261v99.095h-15.261v-99.095z" fill="#4c4c4c" fill-rule="evenodd" stroke="#000" stroke-linecap="round" stroke-linejoin="round" stroke-miterlimit="2.6131" stroke-width="3.5432"/>
<path d="m346.87 374.93h33.045v58.034h-33.045v-58.034z" fill="#4c4c4c" fill-rule="evenodd" stroke="#000" stroke-linecap="round" stroke-linejoin="round" stroke-miterlimit="2.6131" stroke-width="3.5432"/>
<path d="m496.54 377.92h-34.938v49.419h34.938v-49.419z" fill="#4c4c4c" fill-rule="evenodd" stroke="#000" stroke-linecap="round" stroke-linejoin="round" stroke-miterlimit="2.6131" stroke-width="3.5432"/>
<path d="m554.64 377.92h-34.938v49.419h34.938v-49.419z" fill="#4c4c4c" fill-rule="evenodd" stroke="#000" stroke-linecap="round" stroke-linejoin="round" stroke-miterlimit="2.6131" stroke-width="3.5432"/>
<path d="m479.07 394.37c3.0321 0 5.4911 3.7023 5.4911 8.2674s-2.459 8.2672-5.4911 8.2672c-3.0321 0-5.4909-3.7021-5.4909-8.2672s2.4588-8.2674 5.4909-8.2674z" fill="#4c4c4c" fill-rule="evenodd" stroke="#000" stroke-linecap="round" stroke-linejoin="round" stroke-miterlimit="2.6131" stroke-width="3.5432"/>
<path d="m537.17 394.37c3.0321 0 5.4911 3.7023 5.4911 8.2674s-2.459 8.2672-5.4911 8.2672c-3.0321 0-5.4909-3.7021-5.4909-8.2672s2.4588-8.2674 5.4909-8.2674z" fill="#4c4c4c" fill-rule="evenodd" stroke="#000" stroke-linecap="round" stroke-linejoin="round" stroke-miterlimit="2.6131" stroke-width="3.5432"/>
<path d="m379.35 627.6c3.0321 0 5.4909 3.7021 5.4909 8.2674 0 4.5651-2.4588 8.2671-5.4909 8.2671-3.0321 0-5.4911-3.7019-5.4911-8.2671 0-4.5653 2.459-8.2674 5.4911-8.2674z" fill="#808080" fill-rule="evenodd" stroke="#000" stroke-linecap="round" stroke-linejoin="round" stroke-miterlimit="2.6131" stroke-width="3.5432"/>
<path d="m967.02 535.88h-14.026v35.931h14.026v-35.931z" fill="#333" fill-rule="evenodd" stroke="#000" stroke-linecap="round" stroke-linejoin="round" stroke-miterlimit="2.6131" stroke-width="3.5432"/>
<path d="m963.51 540.64h-7.0129v11.448h7.0129v-11.448z" fill="#b3b3b3" fill-rule="evenodd" stroke="null"/>
<path d="m1150.4 526.94h-166.18v53.805h166.18v-53.805z" fill="#333" fill-rule="evenodd" stroke="#000" stroke-linecap="round" stroke-linejoin="round" stroke-miterlimit="2.6131" stroke-width="3.5432"/>
<path d="m1150.4 526.94h15.145v53.805h-15.145v-53.805z" fill="#333" fill-rule="evenodd" stroke="#000" stroke-linecap="round" stroke-linejoin="round" stroke-miterlimit="2.6131" stroke-width="3.5432"/>
<path d="m1146 534.07h-157.52v17.143h157.52v-17.143z" fill="#b3b3b3" fill-rule="evenodd" stroke="null"/>
<path d="m1153.5 534.07h8.9263v17.143h-8.9263v-17.143z" fill="#b3b3b3" fill-rule="evenodd" stroke="null"/>
<path d="m967.5 533.7l16.702-6.7595v53.805l-16.702-6.7593v-40.287z" fill="#333" fill-rule="evenodd" stroke="#000" stroke-linecap="round" stroke-linejoin="round" stroke-miterlimit="2.6131" stroke-width="3.5432"/>
<path d="m301.49 847.26c-5.2082-33.764 40.17-98.655 41.884-170.78 10.036-0.75637 17.188-0.19343 17.669 3.5575 2.6447 20.631 6.9816 37.984 25.458 36.566 8.3424-0.63944 17.09 0.67454 17.96 6.1876 2.8704 18.209-1.4143 25.453-6.2413 26.248-7.175 1.181-13.837 8.5194-14.261 23.575-0.12214 4.3559-0.26813 13.62-0.033323 18.283 0.61862 12.273-5.0353 8.5496-1.7594 26.233 1.7361 4.8154 6.8064 11.046 7.694 15.417 1.7963 8.847-3.8115 8.2631 0.67754 21.823-19.928 7.5996-67.368 17.647-89.047-7.1061h6.3e-5z" fill="#333" fill-rule="evenodd" stroke="#000" stroke-linecap="round" stroke-linejoin="round" stroke-miterlimit="2.6131" stroke-width="3.5432"/>
<path d="m398.57 723c-30.919 3.4473-41.483-8.4748-47.833-42.725v10.548c-0.044092 33.302 15.615 44.089 47.833 42.725v-10.548" fill="#666" fill-rule="evenodd" stroke="null"/>
<path d="m389.23 842.34c-22.823 1.7296-45.502 3.0335-63.804-8.8479 1.3993-36.234 21.268-54.773 26.865-89.743 12.593 7.5841 26.305 10.112 41.137 7.5841" fill="none" stroke="#000" stroke-linecap="round" stroke-linejoin="round" stroke-miterlimit="2.6131" stroke-width="3.5432"/>
<path d="m629.99 503.14h249.01l8.9789 44.556v44.556h-266.97v-44.556l8.9789-44.556z" fill="#4c4c4c" fill-rule="evenodd" stroke="#000" stroke-linecap="round" stroke-linejoin="round" stroke-miterlimit="2.6131" stroke-width="3.5432"/>
<path d="m605.47 591.51h221.64v74.53h-221.64v-74.53z" fill="#4c4c4c" fill-rule="evenodd" stroke="#000" stroke-linecap="round" stroke-linejoin="round" stroke-miterlimit="2.6131" stroke-width="3.5432"/>
<path d="m620.09 577.96h192.38v105.02h-192.38v-105.02z" fill="#4c4c4c" fill-rule="evenodd" stroke="null"/>
<g transform="matrix(1.5838 0 0 -2.3845 44.545 5691.1)" stroke="null">
<g clip-path="url(#a)" stroke="null">
<path d="m360.56 2122.3h127.87v-30.546h-127.87v30.546z" fill="#333" fill-rule="evenodd" stroke="null"/>
</g>
</g>
<path d="m620.09 577.96h192.38v105.02h-192.38v-105.02z" fill="none" stroke="#000" stroke-linecap="round" stroke-linejoin="round" stroke-miterlimit="2.6131" stroke-width="3.5432"/>
<path d="m625.72 586.43h181.13v20.326h-181.13v-20.326z" fill="#808080" fill-rule="evenodd" stroke="null"/>
<path d="m639.84 623.99v0c2.7825 0 5.0587 3.4268 5.0587 7.6162v29.619c0 4.1897-2.2762 7.6166-5.0587 7.6166v0c-2.7825 0-5.0587-3.4268-5.0587-7.6166v-29.619c0-4.1893 2.2762-7.6162 5.0587-7.6162z" fill="#333" fill-rule="evenodd" stroke="#000" stroke-linecap="round" stroke-linejoin="round" stroke-miterlimit="2.6131" stroke-width="3.5432"/>
<path d="m658.95 623.99v0c2.7825 0 5.0587 3.4268 5.0587 7.6162v29.619c0 4.1897-2.2762 7.6166-5.0587 7.6166v0c-2.7825 0-5.0587-3.4268-5.0587-7.6166v-29.619c0-4.1893 2.2762-7.6162 5.0587-7.6162z" fill="#333" fill-rule="evenodd" stroke="#000" stroke-linecap="round" stroke-linejoin="round" stroke-miterlimit="2.6131" stroke-width="3.5432"/>
<path d="m678.06 623.99v0c2.7827 0 5.0587 3.4268 5.0587 7.6162v29.619c0 4.1897-2.276 7.6166-5.0587 7.6166v0c-2.7825 0-5.0586-3.4268-5.0586-7.6166v-29.619c0-4.1893 2.276-7.6162 5.0586-7.6162z" fill="#333" fill-rule="evenodd" stroke="#000" stroke-linecap="round" stroke-linejoin="round" stroke-miterlimit="2.6131" stroke-width="3.5432"/>
<path d="m697.17 623.99v0c2.7825 0 5.0586 3.4268 5.0586 7.6162v29.619c0 4.1897-2.276 7.6166-5.0586 7.6166v0c-2.7825 0-5.0587-3.4268-5.0587-7.6166v-29.619c0-4.1893 2.2762-7.6162 5.0587-7.6162z" fill="#333" fill-rule="evenodd" stroke="#000" stroke-linecap="round" stroke-linejoin="round" stroke-miterlimit="2.6131" stroke-width="3.5432"/>
<path d="m716.29 623.99v0c2.7825 0 5.0587 3.4268 5.0587 7.6162v29.619c0 4.1897-2.2762 7.6166-5.0587 7.6166v0c-2.7825 0-5.0587-3.4268-5.0587-7.6166v-29.619c0-4.1893 2.2762-7.6162 5.0587-7.6162z" fill="#333" fill-rule="evenodd" stroke="#000" stroke-linecap="round" stroke-linejoin="round" stroke-miterlimit="2.6131" stroke-width="3.5432"/>
<path d="m735.4 623.99v0c2.7825 0 5.0587 3.4268 5.0587 7.6162v29.619c0 4.1897-2.2762 7.6166-5.0587 7.6166v0c-2.7825 0-5.0587-3.4268-5.0587-7.6166v-29.619c0-4.1893 2.2762-7.6162 5.0587-7.6162z" fill="#333" fill-rule="evenodd" stroke="#000" stroke-linecap="round" stroke-linejoin="round" stroke-miterlimit="2.6131" stroke-width="3.5432"/>
<path d="m754.51 623.99v0c2.7825 0 5.0587 3.4268 5.0587 7.6162v29.619c0 4.1897-2.2762 7.6166-5.0587 7.6166v0c-2.7825 0-5.0587-3.4268-5.0587-7.6166v-29.619c0-4.1893 2.2762-7.6162 5.0587-7.6162z" fill="#333" fill-rule="evenodd" stroke="#000" stroke-linecap="round" stroke-linejoin="round" stroke-miterlimit="2.6131" stroke-width="3.5432"/>
<path d="m773.62 623.99v0c2.7827 0 5.0587 3.4268 5.0587 7.6162v29.619c0 4.1897-2.276 7.6166-5.0587 7.6166v0c-2.7825 0-5.0586-3.4268-5.0586-7.6166v-29.619c0-4.1893 2.276-7.6162 5.0586-7.6162z" fill="#333" fill-rule="evenodd" stroke="#000" stroke-linecap="round" stroke-linejoin="round" stroke-miterlimit="2.6131" stroke-width="3.5432"/>
<path d="m792.73 623.99v0c2.7825 0 5.0586 3.4268 5.0586 7.6162v29.619c0 4.1897-2.276 7.6166-5.0586 7.6166v0c-2.7825 0-5.0587-3.4268-5.0587-7.6166v-29.619c0-4.1893 2.2762-7.6162 5.0587-7.6162z" fill="#333" fill-rule="evenodd" stroke="#000" stroke-linecap="round" stroke-linejoin="round" stroke-miterlimit="2.6131" stroke-width="3.5432"/>
<path d="m643.67 573.35c4.1132 0 7.4485-4.9619 7.4485-11.08s-3.3353-11.08-7.4485-11.08c-4.1132 0-7.4488 4.9619-7.4488 11.08s3.3356 11.08 7.4488 11.08zm24.829 0c4.1132 0 7.449-4.9619 7.449-11.08s-3.3357-11.08-7.449-11.08c-4.1132 0-7.4488 4.9619-7.4488 11.08s3.3356 11.08 7.4488 11.08zm-11.581-34.455c4.1132 0 7.4488-4.9621 7.4488-11.08 0-6.1185-3.3356-11.081-7.4488-11.081-4.1132 0-7.4485 4.9623-7.4485 11.081 0 6.1183 3.3353 11.08 7.4485 11.08zm36.41 34.455c4.1132 0 7.449-4.9619 7.449-11.08s-3.3357-11.08-7.449-11.08c-4.1132 0-7.4488 4.9619-7.4488 11.08s3.3356 11.08 7.4488 11.08zm-11.58-34.455c4.1127 0 7.4483-4.9621 7.4483-11.08 0-6.1185-3.3356-11.081-7.4483-11.081-4.1132 0-7.449 4.9623-7.449 11.081 0 6.1183 3.3357 11.08 7.449 11.08zm36.41 34.455c4.1132 0 7.449-4.9619 7.449-11.08s-3.3357-11.08-7.449-11.08c-4.1132 0-7.4488 4.9619-7.4488 11.08s3.3356 11.08 7.4488 11.08zm-11.581-34.455c4.1129 0 7.4485-4.9621 7.4485-11.08 0-6.1185-3.3356-11.081-7.4485-11.081-4.1132 0-7.4488 4.9623-7.4488 11.081 0 6.1183 3.3356 11.08 7.4488 11.08zm36.41 34.455c4.1132 0 7.449-4.9619 7.449-11.08s-3.3357-11.08-7.449-11.08c-4.1132 0-7.4485 4.9619-7.4485 11.08s3.3353 11.08 7.4485 11.08zm-11.581-34.455c4.1129 0 7.449-4.9621 7.449-11.08 0-6.1185-3.3361-11.081-7.449-11.081-4.1132 0-7.4493 4.9623-7.4493 11.081 0 6.1183 3.3361 11.08 7.4493 11.08z" fill="#333" fill-rule="evenodd" stroke="#000" stroke-linecap="round" stroke-linejoin="round" stroke-miterlimit="2.6131" stroke-width="3.5432"/>
<path d="m755.45 516.74c4.1132 0 7.4485 4.9623 7.4485 11.081 0 6.1183-3.3353 11.08-7.4485 11.08-4.1132 0-7.4488-4.9621-7.4488-11.08 0-6.1185 3.3356-11.081 7.4488-11.081zm24.829 0c4.1132 0 7.449 4.9623 7.449 11.081 0 6.1183-3.3357 11.08-7.449 11.08-4.1132 0-7.4488-4.9621-7.4488-11.08 0-6.1185 3.3356-11.081 7.4488-11.081zm-11.581 34.455c4.1132 0 7.4488 4.9619 7.4488 11.08s-3.3356 11.08-7.4488 11.08c-4.1132 0-7.4485-4.9619-7.4485-11.08s3.3353-11.08 7.4485-11.08zm36.41-34.455c4.1132 0 7.4488 4.9623 7.4488 11.081 0 6.1183-3.3356 11.08-7.4488 11.08-4.1132 0-7.4488-4.9621-7.4488-11.08 0-6.1185 3.3356-11.081 7.4488-11.081zm-11.581 34.455c4.1129 0 7.4485 4.9619 7.4485 11.08s-3.3356 11.08-7.4485 11.08c-4.1132 0-7.4488-4.9619-7.4488-11.08s3.3356-11.08 7.4488-11.08zm36.41-34.455c4.1132 0 7.4488 4.9623 7.4488 11.081 0 6.1183-3.3356 11.08-7.4488 11.08-4.1132 0-7.449-4.9621-7.449-11.08 0-6.1185 3.3357-11.081 7.449-11.081zm-11.581 34.455c4.1127 0 7.4485 4.9619 7.4485 11.08s-3.3357 11.08-7.4485 11.08c-4.1132 0-7.4488-4.9619-7.4488-11.08s3.3356-11.08 7.4488-11.08zm36.41-34.455c4.1132 0 7.4488 4.9623 7.4488 11.081 0 6.1183-3.3356 11.08-7.4488 11.08-4.1132 0-7.4485-4.9621-7.4485-11.08 0-6.1185 3.3353-11.081 7.4485-11.081zm-11.581 34.455c4.1127 0 7.449 4.9619 7.449 11.08s-3.3362 11.08-7.449 11.08c-4.1132 0-7.4493-4.9619-7.4493-11.08s3.3361-11.08 7.4493-11.08z" fill="#333" fill-rule="evenodd" stroke="#000" stroke-linecap="round" stroke-linejoin="round" stroke-miterlimit="2.6131" stroke-width="3.5432"/>
<path d="m805.42 477.5h98.83v26.453h-98.83v-26.453z" fill="#4c4c4c" fill-rule="evenodd" stroke="#000" stroke-linecap="round" stroke-linejoin="round" stroke-miterlimit="2.6131" stroke-width="3.5432"/>
<path d="m805.42 460.96h26.355v16.533h-26.355v-16.533z" fill="#4c4c4c" fill-rule="evenodd" stroke="#000" stroke-linecap="round" stroke-linejoin="round" stroke-miterlimit="2.6131" stroke-width="3.5432"/>
<path d="m439.43 459.31h120.32v18.839h-120.32v-18.839z" fill="#4c4c4c" fill-rule="evenodd" stroke="#000" stroke-linecap="round" stroke-linejoin="round" stroke-miterlimit="2.6131" stroke-width="3.5432"/>
<path d="m399.97 479.6h169.41v21.738h-169.41v-21.738z" fill="#4c4c4c" fill-rule="evenodd" stroke="#000" stroke-linecap="round" stroke-linejoin="round" stroke-miterlimit="2.6131" stroke-width="3.5432"/>
<path d="m406.71 459.31h18.288v18.839h-18.288v-18.839z" fill="#4c4c4c" fill-rule="evenodd" stroke="#000" stroke-linecap="round" stroke-linejoin="round" stroke-miterlimit="2.6131" stroke-width="3.5432"/>
<path d="m59.236 534.67h61.602 84.703 29.839v81.155h-29.839v13.043h-75.724l-53.873 83.329h-16.708v-83.329-13.043-81.155zm23.101 17.39c4.7835 0 8.6628 5.8406 8.6628 13.043s-3.8793 13.043-8.6628 13.043c-4.7835 0-8.6628-5.8408-8.6628-13.043s3.8793-13.043 8.6628-13.043zm30.318 0c4.7835 0 8.6629 5.8406 8.6629 13.043s-3.8795 13.043-8.6629 13.043c-4.7835 0-8.6628-5.8408-8.6628-13.043s3.8793-13.043 8.6628-13.043zm30.318 0c4.7836 0 8.6629 5.8406 8.6629 13.043s-3.8793 13.043-8.6629 13.043c-4.7835 0-8.6628-5.8408-8.6628-13.043s3.8793-13.043 8.6628-13.043zm30.318 0c4.7835 0 8.6628 5.8406 8.6628 13.043s-3.8793 13.043-8.6628 13.043c-4.7835 0-8.6629-5.8408-8.6629-13.043s3.8795-13.043 8.6629-13.043zm30.318 0c4.7835 0 8.6628 5.8406 8.6628 13.043s-3.8793 13.043-8.6628 13.043c-4.7835 0-8.6628-5.8408-8.6628-13.043s3.8793-13.043 8.6628-13.043z" fill="#4c4c4c" fill-rule="evenodd" stroke="#000" stroke-linecap="round" stroke-linejoin="round" stroke-miterlimit="2.6131" stroke-width="3.5432"/>
<path d="m47.686 527.91h11.55v188.39h-11.55v-188.39z" fill="#4c4c4c" fill-rule="evenodd" stroke="#000" stroke-linecap="round" stroke-linejoin="round" stroke-miterlimit="2.6131" stroke-width="3.5432"/>
<path d="m117.95 633.21l9.6252 14.492-35.614 55.069-11.55-13.043 37.539-56.518z" fill="#4c4c4c" fill-rule="evenodd" stroke="#000" stroke-linecap="round" stroke-linejoin="round" stroke-miterlimit="2.6131" stroke-width="3.5432"/>
<path d="m76.562 591.19h37.539c3.1767 0 5.7752 3.9121 5.7752 8.6951v0c0 4.7828-2.5985 8.6951-5.7752 8.6951h-37.539c-3.1767 0-5.7752-3.9123-5.7752-8.6951v0c0-4.783 2.5985-8.6951 5.7752-8.6951z" fill="#666" fill-rule="evenodd" stroke="#000" stroke-linecap="round" stroke-linejoin="round" stroke-miterlimit="2.6131" stroke-width="3.5432"/>
</g>
</svg>
