<?xml version="1.0" encoding="UTF-8"?>
<svg preserveAspectRatio="none" version="1.1" viewBox="0 0 64 64" xmlns="http://www.w3.org/2000/svg" xmlns:cc="http://creativecommons.org/ns#" xmlns:dc="http://purl.org/dc/elements/1.1/" xmlns:rdf="http://www.w3.org/1999/02/22-rdf-syntax-ns#" xmlns:xlink="http://www.w3.org/1999/xlink">
<metadata>
<rdf:RDF>
<cc:Work rdf:about="">
<dc:format>image/svg+xml</dc:format>
<dc:type rdf:resource="http://purl.org/dc/dcmitype/StillImage"/>
<dc:title/>
</cc:Work>
</rdf:RDF>
</metadata>
<defs>
<g id="a">
<path d="m1247.2 446.75 1.1 1.25h7.5l1.05-3.2-9.65 1.95m-31.25-13.1v3.5l6.25 2.4-1.6-9.75-4.65 3.85m3.45-17.4-3.45 0.7v8.25l0.3 0.35 3.15-9.3m-3.45-19.9v7.95l6-1.3-6-6.65m57.75 21.85 6.25 7.05v-8.3l-6.25 1.25m6.25 18.95v-3.5l-2.9 2.4 2.9 1.1m0-32.85v-8l-0.55-0.6-3 9.35 3.55-0.75m-31.65-20.3 5.4 6.1 2.1-6.1h-7.5m-17.35 13.65 6.5 7.35 3.15-9.3-9.65 1.95m10.9 40.5-9.65 1.95 6.55 7.35 3.1-9.3m12.25-15.6-0.3 9.85 8.65-4.6-8.35-5.25m-8.85 1.8 6.05 0.3-2.75-5.45-3.3 5.15m2.05 8.05-3.4 5.1 6.1 0.35-2.7-5.45m-16.9 9.15-5.8-1.95 1.25 6 4.55-4.05m-2.75-13.05 1.95-5.8-6 1.25 4.05 4.55m4.45-6.65 0.75 9.8 8.1-5.55-8.85-4.25m-7.4-14.25-0.35 9.85 8.65-4.6-8.3-5.25m2.55-3.45 2.6-5.55-6.15 0.6 3.55 4.95m22.2 12.45-5.25-8.35-4.6 8.7 9.85-0.35m0.05-19.7 4.9 8.5 4.9-8.5h-9.8m-3.2 2.3-3.35 5.1 6.1 0.35-2.75-5.45m20.3 28.65 5.1 3.4 0.4-6.1-5.5 2.7m1.6 7.3-4.3 8.85 9.8-0.7-5.5-8.15m-8.75 5.9 0.35-6.1-5.5 2.75 5.15 3.35m3.6-40 5.05 3.3 0.4-6.1-5.45 2.8m-6.4 15.55 0.4-6.1-5.5 2.75 5.1 3.35m10.2 3.35 3.15-9.3-9.65 1.95 6.5 7.35m6.85-32.85 1.25 6 4.55-4.05-5.8-1.95m-2.6 8.75-2.45-9.5-7 6.9 9.45 2.6m-41-10.15h-9.8l4.9 8.5 4.9-8.5m10.3 2.75-5.8-1.95 1.25 6 4.55-4.05z" fill="#2cc46c"/>
<path d="m1248.4 384h-32.35v12.35l6 6.65-6 1.3v12.65l3.45-0.7-3.15 9.3-0.3-0.35v8.45l4.65-3.85 1.6 9.75-6.25-2.4v10.85h32.35l-1.1-1.25 9.65-1.95-1.05 3.2h24.15v-10.85l-2.9-1.1 2.9-2.4v-8.4l-6.25-7.05 6.25-1.25v-12.65l-3.55 0.75 3-9.35 0.55 0.6v-12.3h-24.15l-2.1 6.1-5.4-6.1m-13.7 2.5 5.8 1.95-4.55 4.05-1.25-6m-14.3-0.8h9.8l-4.9 8.5-4.9-8.5m48.35 0.65 2.45 9.5-9.45-2.6 7-6.9m6.3 6.75-1.25-6 5.8 1.95-4.55 4.05m-4.95 17.55-3.15 9.3-6.5-7.35 9.65-1.95m-12.95-0.15-0.4 6.1-5.1-3.35 5.5-2.75m11.05-6.15-5.05-3.3 5.45-2.8-0.4 6.1m-8.3 30.6-0.35 6.1-5.15-3.35 5.5-2.75m4.1 9.05 4.3-8.85 5.5 8.15-9.8 0.7m7.8-12.75-5.1-3.4 5.5-2.7-0.4 6.1m-28.75-26.95l3.35-5.1 2.75 5.45-6.1-0.35m11.45 1.1-4.9-8.5h9.8l-4.9 8.5m-10.2 2.85 5.25 8.35-9.85 0.35 4.6-8.7m-14.35-9.65-2.6 5.55-3.55-4.95 6.15-0.6m-5.5 18.85 0.35-9.85 8.3 5.25-8.65 4.6m8.5 14.2-0.75-9.8 8.85 4.25-8.1 5.55m-3.25-8.95-1.95 5.8-4.05-4.55 6-1.25m-5 16.9 5.8 1.95-4.55 4.05-1.25-6m19.3-2.1 3.4-5.1 2.7 5.45-6.1-0.35m7.4-12.85-6.05-0.3 3.3-5.15 2.75 5.45m2.5 7.75 0.3-9.85 8.35 5.25-8.65 4.6m-21.6 7.7 9.65-1.95-3.1 9.3-6.55-7.35m5.25-35.1-6.5-7.35 9.65-1.95-3.15 9.3z" fill="#2ecc71"/>
</g>
</defs>
<g transform="translate(-1216,-384)">
<use width="100%" height="100%" xlink:href="#a"/>
</g>
</svg>
