<?xml version="1.0" encoding="UTF-8"?>
<svg width="64" height="64" preserveAspectRatio="none" version="1.1" viewBox="0 0 63.999999 64" xmlns="http://www.w3.org/2000/svg" xmlns:cc="http://creativecommons.org/ns#" xmlns:dc="http://purl.org/dc/elements/1.1/" xmlns:rdf="http://www.w3.org/1999/02/22-rdf-syntax-ns#" xmlns:xlink="http://www.w3.org/1999/xlink">
<metadata>
<rdf:RDF>
<cc:Work rdf:about="">
<dc:format>image/svg+xml</dc:format>
<dc:type rdf:resource="http://purl.org/dc/dcmitype/StillImage"/>
<dc:title/>
</cc:Work>
</rdf:RDF>
</metadata>
<defs>
<g id="b">
<path d="m1129 785.4q-5.1 2.2-5.1 5.25 0 3 5.1 5.15 5.2 2.15 12.6 2.15 7.3 0 12.5-2.15 5.3-2.15 5.3-5.15 0-3.05-5.3-5.25-5.2-2.1-12.5-2.1-7.4 0-12.6 2.1z" fill-opacity=".05098"/>
</g>
<g id="a">
<path d="m1142.2 791.05q0.85 0 1.7-0.05l2.25 1.85-0.5-4.1q-1.65 0.3-3.45 0.3-2.9 0-5.25-0.85l-1.75 4.65 3-2.2q1.85 0.4 4 0.4m11.2-15.3q0.2 0.25 0.35 0.55 2.25 3.55 1.8 8.3-0.05 0.6-0.55 0.95-0.45 0.35-1 0.3-0.65-0.05-1-0.5-0.4-0.45-0.35-1.05 0.25-2.1-0.55-3.6-0.2 0.8-0.4 1.6-1 4.25-1.45 10.55 2.2-2.85 2.55-5.2 0.45 0.15 1.05 0.2 1.3 0.1 2.4-0.7l-0.1 0.05q1.3-0.9 1.4-2.4 0.45-5-1.65-8.85l-2.5-0.2m-22.6-0.2-2.75-0.25q-3.2 3.2-4 8.3-0.3 1.3 0.55 2.5 0.9 1.3 2.45 1.4 1.3 0.2 2.3-0.5 0.05-0.1 0.15-0.15 0.3-0.25 0.5-0.45 1.35 4.7 1.05 6.35-0.05 0.05-0.05 0.1h0.1q1.3-6.5 1.1-13.1-2.8 1.2-3.35 4.6-0.1 0.55-0.6 0.95-0.45 0.3-1.05 0.2-0.6-0.05-0.95-0.55t-0.25-1.05q0.8-5.05 4.35-8 0.25-0.2 0.45-0.35z" fill="#b8ad90"/>
<path d="m1131.2 775.8q-0.15-0.15-0.25-0.25h-0.05q-0.2 0.15-0.45 0.35-3.55 2.95-4.35 8-0.1 0.55 0.25 1.05t0.95 0.55q0.6 0.1 1.05-0.2 0.5-0.4 0.6-0.95 0.55-3.4 3.35-4.6 0.2 6.6-1.1 13.1 2.05 0.85 4.1 0l1.75-4.65q2.35 0.85 5.25 0.85 1.8 0 3.45-0.3l0.5 4.1q1.95 1.15 4.1 0 0.45-6.3 1.45-10.55 0.2-0.8 0.4-1.6 0.8 1.5 0.55 3.6-0.05 0.6 0.35 1.05 0.35 0.45 1 0.5 0.55 0.05 1-0.3 0.5-0.35 0.55-0.95 0.45-4.75-1.8-8.3-0.15-0.3-0.35-0.55-0.05 0-0.1 0.05-4.6 4.55-11.1 4.55t-11.1-4.55m0.75-2.8q0.45 0.5 1 1.05 3.85 3.9 9.35 3.9t9.4-3.9q0.5-0.5 0.95-1v-8.75q0-4.3-3.05-7.35-3-3-7.3-3t-7.3 3q-3.05 3.05-3.05 7.35v8.7m7.2-10.6q0.65-0.65 1.5-0.7 0.05 0 0.15 0h8.5q0.05 0 0.1 0 0.15 0 0.35 0 0.75 0.1 1.3 0.7 0.75 0.7 0.75 1.7 0 0.95-0.75 1.6-0.65 0.7-1.6 0.75h-0.05q-0.05 0-0.1 0h-8.5q-0.95-0.05-1.65-0.75-0.7-0.65-0.7-1.6 0-1 0.7-1.7m7.8 6.2q0.4-0.4 0.6-0.8 0.05-0.2 0.25-0.3 0.2-0.05 0.4 0 0.15 0.05 0.3 0.25 0.05 0.2 0 0.4-0.3 0.65-0.95 1.2-1 0.75-2.45 0.75t-2.45-0.75q-0.7-0.55-0.9-1.25-0.05-0.2 0.05-0.35 0.05-0.2 0.25-0.25t0.4 0.05q0.2 0.05 0.25 0.25 0.1 0.45 0.55 0.8 0.75 0.55 1.85 0.55 1.05 0 1.85-0.55z" fill="#e0d1af"/>
<path d="m1126.6 763.8q-0.05 0.45-0.05 0.85 0 0.45 0.05 0.85 0.05 1.4 0.35 2.7 0.9 4.1 3.95 7.35 0.1 0.1 0.25 0.25 4.6 4.55 11.1 4.55t11.1-4.55q0.05-0.05 0.1-0.05 3.2-3.3 4.1-7.55 0.3-1.3 0.35-2.7 0.05-0.4 0.05-0.85 0-0.4-0.05-0.85-0.3-5.95-4.55-10.2-4.6-4.6-11.1-4.6t-11.1 4.6q-4.3 4.25-4.55 10.2m2.4 0q0.25-4.95 3.9-8.5 3.85-3.9 9.35-3.9t9.4 3.9q3.55 3.55 3.85 8.5 0.05 0.45 0.05 0.85 0 0.45-0.05 0.85-0.05 1.4-0.4 2.7-0.7 2.65-2.5 4.85-0.45 0.5-0.95 1-3.9 3.9-9.4 3.9t-9.35-3.9q-0.55-0.55-1-1.05-1.8-2.2-2.5-4.8-0.35-1.3-0.4-2.7-0.05-0.4-0.05-0.85 0-0.4 0.05-0.85z" fill="#fff"/>
<path d="m1147.5 767.8q-0.2 0.4-0.6 0.8-0.8 0.55-1.85 0.55-1.1 0-1.85-0.55-0.45-0.35-0.55-0.8-0.05-0.2-0.25-0.25-0.2-0.1-0.4-0.05t-0.25 0.25q-0.1 0.15-0.05 0.35 0.2 0.7 0.9 1.25 1 0.75 2.45 0.75t2.45-0.75q0.65-0.55 0.95-1.2 0.05-0.2 0-0.4-0.15-0.2-0.3-0.25-0.2-0.05-0.4 0-0.2 0.1-0.25 0.3m-6.9-6.1q-0.85 0.05-1.5 0.7-0.7 0.7-0.7 1.7 0 0.95 0.7 1.6 0.7 0.7 1.65 0.75h8.5q0.05 0 0.1 0h0.05q0.95-0.05 1.6-0.75 0.75-0.65 0.75-1.6 0-1-0.75-1.7-0.55-0.6-1.3-0.7-0.2 0-0.35 0-0.05 0-0.1 0h-8.5q-0.1 0-0.15 0z" fill="#af9f7a"/>
<path d="m1132.9 755.3q-3.65 3.55-3.9 8.5-0.05 0.45-0.05 0.85 0 0.45 0.05 0.85 0.05 1.4 0.4 2.7 0.7 2.6 2.5 4.8v-8.7q0-4.3 3.05-7.35 3-3 7.3-3t7.3 3q3.05 3.05 3.05 7.35v8.75q1.8-2.2 2.5-4.85 0.35-1.3 0.4-2.7 0.05-0.4 0.05-0.85 0-0.4-0.05-0.85-0.3-4.95-3.85-8.5-3.9-3.9-9.4-3.9t-9.35 3.9m-8.3 8.45v-0.15q-0.05 0.55-0.05 1.05t0.05 0.95q0.05 1.55 0.4 3.05 0.8 3.65 3.1 6.65l2.75 0.25h0.05q-3.05-3.25-3.95-7.35-0.3-1.3-0.35-2.7-0.05-0.4-0.05-0.85 0-0.4 0.05-0.85 0.25-5.95 4.55-10.2 4.6-4.6 11.1-4.6t11.1 4.6q4.25 4.25 4.55 10.2 0.05 0.45 0.05 0.85 0 0.45-0.05 0.85-0.05 1.4-0.35 2.7-0.9 4.25-4.1 7.55l2.5 0.2q2.7-3.3 3.55-7.35v0.05q0.35-1.5 0.4-3.05 0.05-0.45 0.05-0.95t-0.05-1.05q-0.4-6.65-5.1-11.4-5.2-5.2-12.55-5.2t-12.5 5.2q-4.85 4.8-5.15 11.55z" fill="#ccc"/>
</g>
</defs>
<g transform="translate(-1109.9 -740.48)">
<use width="100%" height="100%" xlink:href="#b"/>
<use width="100%" height="100%" xlink:href="#a"/>
</g>
</svg>
