<?xml version="1.0" encoding="UTF-8"?>
<svg preserveAspectRatio="none" version="1.1" viewBox="0 0 64 64" xmlns="http://www.w3.org/2000/svg" xmlns:cc="http://creativecommons.org/ns#" xmlns:dc="http://purl.org/dc/elements/1.1/" xmlns:rdf="http://www.w3.org/1999/02/22-rdf-syntax-ns#" xmlns:xlink="http://www.w3.org/1999/xlink">
<metadata>
<rdf:RDF>
<cc:Work rdf:about="">
<dc:format>image/svg+xml</dc:format>
<dc:type rdf:resource="http://purl.org/dc/dcmitype/StillImage"/>
<dc:title/>
</cc:Work>
</rdf:RDF>
</metadata>
<defs>
<g id="a">
<path d="m1329.4 454.6q-0.6-0.6-1.45-0.6h-32q-0.85 0-1.4 0.6l-8 8q-0.6 0.55-0.6 1.4v32q0 0.85 0.6 1.45l8 8q0.55 0.55 1.4 0.55h32q0.85 0 1.45-0.55l8-8q0.55-0.6 0.55-1.45v-32q0-0.85-0.55-1.4l-8-8m-1.45 1.4 8 8v32l-8 8h-32l-8-8v-32l8-8z" fill="#758c8e"/>
<path d="m1296 504 8-8-8-8-8 8 8 8m24-8 8 8 8-8-8-8-8 8m-16-32-8-8-8 8 8 8 8-8m32 0-8-8-8 8 8 8z" fill="#a3c3c6"/>
<path d="m1296 504h32l-8-8h-16l-8 8m32-32v16l8 8v-32l-8 8m-32 16v-16l-8-8v32l8-8m24-24 8-8h-32l8 8z" fill="#94b1b4"/>
<path d="m1296 472v16l8 8h16l8-8v-16l-8-8h-16z" fill="#89a4a6"/>
</g>
</defs>
<g transform="matrix(1.2308 0 0 1.2308 -1582.8 -558.77)">
<use width="100%" height="100%" xlink:href="#a"/>
</g>
</svg>
