<svg id="svg" version="1.1" width="400" height="400" xmlns:xlink="http://www.w3.org/1999/xlink" ><g id="svgg"><path id="path0" d="M191.979 15.553 C 185.495 16.069,181.903 16.542,177.107 17.513 C 141.665 24.685,103.031 52.137,85.583 82.547 C 75.709 99.757,72.080 116.438,72.087 144.583 C 72.094 172.992,76.330 199.681,84.887 225.245 L 86.469 229.969 85.343 231.703 C 79.658 240.457,80.292 244.838,90.224 265.452 C 94.889 275.133,97.214 280.246,98.164 282.917 C 98.510 283.889,98.694 286.068,99.381 297.292 C 100.484 315.308,100.935 319.798,102.302 326.369 C 104.474 336.813,106.152 338.447,123.854 347.357 C 135.162 353.048,134.601 352.673,141.091 358.873 C 155.322 372.469,156.978 373.893,161.667 376.562 C 172.585 382.778,185.014 382.558,195.477 375.965 L 197.725 374.549 199.748 375.899 C 214.149 385.515,232.553 383.337,245.938 370.433 C 247.198 369.217,251.684 364.870,255.906 360.771 C 260.597 356.216,264.162 352.928,265.073 352.313 C 266.784 351.159,270.631 348.770,277.188 344.791 C 293.074 335.150,295.148 332.530,296.562 320.314 C 297.752 310.033,297.361 298.622,295.399 286.413 L 294.974 283.763 297.675 277.455 C 304.889 260.603,309.337 249.018,310.732 243.446 C 311.678 239.666,311.211 237.476,308.482 232.893 L 307.165 230.681 309.888 222.476 C 324.927 177.162,330.396 140.199,325.321 118.164 C 319.779 94.099,302.969 66.852,281.996 47.941 C 257.338 25.706,222.395 13.134,191.979 15.553 M212.911 21.022 C 217.315 21.861,225.691 31.778,229.239 40.355 C 230.924 44.427,233.561 51.435,233.941 52.852 C 234.389 54.519,237.244 57.595,245.313 65.106 C 251.536 70.899,255.995 75.425,257.167 77.137 C 259.463 80.491,257.549 93.148,252.404 108.646 L 251.297 111.979 253.577 119.551 L 255.857 127.123 253.079 129.968 C 247.416 135.766,245.089 138.983,238.983 149.454 C 233.807 158.331,234.137 157.827,233.377 158.016 C 232.314 158.281,227.723 160.589,225.892 161.779 C 217.657 167.131,213.722 174.147,213.395 184.063 C 212.672 205.946,227.980 222.831,250.982 225.522 C 276.029 228.452,289.164 214.998,289.932 185.625 C 290.260 173.080,287.369 165.559,280.449 160.959 C 272.846 155.905,257.642 154.228,240.681 156.574 C 239.368 156.755,238.255 156.866,238.210 156.821 C 238.119 156.730,241.399 151.765,243.404 148.958 C 247.759 142.864,252.466 136.941,256.949 131.915 C 258.422 130.263,259.806 128.508,260.025 128.013 L 260.423 127.114 258.127 119.533 L 255.832 111.951 257.623 107.798 C 258.608 105.515,259.488 103.569,259.577 103.474 C 259.666 103.380,260.254 104.275,260.883 105.463 C 263.924 111.210,266.862 115.022,275.313 124.190 C 279.984 129.258,283.405 133.172,285.397 135.729 L 287.019 137.813 288.086 141.979 C 288.672 144.271,289.522 147.740,289.975 149.688 C 290.781 153.159,290.847 153.330,293.297 158.290 C 294.672 161.073,296.043 164.026,296.342 164.852 L 296.888 166.354 295.542 184.097 L 294.196 201.839 295.025 204.722 C 296.873 211.146,297.149 213.331,296.468 216.146 C 295.191 221.419,295.637 222.881,300.963 230.864 C 304.586 236.295,305.941 238.964,305.901 240.595 C 305.823 243.813,303.405 250.501,297.869 262.813 C 293.038 273.556,290.775 279.040,289.897 282.128 C 289.490 283.557,289.684 287.654,290.529 295.521 C 290.813 298.156,291.203 301.813,291.396 303.646 C 291.840 307.845,291.897 317.515,291.495 320.417 C 290.422 328.173,290.308 328.474,287.306 331.463 C 284.539 334.217,282.912 335.430,273.345 341.870 C 259.141 351.431,261.884 349.058,248.323 363.525 C 234.589 378.178,221.645 382.568,206.771 377.618 C 203.189 376.427,198.718 374.402,198.591 373.914 C 198.459 373.410,198.331 373.433,196.697 374.256 C 188.794 378.235,180.337 379.981,174.421 378.852 C 165.171 377.088,151.562 367.854,143.721 358.021 C 139.091 352.216,133.592 348.166,123.392 343.050 C 115.392 339.038,109.640 334.926,108.536 332.431 C 107.043 329.056,104.570 308.388,103.970 294.271 C 103.564 284.703,102.081 279.384,95.520 263.958 C 90.303 251.691,88.135 245.291,88.057 241.930 C 88.023 240.422,88.516 239.481,92.441 233.574 C 97.946 225.287,98.795 222.682,97.804 217.116 C 97.265 214.087,97.740 210.896,99.670 204.570 L 100.150 202.995 99.873 197.904 C 97.797 159.758,96.164 139.554,94.832 135.543 C 94.150 133.486,90.775 134.910,89.456 137.811 C 88.323 140.305,88.295 139.524,90.719 172.170 C 92.918 201.784,92.928 201.954,92.596 203.629 C 91.842 207.430,90.359 213.177,90.204 212.897 C 89.624 211.843,86.284 198.817,84.921 192.292 C 78.148 159.889,77.812 123.847,84.087 102.837 C 90.003 83.031,104.507 64.267,126.771 47.620 C 148.317 31.509,169.034 22.906,191.250 20.843 C 193.879 20.599,211.450 20.744,212.911 21.022 M222.188 22.526 C 230.115 24.082,243.991 28.816,251.991 32.693 C 285.048 48.712,315.740 86.521,322.490 119.538 C 326.094 137.168,323.683 161.685,314.886 196.877 C 312.487 206.475,306.375 228.277,305.971 228.682 C 305.826 228.827,303.820 226.197,302.637 224.314 C 301.195 222.017,301.088 221.525,300.949 216.556 C 300.776 210.369,300.149 205.742,299.076 202.738 C 298.785 201.919,298.783 201.278,299.060 196.279 C 300.742 165.979,301.632 128.682,300.543 134.115 C 299.932 137.164,297.474 155.822,297.271 158.954 C 297.221 159.728,293.683 146.132,292.213 139.514 C 291.290 135.359,291.547 135.757,285.302 128.819 C 279.687 122.581,264.076 105.081,261.799 102.472 L 260.411 100.881 260.801 99.972 C 262.157 96.808,262.590 93.889,262.589 87.917 C 262.588 83.520,262.271 77.358,261.970 75.905 C 261.916 75.646,260.356 74.150,258.282 72.367 C 248.745 64.173,241.920 57.381,238.266 52.448 C 237.303 51.148,232.947 41.160,231.440 36.796 L 230.729 34.738 226.979 31.168 C 223.078 27.454,219.634 24.424,217.760 23.055 C 217.159 22.616,216.667 22.161,216.667 22.044 C 216.667 21.755,219.541 22.006,222.188 22.526 M140.147 155.631 C 117.115 157.005,108.598 165.888,109.759 187.327 C 110.864 207.723,117.282 219.370,129.940 223.951 C 138.563 227.071,151.513 226.277,162.190 221.972 C 164.446 221.063,164.302 221.034,164.586 222.448 C 165.408 226.552,166.350 230.661,166.990 232.928 L 167.727 235.544 166.386 239.387 C 165.649 241.500,164.720 244.120,164.323 245.208 L 163.601 247.188 161.853 247.331 C 154.581 247.927,150.694 248.843,148.667 250.437 C 148.368 250.673,146.435 253.366,144.373 256.422 C 142.310 259.479,140.499 262.139,140.348 262.334 C 140.196 262.529,139.469 262.908,138.731 263.176 C 134.999 264.531,132.127 267.458,127.033 275.104 C 123.495 280.414,121.497 282.710,120.417 282.706 C 117.764 282.695,112.799 276.989,105.551 265.625 C 102.600 260.998,102.663 261.070,102.820 262.500 C 103.645 270.025,113.733 284.376,119.389 286.070 C 119.949 286.238,120.246 286.460,120.306 286.753 C 120.355 286.992,120.594 288.172,120.838 289.375 C 121.329 291.801,125.216 308.458,126.353 313.004 C 127.613 318.046,128.018 318.636,133.903 323.983 C 142.530 331.821,151.311 337.254,164.167 342.709 C 172.183 346.109,189.322 351.913,189.923 351.430 C 190.063 351.317,190.357 351.317,190.655 351.430 C 193.630 352.561,203.792 352.952,208.620 352.121 C 227.396 348.890,259.527 333.704,268.538 323.802 C 275.216 316.464,279.076 301.707,278.123 287.156 C 277.932 284.242,277.863 284.021,277.477 285.089 C 277.188 285.889,276.978 285.978,276.406 285.543 C 276.074 285.291,276.233 285.079,278.146 283.206 C 282.016 279.417,285.060 275.265,287.704 270.168 C 289.093 267.489,290.697 263.958,290.525 263.958 C 290.479 263.958,289.188 265.529,287.655 267.448 C 279.783 277.310,273.996 283.333,272.395 283.333 C 271.714 283.333,271.110 282.302,267.739 275.383 C 262.610 264.858,260.120 262.192,255.417 262.189 C 249.613 262.185,247.449 265.555,243.848 280.208 C 242.539 285.532,241.635 288.792,241.288 289.442 C 238.839 294.023,229.244 298.005,213.854 300.826 C 200.186 303.331,183.165 302.276,170.267 298.125 L 168.138 297.440 167.583 295.959 C 166.298 292.536,163.679 286.141,162.720 284.087 L 161.687 281.876 165.101 273.248 L 168.514 264.619 167.934 257.222 L 167.354 249.824 168.257 244.652 C 168.754 241.807,169.162 239.352,169.164 239.196 C 169.168 238.781,169.473 238.953,171.771 240.671 C 176.082 243.895,180.221 246.451,182.135 247.071 C 182.626 247.230,182.917 247.454,182.917 247.672 C 182.916 248.709,181.992 255.881,181.553 258.263 C 180.798 262.346,180.604 261.904,183.594 262.891 C 188.501 264.510,191.524 265.148,192.604 264.792 C 195.630 263.793,196.861 257.938,196.567 245.938 C 196.146 228.723,194.856 223.475,191.470 225.202 C 189.078 226.423,187.485 229.944,184.563 240.472 C 183.744 243.425,183.011 245.879,182.933 245.927 C 182.856 245.975,181.954 245.016,180.928 243.797 C 179.902 242.577,177.599 240.076,175.810 238.238 C 172.054 234.379,170.095 231.162,166.589 223.096 C 165.398 220.357,165.398 220.331,166.615 219.712 C 180.476 212.664,188.437 196.089,185.935 179.487 C 183.355 162.369,167.312 154.010,140.147 155.631 M204.834 225.119 C 203.021 226.389,202.037 231.744,201.645 242.487 C 201.149 256.084,202.390 263.068,205.577 264.610 L 206.524 265.069 208.627 264.600 C 216.091 262.937,217.019 262.542,217.711 260.729 C 218.840 257.771,214.033 237.421,210.419 229.861 C 208.443 225.728,206.419 224.009,204.834 225.119 M163.122 257.031 L 163.119 264.479 160.111 273.021 L 157.103 281.563 158.527 284.285 C 160.542 288.137,162.980 292.482,164.411 294.769 C 165.084 295.846,165.593 296.768,165.542 296.820 C 165.211 297.150,156.076 292.968,154.814 291.910 L 154.108 291.317 153.631 287.690 C 151.800 273.757,149.836 268.667,144.707 264.563 C 144.077 264.058,143.557 263.587,143.552 263.515 C 143.510 262.960,151.856 254.607,153.199 253.859 C 154.537 253.115,162.586 249.595,162.969 249.587 C 163.055 249.585,163.124 252.935,163.122 257.031 M243.612 296.471 C 243.722 297.350,243.687 297.447,243.144 297.768 L 242.556 298.115 243.157 299.814 C 244.089 302.445,245.208 308.805,245.208 311.461 C 245.208 312.278,240.854 313.958,238.737 313.958 C 233.323 313.958,232.202 310.057,235.199 301.651 L 236.059 299.239 238.290 297.563 C 239.517 296.641,241.130 295.495,241.874 295.015 L 243.227 294.142 243.360 294.832 C 243.432 295.211,243.546 295.948,243.612 296.471 M156.896 298.933 C 158.088 299.492,159.739 300.212,160.566 300.532 L 162.070 301.114 162.677 302.797 C 164.811 308.709,164.165 311.646,160.521 312.595 C 158.772 313.051,158.275 313.008,155.659 312.180 L 153.333 311.444 153.333 310.344 C 153.333 309.739,153.568 306.828,153.854 303.875 C 154.141 300.922,154.375 298.373,154.375 298.211 C 154.375 297.778,154.526 297.821,156.896 298.933 M227.997 302.699 C 229.947 303.441,232.732 314.102,231.369 315.608 C 229.519 317.653,223.408 318.362,221.056 316.805 C 219.808 315.979,219.477 315.068,219.492 312.500 C 219.525 306.820,221.802 303.445,226.080 302.733 C 226.689 302.632,227.252 302.538,227.330 302.524 C 227.409 302.511,227.709 302.590,227.997 302.699 M176.445 306.563 C 178.241 311.318,178.414 314.989,176.906 316.332 C 175.947 317.186,174.524 317.030,168.281 315.384 L 165.833 314.738 165.833 312.980 C 165.833 311.153,166.294 308.957,167.508 304.991 L 168.116 303.003 171.966 303.950 L 175.816 304.896 176.445 306.563 M186.702 306.555 C 187.123 306.623,188.890 306.765,190.630 306.869 C 194.360 307.092,193.946 306.823,194.415 309.327 C 196.024 317.901,194.520 321.778,189.481 322.043 C 186.074 322.221,180.237 319.649,180.215 317.960 C 180.174 314.895,184.088 306.088,185.383 306.328 C 185.688 306.384,186.282 306.486,186.702 306.555 M212.066 307.760 C 212.205 308.591,212.549 310.808,212.832 312.687 L 213.345 316.104 212.812 317.957 C 211.759 321.619,211.529 322.065,210.448 322.558 C 207.732 323.797,202.139 322.556,199.771 320.188 C 198.263 318.680,198.885 315.618,201.927 309.570 L 203.021 307.396 207.188 306.853 C 209.479 306.554,211.458 306.297,211.584 306.280 C 211.714 306.263,211.924 306.907,212.066 307.760 M161.582 319.473 C 162.769 319.826,163.765 320.746,164.296 321.979 C 165.464 324.695,163.817 332.134,161.392 335.095 L 160.888 335.710 158.349 334.685 C 155.281 333.447,155.628 333.884,154.718 330.104 C 153.573 325.345,153.333 324.048,153.333 322.618 L 153.333 321.306 155.781 320.355 C 157.128 319.831,158.370 319.358,158.542 319.301 C 159.173 319.095,160.577 319.175,161.582 319.473 M244.321 322.329 C 245.843 323.044,246.147 323.700,246.139 326.250 C 246.131 328.445,245.280 332.815,244.726 333.508 C 244.374 333.946,238.188 337.008,238.012 336.831 C 236.904 335.709,234.726 326.838,235.087 324.915 C 235.582 322.278,240.988 320.763,244.321 322.329 M177.191 326.856 C 180.013 328.240,180.106 328.359,180.099 330.595 C 180.092 332.603,179.719 334.221,178.202 338.809 C 177.680 340.388,177.305 341.818,177.370 341.986 C 177.538 342.424,177.427 342.399,174.172 341.273 C 170.662 340.060,171.271 340.679,170.144 337.170 C 168.531 332.146,168.114 328.704,169.026 327.947 C 169.518 327.539,174.097 325.902,174.897 325.847 C 175.013 325.840,176.045 326.293,177.191 326.856 M228.562 326.570 C 231.723 327.685,231.862 330.416,229.181 338.778 C 228.431 341.117,228.546 340.994,226.210 341.960 C 223.866 342.928,224.020 342.967,222.762 341.094 C 220.815 338.194,219.745 335.170,219.463 331.771 L 219.325 330.104 220.139 329.024 C 222.023 326.520,225.528 325.499,228.562 326.570 M211.294 327.315 C 212.378 327.665,213.527 328.673,213.981 329.673 C 214.752 331.372,214.564 332.554,212.176 340.996 C 211.090 344.836,211.055 345.035,211.382 345.534 C 211.569 345.820,211.687 346.088,211.643 346.130 C 211.332 346.420,207.980 347.133,206.462 347.232 L 204.615 347.351 204.399 346.540 C 201.341 335.058,200.580 331.205,201.120 329.941 C 202.168 327.492,207.543 326.105,211.294 327.315 M192.755 328.809 C 193.933 329.415,195.295 330.167,195.783 330.480 L 196.669 331.049 196.544 332.243 C 196.244 335.090,193.664 345.826,193.173 346.271 C 193.089 346.347,191.511 346.075,189.665 345.666 L 186.309 344.922 185.666 343.138 C 183.400 336.851,182.864 333.058,183.969 331.128 C 185.965 327.638,188.948 326.851,192.755 328.809 " stroke="none" fill="#000000" fill-rule="evenodd"></path></g></svg>